%TF.GenerationSoftware,KiCad,Pcbnew,7.0.9*%
%TF.CreationDate,2023-12-31T09:39:46+02:00*%
%TF.ProjectId,RainMaker,5261696e-4d61-46b6-9572-2e6b69636164,rev?*%
%TF.SameCoordinates,Original*%
%TF.FileFunction,Copper,L2,Bot*%
%TF.FilePolarity,Positive*%
%FSLAX46Y46*%
G04 Gerber Fmt 4.6, Leading zero omitted, Abs format (unit mm)*
G04 Created by KiCad (PCBNEW 7.0.9) date 2023-12-31 09:39:46*
%MOMM*%
%LPD*%
G01*
G04 APERTURE LIST*
%TA.AperFunction,ComponentPad*%
%ADD10C,6.000000*%
%TD*%
%TA.AperFunction,ComponentPad*%
%ADD11C,2.300000*%
%TD*%
%TA.AperFunction,ComponentPad*%
%ADD12C,2.000000*%
%TD*%
%TA.AperFunction,ComponentPad*%
%ADD13R,2.000000X2.000000*%
%TD*%
%TA.AperFunction,ComponentPad*%
%ADD14C,2.400000*%
%TD*%
%TA.AperFunction,ComponentPad*%
%ADD15R,1.700000X1.700000*%
%TD*%
%TA.AperFunction,ComponentPad*%
%ADD16O,1.700000X1.700000*%
%TD*%
%TA.AperFunction,HeatsinkPad*%
%ADD17C,0.600000*%
%TD*%
%TA.AperFunction,ViaPad*%
%ADD18C,0.800000*%
%TD*%
%TA.AperFunction,ViaPad*%
%ADD19C,0.600000*%
%TD*%
%TA.AperFunction,Conductor*%
%ADD20C,0.300000*%
%TD*%
%TA.AperFunction,Conductor*%
%ADD21C,3.000000*%
%TD*%
%TA.AperFunction,Conductor*%
%ADD22C,1.000000*%
%TD*%
G04 APERTURE END LIST*
D10*
%TO.P,REF\u002A\u002A,1*%
%TO.N,N/C*%
X55000000Y-116850000D03*
%TD*%
D11*
%TO.P,J3,1,1*%
%TO.N,/Z_1_OUT*%
X79600000Y-116150000D03*
%TO.P,J3,2,2*%
%TO.N,/Z_2_OUT*%
X84600000Y-116150000D03*
%TO.P,J3,3,3*%
%TO.N,/Z_3_OUT*%
X89600000Y-116150000D03*
%TO.P,J3,4,4*%
%TO.N,/Z_4_OUT*%
X94600000Y-116150000D03*
%TO.P,J3,5,5*%
%TO.N,/Z_5_OUT*%
X99600000Y-116150000D03*
%TO.P,J3,6,6*%
%TO.N,/Z_6_OUT*%
X104600000Y-116150000D03*
%TO.P,J3,7,7*%
%TO.N,/Z_7_OUT*%
X109600000Y-116150000D03*
%TO.P,J3,8,8*%
%TO.N,/Z_8_OUT*%
X114600000Y-116150000D03*
%TO.P,J3,9,9*%
%TO.N,/Z_9_OUT*%
X119600000Y-116150000D03*
%TO.P,J3,10,10*%
%TO.N,/Z_10_OUT*%
X124600000Y-116150000D03*
%TO.P,J3,11,11*%
%TO.N,/Z_11_OUT*%
X129600000Y-116150000D03*
%TO.P,J3,12,12*%
%TO.N,/Z_12_OUT*%
X134600000Y-116150000D03*
%TO.P,J3,13,13*%
%TO.N,VCC*%
X139600000Y-116150000D03*
%TO.P,J3,14,14*%
X144600000Y-116150000D03*
%TO.P,J3,15,15*%
%TO.N,GND*%
X149600000Y-116150000D03*
%TD*%
D10*
%TO.P,REF\u002A\u002A,1*%
%TO.N,N/C*%
X174900000Y-116800000D03*
%TD*%
D12*
%TO.P,C1,2*%
%TO.N,GND*%
X68050000Y-70200000D03*
D13*
%TO.P,C1,1*%
%TO.N,VCC*%
X68050000Y-75200000D03*
%TD*%
D14*
%TO.P,J1,1,1*%
%TO.N,GND*%
X55450000Y-70160000D03*
%TO.P,J1,2,2*%
%TO.N,VCC*%
X55450000Y-75240000D03*
%TD*%
D15*
%TO.P,J2,1,Pin_1*%
%TO.N,/ESP_IO_0*%
X176800000Y-79040000D03*
D16*
%TO.P,J2,2,Pin_2*%
%TO.N,/ESP_RX*%
X176800000Y-76500000D03*
%TO.P,J2,3,Pin_3*%
%TO.N,/ESP_TX*%
X176800000Y-73960000D03*
%TO.P,J2,4,Pin_4*%
%TO.N,/ESP_EN*%
X176800000Y-71420000D03*
%TO.P,J2,5,Pin_5*%
%TO.N,+3.3V*%
X176800000Y-68880000D03*
%TO.P,J2,6,Pin_6*%
%TO.N,GND*%
X176800000Y-66340000D03*
%TD*%
D10*
%TO.P,REF\u002A\u002A,1*%
%TO.N,N/C*%
X174900000Y-55050000D03*
%TD*%
%TO.P,REF\u002A\u002A,1*%
%TO.N,N/C*%
X55050000Y-55000000D03*
%TD*%
D17*
%TO.P,U2,39,GND*%
%TO.N,GND*%
X131995000Y-64197500D03*
X131995000Y-65722500D03*
X132757500Y-63435000D03*
X132757500Y-64960000D03*
X132757500Y-66485000D03*
X133520000Y-64197500D03*
X133520000Y-65722500D03*
X134282500Y-63435000D03*
X134282500Y-64960000D03*
X134282500Y-66485000D03*
X135045000Y-64197500D03*
X135045000Y-65722500D03*
%TD*%
D18*
%TO.N,/ESP_EN*%
X140534977Y-71415023D03*
X157174977Y-71415023D03*
%TO.N,VCC*%
X53100000Y-102750000D03*
X53100000Y-101750000D03*
X152500000Y-102650000D03*
X132800000Y-102700000D03*
X84000000Y-102650000D03*
X142500000Y-102650000D03*
X103450000Y-102650000D03*
X52150000Y-101750000D03*
X55300000Y-103800000D03*
X54050000Y-101750000D03*
X52150000Y-102750000D03*
X64100000Y-102750000D03*
X113200000Y-102650000D03*
X123250000Y-102600000D03*
X172450000Y-102750000D03*
X54350000Y-103750000D03*
X53450000Y-103700000D03*
X162150000Y-102650000D03*
X52550000Y-103650000D03*
X74050000Y-102700000D03*
X93550000Y-102650000D03*
X54050000Y-102800000D03*
%TO.N,+3.3V*%
X106700000Y-56800000D03*
D19*
X65300000Y-54900000D03*
X65300000Y-53500000D03*
D18*
X132750000Y-57550000D03*
D19*
X65300000Y-54200000D03*
D18*
%TO.N,/ESP_TX*%
X153350000Y-68650000D03*
X148880000Y-61430000D03*
%TO.N,/ESP_RX*%
X152450000Y-69600000D03*
X147900000Y-62700000D03*
%TO.N,/ESP_IO_0*%
X144600000Y-74150000D03*
X154900000Y-74150000D03*
D19*
%TO.N,Net-(U1-SW)*%
X68046792Y-58999999D03*
X76300000Y-57000000D03*
X68039377Y-59831362D03*
X75332140Y-59969387D03*
X76350000Y-59950000D03*
X68033490Y-60676027D03*
%TD*%
D20*
%TO.N,/ESP_EN*%
X140500000Y-71450000D02*
X140534977Y-71415023D01*
X157174977Y-71415023D02*
X140534977Y-71415023D01*
D21*
%TO.N,VCC*%
X74000000Y-102750000D02*
X74050000Y-102700000D01*
X113100000Y-102750000D02*
X113200000Y-102650000D01*
X74100000Y-102750000D02*
X83900000Y-102750000D01*
X152600000Y-102750000D02*
X162050000Y-102750000D01*
X123400000Y-102750000D02*
X132750000Y-102750000D01*
X162050000Y-102750000D02*
X162150000Y-102650000D01*
X93650000Y-102750000D02*
X103350000Y-102750000D01*
X172550000Y-102650000D02*
X170650000Y-102650000D01*
X162150000Y-102650000D02*
X162250000Y-102750000D01*
X132800000Y-102700000D02*
X132850000Y-102750000D01*
X172450000Y-102750000D02*
X172550000Y-102650000D01*
X162250000Y-102750000D02*
X172450000Y-102750000D01*
X113300000Y-102750000D02*
X123100000Y-102750000D01*
X84000000Y-102650000D02*
X84100000Y-102750000D01*
X142500000Y-102650000D02*
X142600000Y-102750000D01*
X83900000Y-102750000D02*
X84000000Y-102650000D01*
X103450000Y-102650000D02*
X103550000Y-102750000D01*
X93450000Y-102750000D02*
X93550000Y-102650000D01*
X152400000Y-102750000D02*
X152500000Y-102650000D01*
X103350000Y-102750000D02*
X103450000Y-102650000D01*
X53100000Y-102750000D02*
X64100000Y-102750000D01*
X74050000Y-102700000D02*
X74100000Y-102750000D01*
X152500000Y-102650000D02*
X152600000Y-102750000D01*
X132750000Y-102750000D02*
X132800000Y-102700000D01*
X142400000Y-102750000D02*
X142500000Y-102650000D01*
X93550000Y-102650000D02*
X93650000Y-102750000D01*
X132850000Y-102750000D02*
X142400000Y-102750000D01*
X123100000Y-102750000D02*
X123250000Y-102600000D01*
X84100000Y-102750000D02*
X93450000Y-102750000D01*
X123250000Y-102600000D02*
X123400000Y-102750000D01*
X103550000Y-102750000D02*
X113100000Y-102750000D01*
X142600000Y-102750000D02*
X152400000Y-102750000D01*
X113200000Y-102650000D02*
X113300000Y-102750000D01*
X64100000Y-102750000D02*
X74000000Y-102750000D01*
D22*
%TO.N,+3.3V*%
X132750000Y-57550000D02*
X165470000Y-57550000D01*
X165470000Y-57550000D02*
X176800000Y-68880000D01*
D20*
%TO.N,/ESP_TX*%
X152200000Y-67500000D02*
X153350000Y-68650000D01*
X148880000Y-61430000D02*
X152200000Y-64750000D01*
X152200000Y-64750000D02*
X152200000Y-67500000D01*
%TO.N,/ESP_RX*%
X147900000Y-62700000D02*
X151000000Y-65800000D01*
X151000000Y-65800000D02*
X151000000Y-68150000D01*
X151000000Y-68150000D02*
X152450000Y-69600000D01*
%TO.N,/ESP_IO_0*%
X144600000Y-74150000D02*
X154900000Y-74150000D01*
%TD*%
%TA.AperFunction,Conductor*%
%TO.N,+3.3V*%
G36*
X72000000Y-54900000D02*
G01*
X72100000Y-54900000D01*
X72100000Y-57476000D01*
X72080315Y-57543039D01*
X72027511Y-57588794D01*
X71976000Y-57600000D01*
X70524000Y-57600000D01*
X70456961Y-57580315D01*
X70411206Y-57527511D01*
X70400000Y-57476000D01*
X70400000Y-55600000D01*
X64824000Y-55600000D01*
X64756961Y-55580315D01*
X64711206Y-55527511D01*
X64700000Y-55476000D01*
X64700000Y-50124500D01*
X64719685Y-50057461D01*
X64772489Y-50011706D01*
X64824000Y-50000500D01*
X72000000Y-50000500D01*
X72000000Y-54900000D01*
G37*
%TD.AperFunction*%
%TD*%
%TA.AperFunction,Conductor*%
%TO.N,GND*%
G36*
X64137539Y-50020185D02*
G01*
X64183294Y-50072989D01*
X64194500Y-50124500D01*
X64194500Y-55476000D01*
X64194501Y-55476009D01*
X64206052Y-55583450D01*
X64206054Y-55583462D01*
X64217260Y-55634972D01*
X64251383Y-55737497D01*
X64251386Y-55737503D01*
X64329171Y-55858537D01*
X64329179Y-55858548D01*
X64374923Y-55911340D01*
X64374926Y-55911343D01*
X64374930Y-55911347D01*
X64483664Y-56005567D01*
X64483667Y-56005568D01*
X64483668Y-56005569D01*
X64507710Y-56016549D01*
X64614541Y-56065338D01*
X64659357Y-56078497D01*
X64681575Y-56085022D01*
X64681580Y-56085023D01*
X64681584Y-56085024D01*
X64824000Y-56105500D01*
X69770500Y-56105500D01*
X69837539Y-56125185D01*
X69883294Y-56177989D01*
X69894500Y-56229500D01*
X69894500Y-57476000D01*
X69894501Y-57476009D01*
X69903235Y-57557245D01*
X69890830Y-57626004D01*
X69843220Y-57677142D01*
X69779946Y-57694500D01*
X64524000Y-57694500D01*
X64523991Y-57694500D01*
X64523990Y-57694501D01*
X64416549Y-57706052D01*
X64416537Y-57706054D01*
X64365027Y-57717260D01*
X64262502Y-57751383D01*
X64262496Y-57751386D01*
X64141462Y-57829171D01*
X64141451Y-57829179D01*
X64088659Y-57874923D01*
X63994433Y-57983664D01*
X63994430Y-57983668D01*
X63934664Y-58114534D01*
X63914978Y-58181575D01*
X63914976Y-58181580D01*
X63912004Y-58202253D01*
X63894500Y-58324000D01*
X63894500Y-61476000D01*
X63894501Y-61476009D01*
X63906052Y-61583450D01*
X63906054Y-61583462D01*
X63917260Y-61634972D01*
X63951383Y-61737497D01*
X63951386Y-61737503D01*
X64029171Y-61858537D01*
X64029179Y-61858548D01*
X64074923Y-61911340D01*
X64074926Y-61911343D01*
X64074930Y-61911347D01*
X64183664Y-62005567D01*
X64183667Y-62005568D01*
X64183668Y-62005569D01*
X64277925Y-62048616D01*
X64314541Y-62065338D01*
X64359357Y-62078497D01*
X64381575Y-62085022D01*
X64381580Y-62085023D01*
X64381584Y-62085024D01*
X64524000Y-62105500D01*
X64524003Y-62105500D01*
X76875990Y-62105500D01*
X76876000Y-62105500D01*
X76983456Y-62093947D01*
X77034967Y-62082741D01*
X77069197Y-62071347D01*
X77137497Y-62048616D01*
X77137501Y-62048613D01*
X77137504Y-62048613D01*
X77258543Y-61970825D01*
X77311347Y-61925070D01*
X77405567Y-61816336D01*
X77465338Y-61685459D01*
X77485023Y-61618420D01*
X77485024Y-61618416D01*
X77505500Y-61476000D01*
X77505500Y-58400000D01*
X77505500Y-56124000D01*
X77493947Y-56016544D01*
X77482741Y-55965033D01*
X77482637Y-55964722D01*
X77448616Y-55862502D01*
X77448613Y-55862496D01*
X77370828Y-55741462D01*
X77370825Y-55741457D01*
X77367394Y-55737497D01*
X77325076Y-55688659D01*
X77325072Y-55688656D01*
X77325070Y-55688653D01*
X77249547Y-55623211D01*
X77211774Y-55564434D01*
X77211775Y-55494564D01*
X77249550Y-55435786D01*
X77313106Y-55406762D01*
X77330752Y-55405500D01*
X86970500Y-55405500D01*
X87037539Y-55425185D01*
X87083294Y-55477989D01*
X87094500Y-55529500D01*
X87094500Y-57176000D01*
X87094501Y-57176009D01*
X87106052Y-57283450D01*
X87106054Y-57283462D01*
X87117260Y-57334972D01*
X87151383Y-57437497D01*
X87151386Y-57437503D01*
X87229171Y-57558537D01*
X87229179Y-57558548D01*
X87274923Y-57611340D01*
X87274926Y-57611343D01*
X87274930Y-57611347D01*
X87383664Y-57705567D01*
X87383667Y-57705568D01*
X87383668Y-57705569D01*
X87483984Y-57751383D01*
X87514541Y-57765338D01*
X87559357Y-57778497D01*
X87581575Y-57785022D01*
X87581580Y-57785023D01*
X87581584Y-57785024D01*
X87724000Y-57805500D01*
X87724003Y-57805500D01*
X110075990Y-57805500D01*
X110076000Y-57805500D01*
X110183456Y-57793947D01*
X110234967Y-57782741D01*
X110269197Y-57771347D01*
X110337497Y-57748616D01*
X110337501Y-57748613D01*
X110337504Y-57748613D01*
X110458543Y-57670825D01*
X110511347Y-57625070D01*
X110532260Y-57600936D01*
X131745631Y-57600936D01*
X131776442Y-57802063D01*
X131776445Y-57802075D01*
X131847111Y-57992881D01*
X131847115Y-57992888D01*
X131954745Y-58165567D01*
X131954747Y-58165569D01*
X131954748Y-58165571D01*
X132094941Y-58313053D01*
X132196499Y-58383739D01*
X132261949Y-58429294D01*
X132261950Y-58429294D01*
X132261951Y-58429295D01*
X132448942Y-58509540D01*
X132648259Y-58550500D01*
X165004217Y-58550500D01*
X165071256Y-58570185D01*
X165091898Y-58586819D01*
X175418108Y-68913029D01*
X175451593Y-68974352D01*
X175453955Y-68989901D01*
X175464936Y-69115403D01*
X175464938Y-69115413D01*
X175526094Y-69343655D01*
X175526096Y-69343659D01*
X175526097Y-69343663D01*
X175568532Y-69434665D01*
X175625965Y-69557830D01*
X175625967Y-69557834D01*
X175761501Y-69751395D01*
X175761506Y-69751402D01*
X175928597Y-69918493D01*
X175928603Y-69918498D01*
X176114158Y-70048425D01*
X176157783Y-70103002D01*
X176164977Y-70172500D01*
X176133454Y-70234855D01*
X176114158Y-70251575D01*
X175928597Y-70381505D01*
X175761505Y-70548597D01*
X175625965Y-70742169D01*
X175625964Y-70742171D01*
X175526098Y-70956335D01*
X175526094Y-70956344D01*
X175464938Y-71184586D01*
X175464936Y-71184596D01*
X175444341Y-71419999D01*
X175444341Y-71420000D01*
X175464936Y-71655403D01*
X175464938Y-71655413D01*
X175526094Y-71883655D01*
X175526096Y-71883659D01*
X175526097Y-71883663D01*
X175555743Y-71947239D01*
X175625965Y-72097830D01*
X175625967Y-72097834D01*
X175761501Y-72291395D01*
X175761506Y-72291402D01*
X175928597Y-72458493D01*
X175928603Y-72458498D01*
X176114158Y-72588425D01*
X176157783Y-72643002D01*
X176164977Y-72712500D01*
X176133454Y-72774855D01*
X176114158Y-72791575D01*
X175928597Y-72921505D01*
X175761505Y-73088597D01*
X175625965Y-73282169D01*
X175625964Y-73282171D01*
X175526098Y-73496335D01*
X175526094Y-73496344D01*
X175464938Y-73724586D01*
X175464936Y-73724596D01*
X175444341Y-73959999D01*
X175444341Y-73960000D01*
X175464936Y-74195403D01*
X175464938Y-74195413D01*
X175526094Y-74423655D01*
X175526096Y-74423659D01*
X175526097Y-74423663D01*
X175570220Y-74518284D01*
X175625965Y-74637830D01*
X175625967Y-74637834D01*
X175657044Y-74682216D01*
X175753651Y-74820185D01*
X175761501Y-74831395D01*
X175761506Y-74831402D01*
X175928597Y-74998493D01*
X175928603Y-74998498D01*
X176114158Y-75128425D01*
X176157783Y-75183002D01*
X176164977Y-75252500D01*
X176133454Y-75314855D01*
X176114158Y-75331575D01*
X175928597Y-75461505D01*
X175761505Y-75628597D01*
X175625965Y-75822169D01*
X175625964Y-75822171D01*
X175526098Y-76036335D01*
X175526094Y-76036344D01*
X175464938Y-76264586D01*
X175464936Y-76264596D01*
X175444341Y-76499999D01*
X175444341Y-76500000D01*
X175464936Y-76735403D01*
X175464938Y-76735413D01*
X175526094Y-76963655D01*
X175526096Y-76963659D01*
X175526097Y-76963663D01*
X175625965Y-77177830D01*
X175625967Y-77177834D01*
X175734281Y-77332521D01*
X175761501Y-77371396D01*
X175761506Y-77371402D01*
X175883430Y-77493326D01*
X175916915Y-77554649D01*
X175911931Y-77624341D01*
X175870059Y-77680274D01*
X175839083Y-77697189D01*
X175707669Y-77746203D01*
X175707664Y-77746206D01*
X175592455Y-77832452D01*
X175592452Y-77832455D01*
X175506206Y-77947664D01*
X175506202Y-77947671D01*
X175455908Y-78082517D01*
X175449501Y-78142116D01*
X175449501Y-78142123D01*
X175449500Y-78142135D01*
X175449500Y-79937870D01*
X175449501Y-79937876D01*
X175455908Y-79997483D01*
X175506202Y-80132328D01*
X175506206Y-80132335D01*
X175592452Y-80247544D01*
X175592455Y-80247547D01*
X175707664Y-80333793D01*
X175707671Y-80333797D01*
X175842517Y-80384091D01*
X175842516Y-80384091D01*
X175849444Y-80384835D01*
X175902127Y-80390500D01*
X177697872Y-80390499D01*
X177757483Y-80384091D01*
X177892331Y-80333796D01*
X178007546Y-80247546D01*
X178093796Y-80132331D01*
X178144091Y-79997483D01*
X178150500Y-79937873D01*
X178150499Y-78142128D01*
X178144091Y-78082517D01*
X178093796Y-77947669D01*
X178093795Y-77947668D01*
X178093793Y-77947664D01*
X178007547Y-77832455D01*
X178007544Y-77832452D01*
X177892335Y-77746206D01*
X177892328Y-77746202D01*
X177760917Y-77697189D01*
X177704983Y-77655318D01*
X177680566Y-77589853D01*
X177695418Y-77521580D01*
X177716563Y-77493332D01*
X177838495Y-77371401D01*
X177974035Y-77177830D01*
X178073903Y-76963663D01*
X178135063Y-76735408D01*
X178155659Y-76500000D01*
X178135063Y-76264592D01*
X178073903Y-76036337D01*
X177974035Y-75822171D01*
X177838495Y-75628599D01*
X177838494Y-75628597D01*
X177671402Y-75461506D01*
X177671396Y-75461501D01*
X177485842Y-75331575D01*
X177442217Y-75276998D01*
X177435023Y-75207500D01*
X177466546Y-75145145D01*
X177485842Y-75128425D01*
X177653339Y-75011142D01*
X177671401Y-74998495D01*
X177838495Y-74831401D01*
X177974035Y-74637830D01*
X178073903Y-74423663D01*
X178135063Y-74195408D01*
X178155659Y-73960000D01*
X178135063Y-73724592D01*
X178074751Y-73499500D01*
X178073905Y-73496344D01*
X178073904Y-73496343D01*
X178073903Y-73496337D01*
X177974035Y-73282171D01*
X177838495Y-73088599D01*
X177838494Y-73088597D01*
X177671402Y-72921506D01*
X177671396Y-72921501D01*
X177485842Y-72791575D01*
X177442217Y-72736998D01*
X177435023Y-72667500D01*
X177466546Y-72605145D01*
X177485842Y-72588425D01*
X177508026Y-72572891D01*
X177671401Y-72458495D01*
X177838495Y-72291401D01*
X177974035Y-72097830D01*
X178073903Y-71883663D01*
X178135063Y-71655408D01*
X178155659Y-71420000D01*
X178135063Y-71184592D01*
X178073903Y-70956337D01*
X177974035Y-70742171D01*
X177936607Y-70688717D01*
X177838494Y-70548597D01*
X177671402Y-70381506D01*
X177671396Y-70381501D01*
X177485842Y-70251575D01*
X177442217Y-70196998D01*
X177435023Y-70127500D01*
X177466546Y-70065145D01*
X177485842Y-70048425D01*
X177508026Y-70032891D01*
X177671401Y-69918495D01*
X177838495Y-69751401D01*
X177974035Y-69557830D01*
X178073903Y-69343663D01*
X178135063Y-69115408D01*
X178155659Y-68880000D01*
X178135063Y-68644592D01*
X178073903Y-68416337D01*
X177974035Y-68202171D01*
X177973285Y-68201099D01*
X177838494Y-68008597D01*
X177671402Y-67841506D01*
X177671401Y-67841505D01*
X177485405Y-67711269D01*
X177441781Y-67656692D01*
X177434588Y-67587193D01*
X177466110Y-67524839D01*
X177485405Y-67508119D01*
X177671082Y-67378105D01*
X177838105Y-67211082D01*
X177973600Y-67017578D01*
X178073429Y-66803492D01*
X178073432Y-66803486D01*
X178130636Y-66590000D01*
X177233686Y-66590000D01*
X177259493Y-66549844D01*
X177300000Y-66411889D01*
X177300000Y-66268111D01*
X177259493Y-66130156D01*
X177233686Y-66090000D01*
X178130636Y-66090000D01*
X178130635Y-66089999D01*
X178073432Y-65876513D01*
X178073429Y-65876507D01*
X177973600Y-65662422D01*
X177973599Y-65662420D01*
X177838113Y-65468926D01*
X177838108Y-65468920D01*
X177671082Y-65301894D01*
X177477578Y-65166399D01*
X177263492Y-65066570D01*
X177263486Y-65066567D01*
X177050000Y-65009364D01*
X177050000Y-65904498D01*
X176942315Y-65855320D01*
X176835763Y-65840000D01*
X176764237Y-65840000D01*
X176657685Y-65855320D01*
X176550000Y-65904498D01*
X176550000Y-65009364D01*
X176549999Y-65009364D01*
X176336513Y-65066567D01*
X176336507Y-65066570D01*
X176122422Y-65166399D01*
X176122420Y-65166400D01*
X175928926Y-65301886D01*
X175928920Y-65301891D01*
X175761891Y-65468920D01*
X175761886Y-65468926D01*
X175626400Y-65662420D01*
X175626399Y-65662422D01*
X175526570Y-65876507D01*
X175526564Y-65876522D01*
X175515558Y-65917597D01*
X175479193Y-65977257D01*
X175416345Y-66007785D01*
X175346970Y-65999490D01*
X175308103Y-65973183D01*
X166186452Y-56851532D01*
X166125061Y-56786949D01*
X166125060Y-56786948D01*
X166125059Y-56786947D01*
X166075792Y-56752656D01*
X166074709Y-56751902D01*
X166070946Y-56749064D01*
X166023413Y-56710305D01*
X166023406Y-56710300D01*
X165992959Y-56694397D01*
X165986251Y-56690334D01*
X165958049Y-56670705D01*
X165958046Y-56670703D01*
X165958045Y-56670703D01*
X165958041Y-56670701D01*
X165901680Y-56646514D01*
X165897424Y-56644493D01*
X165843057Y-56616094D01*
X165843050Y-56616091D01*
X165843049Y-56616091D01*
X165837008Y-56614362D01*
X165810030Y-56606642D01*
X165802630Y-56604008D01*
X165771057Y-56590459D01*
X165771058Y-56590459D01*
X165710966Y-56578109D01*
X165706391Y-56576986D01*
X165647420Y-56560113D01*
X165647425Y-56560113D01*
X165613158Y-56557503D01*
X165605380Y-56556412D01*
X165571742Y-56549500D01*
X165571741Y-56549500D01*
X165510402Y-56549500D01*
X165505695Y-56549321D01*
X165500121Y-56548896D01*
X165444524Y-56544662D01*
X165424589Y-56547201D01*
X165410440Y-56549003D01*
X165402611Y-56549500D01*
X132699257Y-56549500D01*
X132547560Y-56564925D01*
X132353420Y-56625837D01*
X132353405Y-56625844D01*
X132175500Y-56724589D01*
X132175495Y-56724592D01*
X132021106Y-56857132D01*
X132021104Y-56857134D01*
X131896554Y-57018037D01*
X131896553Y-57018040D01*
X131806940Y-57200728D01*
X131755937Y-57397714D01*
X131745631Y-57600936D01*
X110532260Y-57600936D01*
X110605567Y-57516336D01*
X110665338Y-57385459D01*
X110685023Y-57318420D01*
X110685024Y-57318416D01*
X110705500Y-57176000D01*
X110705500Y-56194000D01*
X110725185Y-56126961D01*
X110777989Y-56081206D01*
X110829500Y-56070000D01*
X158200000Y-56070000D01*
X158200000Y-55050000D01*
X171394696Y-55050000D01*
X171413898Y-55416405D01*
X171457018Y-55688653D01*
X171471295Y-55778794D01*
X171563793Y-56124001D01*
X171566260Y-56133206D01*
X171697746Y-56475739D01*
X171864320Y-56802656D01*
X172064147Y-57110364D01*
X172204310Y-57283450D01*
X172295051Y-57395506D01*
X172554494Y-57654949D01*
X172631442Y-57717260D01*
X172839635Y-57885852D01*
X173070354Y-58035682D01*
X173147348Y-58085682D01*
X173474264Y-58252255D01*
X173816801Y-58383742D01*
X174171206Y-58478705D01*
X174533596Y-58536102D01*
X174879734Y-58554241D01*
X174899999Y-58555304D01*
X174900000Y-58555304D01*
X174900001Y-58555304D01*
X174919203Y-58554297D01*
X175266404Y-58536102D01*
X175628794Y-58478705D01*
X175983199Y-58383742D01*
X176325736Y-58252255D01*
X176652652Y-58085682D01*
X176960366Y-57885851D01*
X177245506Y-57654949D01*
X177504949Y-57395506D01*
X177735851Y-57110366D01*
X177935682Y-56802652D01*
X178102255Y-56475736D01*
X178233742Y-56133199D01*
X178328705Y-55778794D01*
X178386102Y-55416404D01*
X178405304Y-55050000D01*
X178386102Y-54683596D01*
X178328705Y-54321206D01*
X178233742Y-53966801D01*
X178225690Y-53945826D01*
X178147910Y-53743200D01*
X178102255Y-53624264D01*
X177935682Y-53297348D01*
X177830620Y-53135566D01*
X177735852Y-52989635D01*
X177504952Y-52704498D01*
X177504949Y-52704494D01*
X177245506Y-52445051D01*
X176960366Y-52214149D01*
X176960364Y-52214147D01*
X176652656Y-52014320D01*
X176325739Y-51847746D01*
X175983206Y-51716260D01*
X175911163Y-51696956D01*
X175628794Y-51621295D01*
X175628790Y-51621294D01*
X175628789Y-51621294D01*
X175266405Y-51563898D01*
X174900001Y-51544696D01*
X174899999Y-51544696D01*
X174533594Y-51563898D01*
X174171211Y-51621294D01*
X174171209Y-51621294D01*
X173816793Y-51716260D01*
X173474260Y-51847746D01*
X173147343Y-52014320D01*
X172839635Y-52214147D01*
X172554498Y-52445047D01*
X172554490Y-52445054D01*
X172295054Y-52704490D01*
X172295047Y-52704498D01*
X172064147Y-52989635D01*
X171864320Y-53297343D01*
X171697746Y-53624260D01*
X171566260Y-53966793D01*
X171471294Y-54321209D01*
X171471294Y-54321211D01*
X171413898Y-54683594D01*
X171394696Y-55049999D01*
X171394696Y-55050000D01*
X158200000Y-55050000D01*
X158200000Y-50124500D01*
X158219685Y-50057461D01*
X158272489Y-50011706D01*
X158324000Y-50000500D01*
X174999500Y-50000500D01*
X175000000Y-50000500D01*
X175217318Y-50009488D01*
X175415934Y-50018160D01*
X175420865Y-50018574D01*
X175636792Y-50045489D01*
X175832940Y-50071313D01*
X175837265Y-50071883D01*
X175841894Y-50072671D01*
X176054183Y-50117183D01*
X176252534Y-50161157D01*
X176256778Y-50162257D01*
X176464544Y-50224112D01*
X176658658Y-50285317D01*
X176662530Y-50286680D01*
X176864457Y-50365472D01*
X177052817Y-50443494D01*
X177056252Y-50445045D01*
X177131343Y-50481755D01*
X177250992Y-50540249D01*
X177388629Y-50611897D01*
X177432009Y-50634479D01*
X177435107Y-50636207D01*
X177621382Y-50747202D01*
X177793662Y-50856957D01*
X177796377Y-50858789D01*
X177972918Y-50984837D01*
X178135098Y-51109282D01*
X178137426Y-51111159D01*
X178303055Y-51251439D01*
X178454895Y-51390574D01*
X178609424Y-51545103D01*
X178720444Y-51666260D01*
X178748555Y-51696938D01*
X178763008Y-51714003D01*
X178888839Y-51862572D01*
X178890716Y-51864900D01*
X179015162Y-52027081D01*
X179141209Y-52203621D01*
X179143040Y-52206335D01*
X179252797Y-52378617D01*
X179363791Y-52564891D01*
X179365525Y-52568000D01*
X179459750Y-52749007D01*
X179525992Y-52884503D01*
X179554953Y-52943744D01*
X179556524Y-52947229D01*
X179634536Y-53135566D01*
X179713309Y-53337445D01*
X179714681Y-53341340D01*
X179775899Y-53535496D01*
X179837735Y-53743200D01*
X179838843Y-53747472D01*
X179882818Y-53945826D01*
X179927326Y-54158101D01*
X179928115Y-54162733D01*
X179954524Y-54363319D01*
X179981422Y-54579114D01*
X179981839Y-54584080D01*
X179990513Y-54782728D01*
X179999500Y-55000000D01*
X179999500Y-117000000D01*
X179990513Y-117217271D01*
X179981839Y-117415918D01*
X179981422Y-117420884D01*
X179954524Y-117636680D01*
X179928115Y-117837265D01*
X179927326Y-117841897D01*
X179882818Y-118054173D01*
X179838843Y-118252526D01*
X179837735Y-118256798D01*
X179775899Y-118464503D01*
X179714681Y-118658658D01*
X179713309Y-118662552D01*
X179634536Y-118864433D01*
X179556524Y-119052769D01*
X179554944Y-119056274D01*
X179459750Y-119250992D01*
X179365525Y-119431998D01*
X179363791Y-119435107D01*
X179252797Y-119621382D01*
X179143040Y-119793663D01*
X179141209Y-119796377D01*
X179015162Y-119972918D01*
X178890716Y-120135099D01*
X178888839Y-120137426D01*
X178748557Y-120303059D01*
X178609426Y-120454895D01*
X178454895Y-120609426D01*
X178303059Y-120748557D01*
X178137426Y-120888839D01*
X178135099Y-120890716D01*
X177972918Y-121015162D01*
X177796377Y-121141209D01*
X177793663Y-121143040D01*
X177621382Y-121252797D01*
X177435107Y-121363791D01*
X177431998Y-121365525D01*
X177250992Y-121459750D01*
X177056274Y-121554944D01*
X177052769Y-121556524D01*
X176864433Y-121634536D01*
X176662552Y-121713309D01*
X176658658Y-121714681D01*
X176464503Y-121775899D01*
X176256798Y-121837735D01*
X176252526Y-121838843D01*
X176054173Y-121882818D01*
X175841897Y-121927326D01*
X175837265Y-121928115D01*
X175636680Y-121954524D01*
X175420884Y-121981422D01*
X175415918Y-121981839D01*
X175217271Y-121990513D01*
X175000000Y-121999500D01*
X55000000Y-121999500D01*
X54782728Y-121990513D01*
X54584080Y-121981839D01*
X54579114Y-121981422D01*
X54363319Y-121954524D01*
X54162733Y-121928115D01*
X54158101Y-121927326D01*
X53945826Y-121882818D01*
X53747472Y-121838843D01*
X53743200Y-121837735D01*
X53535496Y-121775899D01*
X53341340Y-121714681D01*
X53337445Y-121713309D01*
X53135566Y-121634536D01*
X52947229Y-121556524D01*
X52943744Y-121554953D01*
X52884503Y-121525992D01*
X52749007Y-121459750D01*
X52568000Y-121365525D01*
X52564891Y-121363791D01*
X52378617Y-121252797D01*
X52206335Y-121143040D01*
X52203621Y-121141209D01*
X52027081Y-121015162D01*
X51864900Y-120890716D01*
X51862572Y-120888839D01*
X51696940Y-120748557D01*
X51545103Y-120609424D01*
X51390574Y-120454895D01*
X51251439Y-120303055D01*
X51111159Y-120137426D01*
X51109282Y-120135098D01*
X50984837Y-119972918D01*
X50858789Y-119796377D01*
X50856957Y-119793662D01*
X50747202Y-119621382D01*
X50636207Y-119435107D01*
X50634473Y-119431998D01*
X50620390Y-119404945D01*
X50611897Y-119388629D01*
X50540249Y-119250992D01*
X50481755Y-119131343D01*
X50445045Y-119056252D01*
X50443494Y-119052817D01*
X50365463Y-118864433D01*
X50286680Y-118662530D01*
X50285317Y-118658658D01*
X50224100Y-118464503D01*
X50213246Y-118428044D01*
X50162257Y-118256778D01*
X50161155Y-118252526D01*
X50155216Y-118225739D01*
X50117175Y-118054145D01*
X50111495Y-118027057D01*
X50072671Y-117841894D01*
X50071883Y-117837265D01*
X50067715Y-117805603D01*
X50045489Y-117636791D01*
X50018574Y-117420865D01*
X50018160Y-117415934D01*
X50009486Y-117217271D01*
X50000500Y-117000000D01*
X50000500Y-116999500D01*
X50000500Y-116850000D01*
X51494696Y-116850000D01*
X51513898Y-117216404D01*
X51571295Y-117578794D01*
X51652860Y-117883199D01*
X51666260Y-117933206D01*
X51797746Y-118275739D01*
X51964320Y-118602656D01*
X52164147Y-118910364D01*
X52282303Y-119056274D01*
X52395051Y-119195506D01*
X52654494Y-119454949D01*
X52654498Y-119454952D01*
X52939635Y-119685852D01*
X53170354Y-119835682D01*
X53247348Y-119885682D01*
X53574264Y-120052255D01*
X53916801Y-120183742D01*
X54271206Y-120278705D01*
X54633596Y-120336102D01*
X54979734Y-120354241D01*
X54999999Y-120355304D01*
X55000000Y-120355304D01*
X55000001Y-120355304D01*
X55019203Y-120354297D01*
X55366404Y-120336102D01*
X55728794Y-120278705D01*
X56083199Y-120183742D01*
X56425736Y-120052255D01*
X56752652Y-119885682D01*
X57060366Y-119685851D01*
X57345506Y-119454949D01*
X57604949Y-119195506D01*
X57835851Y-118910366D01*
X58035682Y-118602652D01*
X58202255Y-118275736D01*
X58333742Y-117933199D01*
X58428705Y-117578794D01*
X58486102Y-117216404D01*
X58505304Y-116850000D01*
X58486102Y-116483596D01*
X58433266Y-116150000D01*
X77944396Y-116150000D01*
X77964778Y-116408990D01*
X78025427Y-116661610D01*
X78124843Y-116901623D01*
X78124845Y-116901627D01*
X78124846Y-116901628D01*
X78260588Y-117123140D01*
X78429311Y-117320689D01*
X78626860Y-117489412D01*
X78848372Y-117625154D01*
X78848374Y-117625154D01*
X78848376Y-117625156D01*
X78876198Y-117636680D01*
X79088390Y-117724573D01*
X79341006Y-117785221D01*
X79600000Y-117805604D01*
X79858994Y-117785221D01*
X80111610Y-117724573D01*
X80351628Y-117625154D01*
X80573140Y-117489412D01*
X80770689Y-117320689D01*
X80939412Y-117123140D01*
X81075154Y-116901628D01*
X81174573Y-116661610D01*
X81235221Y-116408994D01*
X81255604Y-116150000D01*
X82944396Y-116150000D01*
X82964778Y-116408990D01*
X83025427Y-116661610D01*
X83124843Y-116901623D01*
X83124845Y-116901627D01*
X83124846Y-116901628D01*
X83260588Y-117123140D01*
X83429311Y-117320689D01*
X83626860Y-117489412D01*
X83848372Y-117625154D01*
X83848374Y-117625154D01*
X83848376Y-117625156D01*
X83876198Y-117636680D01*
X84088390Y-117724573D01*
X84341006Y-117785221D01*
X84600000Y-117805604D01*
X84858994Y-117785221D01*
X85111610Y-117724573D01*
X85351628Y-117625154D01*
X85573140Y-117489412D01*
X85770689Y-117320689D01*
X85939412Y-117123140D01*
X86075154Y-116901628D01*
X86174573Y-116661610D01*
X86235221Y-116408994D01*
X86255604Y-116150000D01*
X87944396Y-116150000D01*
X87964778Y-116408990D01*
X88025427Y-116661610D01*
X88124843Y-116901623D01*
X88124845Y-116901627D01*
X88124846Y-116901628D01*
X88260588Y-117123140D01*
X88429311Y-117320689D01*
X88626860Y-117489412D01*
X88848372Y-117625154D01*
X88848374Y-117625154D01*
X88848376Y-117625156D01*
X88876198Y-117636680D01*
X89088390Y-117724573D01*
X89341006Y-117785221D01*
X89600000Y-117805604D01*
X89858994Y-117785221D01*
X90111610Y-117724573D01*
X90351628Y-117625154D01*
X90573140Y-117489412D01*
X90770689Y-117320689D01*
X90939412Y-117123140D01*
X91075154Y-116901628D01*
X91174573Y-116661610D01*
X91235221Y-116408994D01*
X91255604Y-116150000D01*
X92944396Y-116150000D01*
X92964778Y-116408990D01*
X93025427Y-116661610D01*
X93124843Y-116901623D01*
X93124845Y-116901627D01*
X93124846Y-116901628D01*
X93260588Y-117123140D01*
X93429311Y-117320689D01*
X93626860Y-117489412D01*
X93848372Y-117625154D01*
X93848374Y-117625154D01*
X93848376Y-117625156D01*
X93876198Y-117636680D01*
X94088390Y-117724573D01*
X94341006Y-117785221D01*
X94600000Y-117805604D01*
X94858994Y-117785221D01*
X95111610Y-117724573D01*
X95351628Y-117625154D01*
X95573140Y-117489412D01*
X95770689Y-117320689D01*
X95939412Y-117123140D01*
X96075154Y-116901628D01*
X96174573Y-116661610D01*
X96235221Y-116408994D01*
X96255604Y-116150000D01*
X97944396Y-116150000D01*
X97964778Y-116408990D01*
X98025427Y-116661610D01*
X98124843Y-116901623D01*
X98124845Y-116901627D01*
X98124846Y-116901628D01*
X98260588Y-117123140D01*
X98429311Y-117320689D01*
X98626860Y-117489412D01*
X98848372Y-117625154D01*
X98848374Y-117625154D01*
X98848376Y-117625156D01*
X98876198Y-117636680D01*
X99088390Y-117724573D01*
X99341006Y-117785221D01*
X99600000Y-117805604D01*
X99858994Y-117785221D01*
X100111610Y-117724573D01*
X100351628Y-117625154D01*
X100573140Y-117489412D01*
X100770689Y-117320689D01*
X100939412Y-117123140D01*
X101075154Y-116901628D01*
X101174573Y-116661610D01*
X101235221Y-116408994D01*
X101255604Y-116150000D01*
X102944396Y-116150000D01*
X102964778Y-116408990D01*
X103025427Y-116661610D01*
X103124843Y-116901623D01*
X103124845Y-116901627D01*
X103124846Y-116901628D01*
X103260588Y-117123140D01*
X103429311Y-117320689D01*
X103626860Y-117489412D01*
X103848372Y-117625154D01*
X103848374Y-117625154D01*
X103848376Y-117625156D01*
X103876198Y-117636680D01*
X104088390Y-117724573D01*
X104341006Y-117785221D01*
X104600000Y-117805604D01*
X104858994Y-117785221D01*
X105111610Y-117724573D01*
X105351628Y-117625154D01*
X105573140Y-117489412D01*
X105770689Y-117320689D01*
X105939412Y-117123140D01*
X106075154Y-116901628D01*
X106174573Y-116661610D01*
X106235221Y-116408994D01*
X106255604Y-116150000D01*
X107944396Y-116150000D01*
X107964778Y-116408990D01*
X108025427Y-116661610D01*
X108124843Y-116901623D01*
X108124845Y-116901627D01*
X108124846Y-116901628D01*
X108260588Y-117123140D01*
X108429311Y-117320689D01*
X108626860Y-117489412D01*
X108848372Y-117625154D01*
X108848374Y-117625154D01*
X108848376Y-117625156D01*
X108876198Y-117636680D01*
X109088390Y-117724573D01*
X109341006Y-117785221D01*
X109600000Y-117805604D01*
X109858994Y-117785221D01*
X110111610Y-117724573D01*
X110351628Y-117625154D01*
X110573140Y-117489412D01*
X110770689Y-117320689D01*
X110939412Y-117123140D01*
X111075154Y-116901628D01*
X111174573Y-116661610D01*
X111235221Y-116408994D01*
X111255604Y-116150000D01*
X112944396Y-116150000D01*
X112964778Y-116408990D01*
X113025427Y-116661610D01*
X113124843Y-116901623D01*
X113124845Y-116901627D01*
X113124846Y-116901628D01*
X113260588Y-117123140D01*
X113429311Y-117320689D01*
X113626860Y-117489412D01*
X113848372Y-117625154D01*
X113848374Y-117625154D01*
X113848376Y-117625156D01*
X113876198Y-117636680D01*
X114088390Y-117724573D01*
X114341006Y-117785221D01*
X114600000Y-117805604D01*
X114858994Y-117785221D01*
X115111610Y-117724573D01*
X115351628Y-117625154D01*
X115573140Y-117489412D01*
X115770689Y-117320689D01*
X115939412Y-117123140D01*
X116075154Y-116901628D01*
X116174573Y-116661610D01*
X116235221Y-116408994D01*
X116255604Y-116150000D01*
X117944396Y-116150000D01*
X117964778Y-116408990D01*
X118025427Y-116661610D01*
X118124843Y-116901623D01*
X118124845Y-116901627D01*
X118124846Y-116901628D01*
X118260588Y-117123140D01*
X118429311Y-117320689D01*
X118626860Y-117489412D01*
X118848372Y-117625154D01*
X118848374Y-117625154D01*
X118848376Y-117625156D01*
X118876198Y-117636680D01*
X119088390Y-117724573D01*
X119341006Y-117785221D01*
X119600000Y-117805604D01*
X119858994Y-117785221D01*
X120111610Y-117724573D01*
X120351628Y-117625154D01*
X120573140Y-117489412D01*
X120770689Y-117320689D01*
X120939412Y-117123140D01*
X121075154Y-116901628D01*
X121174573Y-116661610D01*
X121235221Y-116408994D01*
X121255604Y-116150000D01*
X122944396Y-116150000D01*
X122964778Y-116408990D01*
X123025427Y-116661610D01*
X123124843Y-116901623D01*
X123124845Y-116901627D01*
X123124846Y-116901628D01*
X123260588Y-117123140D01*
X123429311Y-117320689D01*
X123626860Y-117489412D01*
X123848372Y-117625154D01*
X123848374Y-117625154D01*
X123848376Y-117625156D01*
X123876198Y-117636680D01*
X124088390Y-117724573D01*
X124341006Y-117785221D01*
X124600000Y-117805604D01*
X124858994Y-117785221D01*
X125111610Y-117724573D01*
X125351628Y-117625154D01*
X125573140Y-117489412D01*
X125770689Y-117320689D01*
X125939412Y-117123140D01*
X126075154Y-116901628D01*
X126174573Y-116661610D01*
X126235221Y-116408994D01*
X126255604Y-116150000D01*
X127944396Y-116150000D01*
X127964778Y-116408990D01*
X128025427Y-116661610D01*
X128124843Y-116901623D01*
X128124845Y-116901627D01*
X128124846Y-116901628D01*
X128260588Y-117123140D01*
X128429311Y-117320689D01*
X128626860Y-117489412D01*
X128848372Y-117625154D01*
X128848374Y-117625154D01*
X128848376Y-117625156D01*
X128876198Y-117636680D01*
X129088390Y-117724573D01*
X129341006Y-117785221D01*
X129600000Y-117805604D01*
X129858994Y-117785221D01*
X130111610Y-117724573D01*
X130351628Y-117625154D01*
X130573140Y-117489412D01*
X130770689Y-117320689D01*
X130939412Y-117123140D01*
X131075154Y-116901628D01*
X131174573Y-116661610D01*
X131235221Y-116408994D01*
X131255604Y-116150000D01*
X132944396Y-116150000D01*
X132964778Y-116408990D01*
X133025427Y-116661610D01*
X133124843Y-116901623D01*
X133124845Y-116901627D01*
X133124846Y-116901628D01*
X133260588Y-117123140D01*
X133429311Y-117320689D01*
X133626860Y-117489412D01*
X133848372Y-117625154D01*
X133848374Y-117625154D01*
X133848376Y-117625156D01*
X133876198Y-117636680D01*
X134088390Y-117724573D01*
X134341006Y-117785221D01*
X134600000Y-117805604D01*
X134858994Y-117785221D01*
X135111610Y-117724573D01*
X135351628Y-117625154D01*
X135573140Y-117489412D01*
X135770689Y-117320689D01*
X135939412Y-117123140D01*
X136075154Y-116901628D01*
X136174573Y-116661610D01*
X136235221Y-116408994D01*
X136255604Y-116150000D01*
X137944396Y-116150000D01*
X137964778Y-116408990D01*
X138025427Y-116661610D01*
X138124843Y-116901623D01*
X138124845Y-116901627D01*
X138124846Y-116901628D01*
X138260588Y-117123140D01*
X138429311Y-117320689D01*
X138626860Y-117489412D01*
X138848372Y-117625154D01*
X138848374Y-117625154D01*
X138848376Y-117625156D01*
X138876198Y-117636680D01*
X139088390Y-117724573D01*
X139341006Y-117785221D01*
X139600000Y-117805604D01*
X139858994Y-117785221D01*
X140111610Y-117724573D01*
X140351628Y-117625154D01*
X140573140Y-117489412D01*
X140770689Y-117320689D01*
X140939412Y-117123140D01*
X141075154Y-116901628D01*
X141174573Y-116661610D01*
X141235221Y-116408994D01*
X141255604Y-116150000D01*
X142944396Y-116150000D01*
X142964778Y-116408990D01*
X143025427Y-116661610D01*
X143124843Y-116901623D01*
X143124845Y-116901627D01*
X143124846Y-116901628D01*
X143260588Y-117123140D01*
X143429311Y-117320689D01*
X143626860Y-117489412D01*
X143848372Y-117625154D01*
X143848374Y-117625154D01*
X143848376Y-117625156D01*
X143876198Y-117636680D01*
X144088390Y-117724573D01*
X144341006Y-117785221D01*
X144600000Y-117805604D01*
X144858994Y-117785221D01*
X145111610Y-117724573D01*
X145351628Y-117625154D01*
X145573140Y-117489412D01*
X145770689Y-117320689D01*
X145939412Y-117123140D01*
X146075154Y-116901628D01*
X146174573Y-116661610D01*
X146235221Y-116408994D01*
X146255604Y-116150000D01*
X147944898Y-116150000D01*
X147965274Y-116408912D01*
X148025901Y-116661445D01*
X148025906Y-116661462D01*
X148125290Y-116901397D01*
X148125292Y-116901400D01*
X148260992Y-117122842D01*
X148260993Y-117122843D01*
X148266801Y-117129644D01*
X148922795Y-116473650D01*
X148946049Y-116527558D01*
X149050748Y-116668193D01*
X149185056Y-116780891D01*
X149276657Y-116826894D01*
X148620354Y-117483197D01*
X148627157Y-117489007D01*
X148848599Y-117624707D01*
X148848602Y-117624709D01*
X149088537Y-117724093D01*
X149088554Y-117724098D01*
X149341088Y-117784725D01*
X149341087Y-117784725D01*
X149600000Y-117805101D01*
X149858912Y-117784725D01*
X150111445Y-117724098D01*
X150111462Y-117724093D01*
X150351397Y-117624709D01*
X150351400Y-117624707D01*
X150572844Y-117489005D01*
X150579644Y-117483197D01*
X149925954Y-116829507D01*
X149938896Y-116824797D01*
X150085380Y-116728453D01*
X150205697Y-116600925D01*
X150278456Y-116474903D01*
X150933197Y-117129644D01*
X150939005Y-117122844D01*
X151074707Y-116901400D01*
X151074709Y-116901397D01*
X151116709Y-116800000D01*
X171394696Y-116800000D01*
X171413898Y-117166405D01*
X171454204Y-117420884D01*
X171471295Y-117528794D01*
X171550098Y-117822891D01*
X171566260Y-117883206D01*
X171697746Y-118225739D01*
X171864320Y-118552656D01*
X172064147Y-118860364D01*
X172104638Y-118910366D01*
X172295051Y-119145506D01*
X172554494Y-119404949D01*
X172554498Y-119404952D01*
X172839635Y-119635852D01*
X173082644Y-119793663D01*
X173147348Y-119835682D01*
X173474264Y-120002255D01*
X173816801Y-120133742D01*
X174171206Y-120228705D01*
X174533596Y-120286102D01*
X174879734Y-120304241D01*
X174899999Y-120305304D01*
X174900000Y-120305304D01*
X174900001Y-120305304D01*
X174919203Y-120304297D01*
X175266404Y-120286102D01*
X175628794Y-120228705D01*
X175983199Y-120133742D01*
X176325736Y-120002255D01*
X176652652Y-119835682D01*
X176960366Y-119635851D01*
X177245506Y-119404949D01*
X177504949Y-119145506D01*
X177735851Y-118860366D01*
X177935682Y-118552652D01*
X178102255Y-118225736D01*
X178233742Y-117883199D01*
X178328705Y-117528794D01*
X178386102Y-117166404D01*
X178405304Y-116800000D01*
X178386102Y-116433596D01*
X178328705Y-116071206D01*
X178233742Y-115716801D01*
X178102255Y-115374264D01*
X177935682Y-115047348D01*
X177935679Y-115047343D01*
X177735852Y-114739635D01*
X177603267Y-114575906D01*
X177504949Y-114454494D01*
X177245506Y-114195051D01*
X177022111Y-114014149D01*
X176960364Y-113964147D01*
X176652656Y-113764320D01*
X176325739Y-113597746D01*
X175983206Y-113466260D01*
X175983199Y-113466258D01*
X175628794Y-113371295D01*
X175628790Y-113371294D01*
X175628789Y-113371294D01*
X175266405Y-113313898D01*
X174900001Y-113294696D01*
X174899999Y-113294696D01*
X174533594Y-113313898D01*
X174171211Y-113371294D01*
X174171209Y-113371294D01*
X173816793Y-113466260D01*
X173474260Y-113597746D01*
X173147343Y-113764320D01*
X172839635Y-113964147D01*
X172554498Y-114195047D01*
X172554490Y-114195054D01*
X172295054Y-114454490D01*
X172295047Y-114454498D01*
X172064147Y-114739635D01*
X171864320Y-115047343D01*
X171697746Y-115374260D01*
X171566260Y-115716793D01*
X171471294Y-116071209D01*
X171471294Y-116071211D01*
X171413898Y-116433594D01*
X171394696Y-116799999D01*
X171394696Y-116800000D01*
X151116709Y-116800000D01*
X151174093Y-116661462D01*
X151174098Y-116661445D01*
X151234725Y-116408912D01*
X151255101Y-116150000D01*
X151234725Y-115891087D01*
X151174098Y-115638554D01*
X151174093Y-115638537D01*
X151074709Y-115398602D01*
X151074707Y-115398599D01*
X150939007Y-115177157D01*
X150933197Y-115170354D01*
X150277203Y-115826348D01*
X150253951Y-115772442D01*
X150149252Y-115631807D01*
X150014944Y-115519109D01*
X149923342Y-115473105D01*
X150579645Y-114816801D01*
X150572843Y-114810993D01*
X150572842Y-114810992D01*
X150351400Y-114675292D01*
X150351397Y-114675290D01*
X150111462Y-114575906D01*
X150111445Y-114575901D01*
X149858911Y-114515274D01*
X149858912Y-114515274D01*
X149600000Y-114494898D01*
X149341087Y-114515274D01*
X149088554Y-114575901D01*
X149088537Y-114575906D01*
X148848602Y-114675290D01*
X148848599Y-114675292D01*
X148627155Y-114810993D01*
X148620353Y-114816800D01*
X149274045Y-115470492D01*
X149261104Y-115475203D01*
X149114620Y-115571547D01*
X148994303Y-115699075D01*
X148921543Y-115825096D01*
X148266800Y-115170353D01*
X148260993Y-115177155D01*
X148125292Y-115398599D01*
X148125290Y-115398602D01*
X148025906Y-115638537D01*
X148025901Y-115638554D01*
X147965274Y-115891087D01*
X147944898Y-116150000D01*
X146255604Y-116150000D01*
X146235221Y-115891006D01*
X146174573Y-115638390D01*
X146075824Y-115399989D01*
X146075156Y-115398376D01*
X146060380Y-115374264D01*
X145939412Y-115176860D01*
X145770689Y-114979311D01*
X145573140Y-114810588D01*
X145351628Y-114674846D01*
X145351627Y-114674845D01*
X145351623Y-114674843D01*
X145185627Y-114606086D01*
X145111610Y-114575427D01*
X145111611Y-114575427D01*
X144973921Y-114542370D01*
X144858994Y-114514779D01*
X144858992Y-114514778D01*
X144858991Y-114514778D01*
X144600000Y-114494396D01*
X144341009Y-114514778D01*
X144088389Y-114575427D01*
X143848376Y-114674843D01*
X143626859Y-114810588D01*
X143429311Y-114979311D01*
X143260588Y-115176859D01*
X143124843Y-115398376D01*
X143025427Y-115638389D01*
X142964778Y-115891009D01*
X142944396Y-116150000D01*
X141255604Y-116150000D01*
X141235221Y-115891006D01*
X141174573Y-115638390D01*
X141075824Y-115399989D01*
X141075156Y-115398376D01*
X141060380Y-115374264D01*
X140939412Y-115176860D01*
X140770689Y-114979311D01*
X140573140Y-114810588D01*
X140351628Y-114674846D01*
X140351627Y-114674845D01*
X140351623Y-114674843D01*
X140185627Y-114606086D01*
X140111610Y-114575427D01*
X140111611Y-114575427D01*
X139973921Y-114542370D01*
X139858994Y-114514779D01*
X139858992Y-114514778D01*
X139858991Y-114514778D01*
X139600000Y-114494396D01*
X139341009Y-114514778D01*
X139088389Y-114575427D01*
X138848376Y-114674843D01*
X138626859Y-114810588D01*
X138429311Y-114979311D01*
X138260588Y-115176859D01*
X138124843Y-115398376D01*
X138025427Y-115638389D01*
X137964778Y-115891009D01*
X137944396Y-116150000D01*
X136255604Y-116150000D01*
X136235221Y-115891006D01*
X136174573Y-115638390D01*
X136075824Y-115399989D01*
X136075156Y-115398376D01*
X136060380Y-115374264D01*
X135939412Y-115176860D01*
X135770689Y-114979311D01*
X135573140Y-114810588D01*
X135351628Y-114674846D01*
X135351627Y-114674845D01*
X135351623Y-114674843D01*
X135185627Y-114606086D01*
X135111610Y-114575427D01*
X135111611Y-114575427D01*
X134973921Y-114542370D01*
X134858994Y-114514779D01*
X134858992Y-114514778D01*
X134858991Y-114514778D01*
X134600000Y-114494396D01*
X134341009Y-114514778D01*
X134088389Y-114575427D01*
X133848376Y-114674843D01*
X133626859Y-114810588D01*
X133429311Y-114979311D01*
X133260588Y-115176859D01*
X133124843Y-115398376D01*
X133025427Y-115638389D01*
X132964778Y-115891009D01*
X132944396Y-116150000D01*
X131255604Y-116150000D01*
X131235221Y-115891006D01*
X131174573Y-115638390D01*
X131075824Y-115399989D01*
X131075156Y-115398376D01*
X131060380Y-115374264D01*
X130939412Y-115176860D01*
X130770689Y-114979311D01*
X130573140Y-114810588D01*
X130351628Y-114674846D01*
X130351627Y-114674845D01*
X130351623Y-114674843D01*
X130185627Y-114606086D01*
X130111610Y-114575427D01*
X130111611Y-114575427D01*
X129973921Y-114542370D01*
X129858994Y-114514779D01*
X129858992Y-114514778D01*
X129858991Y-114514778D01*
X129600000Y-114494396D01*
X129341009Y-114514778D01*
X129088389Y-114575427D01*
X128848376Y-114674843D01*
X128626859Y-114810588D01*
X128429311Y-114979311D01*
X128260588Y-115176859D01*
X128124843Y-115398376D01*
X128025427Y-115638389D01*
X127964778Y-115891009D01*
X127944396Y-116150000D01*
X126255604Y-116150000D01*
X126235221Y-115891006D01*
X126174573Y-115638390D01*
X126075824Y-115399989D01*
X126075156Y-115398376D01*
X126060380Y-115374264D01*
X125939412Y-115176860D01*
X125770689Y-114979311D01*
X125573140Y-114810588D01*
X125351628Y-114674846D01*
X125351627Y-114674845D01*
X125351623Y-114674843D01*
X125185627Y-114606086D01*
X125111610Y-114575427D01*
X125111611Y-114575427D01*
X124973921Y-114542370D01*
X124858994Y-114514779D01*
X124858992Y-114514778D01*
X124858991Y-114514778D01*
X124600000Y-114494396D01*
X124341009Y-114514778D01*
X124088389Y-114575427D01*
X123848376Y-114674843D01*
X123626859Y-114810588D01*
X123429311Y-114979311D01*
X123260588Y-115176859D01*
X123124843Y-115398376D01*
X123025427Y-115638389D01*
X122964778Y-115891009D01*
X122944396Y-116150000D01*
X121255604Y-116150000D01*
X121235221Y-115891006D01*
X121174573Y-115638390D01*
X121075824Y-115399989D01*
X121075156Y-115398376D01*
X121060380Y-115374264D01*
X120939412Y-115176860D01*
X120770689Y-114979311D01*
X120573140Y-114810588D01*
X120351628Y-114674846D01*
X120351627Y-114674845D01*
X120351623Y-114674843D01*
X120185627Y-114606086D01*
X120111610Y-114575427D01*
X120111611Y-114575427D01*
X119973921Y-114542370D01*
X119858994Y-114514779D01*
X119858992Y-114514778D01*
X119858991Y-114514778D01*
X119600000Y-114494396D01*
X119341009Y-114514778D01*
X119088389Y-114575427D01*
X118848376Y-114674843D01*
X118626859Y-114810588D01*
X118429311Y-114979311D01*
X118260588Y-115176859D01*
X118124843Y-115398376D01*
X118025427Y-115638389D01*
X117964778Y-115891009D01*
X117944396Y-116150000D01*
X116255604Y-116150000D01*
X116235221Y-115891006D01*
X116174573Y-115638390D01*
X116075824Y-115399989D01*
X116075156Y-115398376D01*
X116060380Y-115374264D01*
X115939412Y-115176860D01*
X115770689Y-114979311D01*
X115573140Y-114810588D01*
X115351628Y-114674846D01*
X115351627Y-114674845D01*
X115351623Y-114674843D01*
X115185627Y-114606086D01*
X115111610Y-114575427D01*
X115111611Y-114575427D01*
X114973921Y-114542370D01*
X114858994Y-114514779D01*
X114858992Y-114514778D01*
X114858991Y-114514778D01*
X114600000Y-114494396D01*
X114341009Y-114514778D01*
X114088389Y-114575427D01*
X113848376Y-114674843D01*
X113626859Y-114810588D01*
X113429311Y-114979311D01*
X113260588Y-115176859D01*
X113124843Y-115398376D01*
X113025427Y-115638389D01*
X112964778Y-115891009D01*
X112944396Y-116150000D01*
X111255604Y-116150000D01*
X111235221Y-115891006D01*
X111174573Y-115638390D01*
X111075824Y-115399989D01*
X111075156Y-115398376D01*
X111060380Y-115374264D01*
X110939412Y-115176860D01*
X110770689Y-114979311D01*
X110573140Y-114810588D01*
X110351628Y-114674846D01*
X110351627Y-114674845D01*
X110351623Y-114674843D01*
X110185627Y-114606086D01*
X110111610Y-114575427D01*
X110111611Y-114575427D01*
X109973921Y-114542370D01*
X109858994Y-114514779D01*
X109858992Y-114514778D01*
X109858991Y-114514778D01*
X109600000Y-114494396D01*
X109341009Y-114514778D01*
X109088389Y-114575427D01*
X108848376Y-114674843D01*
X108626859Y-114810588D01*
X108429311Y-114979311D01*
X108260588Y-115176859D01*
X108124843Y-115398376D01*
X108025427Y-115638389D01*
X107964778Y-115891009D01*
X107944396Y-116150000D01*
X106255604Y-116150000D01*
X106235221Y-115891006D01*
X106174573Y-115638390D01*
X106075824Y-115399989D01*
X106075156Y-115398376D01*
X106060380Y-115374264D01*
X105939412Y-115176860D01*
X105770689Y-114979311D01*
X105573140Y-114810588D01*
X105351628Y-114674846D01*
X105351627Y-114674845D01*
X105351623Y-114674843D01*
X105185627Y-114606086D01*
X105111610Y-114575427D01*
X105111611Y-114575427D01*
X104973921Y-114542370D01*
X104858994Y-114514779D01*
X104858992Y-114514778D01*
X104858991Y-114514778D01*
X104600000Y-114494396D01*
X104341009Y-114514778D01*
X104088389Y-114575427D01*
X103848376Y-114674843D01*
X103626859Y-114810588D01*
X103429311Y-114979311D01*
X103260588Y-115176859D01*
X103124843Y-115398376D01*
X103025427Y-115638389D01*
X102964778Y-115891009D01*
X102944396Y-116150000D01*
X101255604Y-116150000D01*
X101235221Y-115891006D01*
X101174573Y-115638390D01*
X101075824Y-115399989D01*
X101075156Y-115398376D01*
X101060380Y-115374264D01*
X100939412Y-115176860D01*
X100770689Y-114979311D01*
X100573140Y-114810588D01*
X100351628Y-114674846D01*
X100351627Y-114674845D01*
X100351623Y-114674843D01*
X100185627Y-114606086D01*
X100111610Y-114575427D01*
X100111611Y-114575427D01*
X99973921Y-114542370D01*
X99858994Y-114514779D01*
X99858992Y-114514778D01*
X99858991Y-114514778D01*
X99600000Y-114494396D01*
X99341009Y-114514778D01*
X99088389Y-114575427D01*
X98848376Y-114674843D01*
X98626859Y-114810588D01*
X98429311Y-114979311D01*
X98260588Y-115176859D01*
X98124843Y-115398376D01*
X98025427Y-115638389D01*
X97964778Y-115891009D01*
X97944396Y-116150000D01*
X96255604Y-116150000D01*
X96235221Y-115891006D01*
X96174573Y-115638390D01*
X96075824Y-115399989D01*
X96075156Y-115398376D01*
X96060380Y-115374264D01*
X95939412Y-115176860D01*
X95770689Y-114979311D01*
X95573140Y-114810588D01*
X95351628Y-114674846D01*
X95351627Y-114674845D01*
X95351623Y-114674843D01*
X95185627Y-114606086D01*
X95111610Y-114575427D01*
X95111611Y-114575427D01*
X94973921Y-114542370D01*
X94858994Y-114514779D01*
X94858992Y-114514778D01*
X94858991Y-114514778D01*
X94600000Y-114494396D01*
X94341009Y-114514778D01*
X94088389Y-114575427D01*
X93848376Y-114674843D01*
X93626859Y-114810588D01*
X93429311Y-114979311D01*
X93260588Y-115176859D01*
X93124843Y-115398376D01*
X93025427Y-115638389D01*
X92964778Y-115891009D01*
X92944396Y-116150000D01*
X91255604Y-116150000D01*
X91235221Y-115891006D01*
X91174573Y-115638390D01*
X91075824Y-115399989D01*
X91075156Y-115398376D01*
X91060380Y-115374264D01*
X90939412Y-115176860D01*
X90770689Y-114979311D01*
X90573140Y-114810588D01*
X90351628Y-114674846D01*
X90351627Y-114674845D01*
X90351623Y-114674843D01*
X90185627Y-114606086D01*
X90111610Y-114575427D01*
X90111611Y-114575427D01*
X89973921Y-114542370D01*
X89858994Y-114514779D01*
X89858992Y-114514778D01*
X89858991Y-114514778D01*
X89600000Y-114494396D01*
X89341009Y-114514778D01*
X89088389Y-114575427D01*
X88848376Y-114674843D01*
X88626859Y-114810588D01*
X88429311Y-114979311D01*
X88260588Y-115176859D01*
X88124843Y-115398376D01*
X88025427Y-115638389D01*
X87964778Y-115891009D01*
X87944396Y-116150000D01*
X86255604Y-116150000D01*
X86235221Y-115891006D01*
X86174573Y-115638390D01*
X86075824Y-115399989D01*
X86075156Y-115398376D01*
X86060380Y-115374264D01*
X85939412Y-115176860D01*
X85770689Y-114979311D01*
X85573140Y-114810588D01*
X85351628Y-114674846D01*
X85351627Y-114674845D01*
X85351623Y-114674843D01*
X85185627Y-114606086D01*
X85111610Y-114575427D01*
X85111611Y-114575427D01*
X84973921Y-114542370D01*
X84858994Y-114514779D01*
X84858992Y-114514778D01*
X84858991Y-114514778D01*
X84600000Y-114494396D01*
X84341009Y-114514778D01*
X84088389Y-114575427D01*
X83848376Y-114674843D01*
X83626859Y-114810588D01*
X83429311Y-114979311D01*
X83260588Y-115176859D01*
X83124843Y-115398376D01*
X83025427Y-115638389D01*
X82964778Y-115891009D01*
X82944396Y-116150000D01*
X81255604Y-116150000D01*
X81235221Y-115891006D01*
X81174573Y-115638390D01*
X81075824Y-115399989D01*
X81075156Y-115398376D01*
X81060380Y-115374264D01*
X80939412Y-115176860D01*
X80770689Y-114979311D01*
X80573140Y-114810588D01*
X80351628Y-114674846D01*
X80351627Y-114674845D01*
X80351623Y-114674843D01*
X80185627Y-114606086D01*
X80111610Y-114575427D01*
X80111611Y-114575427D01*
X79973921Y-114542370D01*
X79858994Y-114514779D01*
X79858992Y-114514778D01*
X79858991Y-114514778D01*
X79600000Y-114494396D01*
X79341009Y-114514778D01*
X79088389Y-114575427D01*
X78848376Y-114674843D01*
X78626859Y-114810588D01*
X78429311Y-114979311D01*
X78260588Y-115176859D01*
X78124843Y-115398376D01*
X78025427Y-115638389D01*
X77964778Y-115891009D01*
X77944396Y-116150000D01*
X58433266Y-116150000D01*
X58428705Y-116121206D01*
X58333742Y-115766801D01*
X58202255Y-115424264D01*
X58197655Y-115415237D01*
X58076346Y-115177155D01*
X58035682Y-115097348D01*
X57959028Y-114979311D01*
X57835852Y-114789635D01*
X57613678Y-114515274D01*
X57604949Y-114504494D01*
X57345506Y-114245051D01*
X57060366Y-114014149D01*
X57060364Y-114014147D01*
X56752656Y-113814320D01*
X56425739Y-113647746D01*
X56083206Y-113516260D01*
X56083199Y-113516258D01*
X55728794Y-113421295D01*
X55728790Y-113421294D01*
X55728789Y-113421294D01*
X55366405Y-113363898D01*
X55000001Y-113344696D01*
X54999999Y-113344696D01*
X54633594Y-113363898D01*
X54271211Y-113421294D01*
X54271209Y-113421294D01*
X53916793Y-113516260D01*
X53574260Y-113647746D01*
X53247343Y-113814320D01*
X52939635Y-114014147D01*
X52654498Y-114245047D01*
X52654490Y-114245054D01*
X52395054Y-114504490D01*
X52395047Y-114504498D01*
X52164147Y-114789635D01*
X51964320Y-115097343D01*
X51797746Y-115424260D01*
X51666260Y-115766793D01*
X51571294Y-116121209D01*
X51571294Y-116121211D01*
X51513898Y-116483594D01*
X51504577Y-116661462D01*
X51494696Y-116850000D01*
X50000500Y-116850000D01*
X50000500Y-102750001D01*
X51094390Y-102750001D01*
X51114804Y-103035433D01*
X51175628Y-103315037D01*
X51275635Y-103583166D01*
X51412770Y-103834309D01*
X51412775Y-103834317D01*
X51584254Y-104063387D01*
X51584270Y-104063405D01*
X51786594Y-104265729D01*
X51786612Y-104265745D01*
X52015682Y-104437224D01*
X52015690Y-104437229D01*
X52266833Y-104574364D01*
X52266832Y-104574364D01*
X52266836Y-104574365D01*
X52266839Y-104574367D01*
X52534954Y-104674369D01*
X52534960Y-104674370D01*
X52534962Y-104674371D01*
X52814566Y-104735195D01*
X52814568Y-104735195D01*
X52814572Y-104735196D01*
X53028552Y-104750500D01*
X123247512Y-104750500D01*
X123247512Y-104750641D01*
X123252488Y-104750641D01*
X123252488Y-104750500D01*
X172593076Y-104750500D01*
X172593079Y-104750500D01*
X172661804Y-104740618D01*
X172666177Y-104740148D01*
X172735428Y-104735196D01*
X172803297Y-104720431D01*
X172807604Y-104719654D01*
X172876322Y-104709775D01*
X172942911Y-104690222D01*
X172947195Y-104689127D01*
X173015046Y-104674369D01*
X173080106Y-104650102D01*
X173084272Y-104648715D01*
X173150888Y-104629156D01*
X173214057Y-104600306D01*
X173218083Y-104598639D01*
X173283161Y-104574367D01*
X173344093Y-104541094D01*
X173348036Y-104539121D01*
X173411187Y-104510282D01*
X173469615Y-104472731D01*
X173473380Y-104470498D01*
X173534315Y-104437226D01*
X173589882Y-104395627D01*
X173593509Y-104393109D01*
X173651917Y-104355574D01*
X173704388Y-104310106D01*
X173707823Y-104307339D01*
X173763395Y-104265739D01*
X173965739Y-104063395D01*
X174015088Y-104014046D01*
X174065739Y-103963395D01*
X174107347Y-103907811D01*
X174110111Y-103904382D01*
X174155573Y-103851918D01*
X174193119Y-103793492D01*
X174195625Y-103789886D01*
X174237226Y-103734315D01*
X174270494Y-103673387D01*
X174272746Y-103669593D01*
X174310282Y-103611187D01*
X174339120Y-103548040D01*
X174341102Y-103544080D01*
X174374367Y-103483161D01*
X174398632Y-103418099D01*
X174400310Y-103414049D01*
X174429156Y-103350889D01*
X174448716Y-103284269D01*
X174450100Y-103280111D01*
X174474369Y-103215046D01*
X174489129Y-103147193D01*
X174490215Y-103142936D01*
X174509775Y-103076323D01*
X174519655Y-103007606D01*
X174520433Y-103003288D01*
X174535196Y-102935428D01*
X174540148Y-102866175D01*
X174540617Y-102861808D01*
X174550500Y-102793079D01*
X174550500Y-102723660D01*
X174550658Y-102719236D01*
X174555610Y-102650001D01*
X174555610Y-102649998D01*
X174550658Y-102580762D01*
X174550500Y-102576338D01*
X174550500Y-102506923D01*
X174550500Y-102506921D01*
X174540618Y-102438197D01*
X174540148Y-102433821D01*
X174535196Y-102364572D01*
X174520438Y-102296733D01*
X174519653Y-102292389D01*
X174509775Y-102223678D01*
X174490219Y-102157078D01*
X174489127Y-102152799D01*
X174474370Y-102084960D01*
X174474369Y-102084954D01*
X174450099Y-102019884D01*
X174448713Y-102015718D01*
X174429156Y-101949112D01*
X174414130Y-101916209D01*
X174400321Y-101885970D01*
X174398627Y-101881881D01*
X174374370Y-101816846D01*
X174374369Y-101816844D01*
X174374368Y-101816843D01*
X174374367Y-101816839D01*
X174341092Y-101755901D01*
X174339119Y-101751959D01*
X174310284Y-101688818D01*
X174310281Y-101688813D01*
X174272751Y-101630416D01*
X174270492Y-101626607D01*
X174254507Y-101597333D01*
X174237226Y-101565685D01*
X174195619Y-101510105D01*
X174193113Y-101506496D01*
X174155573Y-101448083D01*
X174110109Y-101395615D01*
X174107343Y-101392182D01*
X174065739Y-101336605D01*
X174065733Y-101336599D01*
X174065730Y-101336595D01*
X174041192Y-101312058D01*
X174016640Y-101287506D01*
X174013637Y-101284280D01*
X173968183Y-101231822D01*
X173915718Y-101186361D01*
X173912491Y-101183357D01*
X173887940Y-101158806D01*
X173863404Y-101134269D01*
X173863393Y-101134259D01*
X173807818Y-101092656D01*
X173804371Y-101089879D01*
X173789637Y-101077112D01*
X173751917Y-101044427D01*
X173751918Y-101044427D01*
X173751915Y-101044425D01*
X173751911Y-101044423D01*
X173738524Y-101035820D01*
X173693519Y-101006896D01*
X173689894Y-101004378D01*
X173634316Y-100962775D01*
X173634317Y-100962775D01*
X173634315Y-100962774D01*
X173605299Y-100946930D01*
X173573388Y-100929505D01*
X173569581Y-100927246D01*
X173540561Y-100908596D01*
X173511186Y-100889718D01*
X173473784Y-100872637D01*
X173448043Y-100860881D01*
X173444085Y-100858900D01*
X173426870Y-100849500D01*
X173383161Y-100825633D01*
X173383155Y-100825631D01*
X173383152Y-100825629D01*
X173318118Y-100801372D01*
X173314030Y-100799679D01*
X173296452Y-100791652D01*
X173250888Y-100770844D01*
X173224278Y-100763030D01*
X173184292Y-100751289D01*
X173180092Y-100749891D01*
X173115047Y-100725631D01*
X173115050Y-100725631D01*
X173047205Y-100710873D01*
X173042915Y-100709778D01*
X172976331Y-100690227D01*
X172976318Y-100690224D01*
X172907616Y-100680346D01*
X172903272Y-100679562D01*
X172874415Y-100673285D01*
X172835431Y-100664804D01*
X172766184Y-100659850D01*
X172761784Y-100659377D01*
X172693082Y-100649500D01*
X172693079Y-100649500D01*
X172621448Y-100649500D01*
X170578552Y-100649500D01*
X170364566Y-100664804D01*
X170084960Y-100725629D01*
X170084955Y-100725630D01*
X170084954Y-100725631D01*
X170045829Y-100740224D01*
X170041920Y-100741682D01*
X169998587Y-100749500D01*
X162796024Y-100749500D01*
X162761089Y-100744477D01*
X162576320Y-100690224D01*
X162363971Y-100659693D01*
X162293079Y-100649500D01*
X162006921Y-100649500D01*
X161966197Y-100655355D01*
X161723678Y-100690224D01*
X161538910Y-100744477D01*
X161503975Y-100749500D01*
X153146024Y-100749500D01*
X153111089Y-100744477D01*
X152926320Y-100690224D01*
X152713971Y-100659693D01*
X152643079Y-100649500D01*
X152356921Y-100649500D01*
X152316197Y-100655355D01*
X152073678Y-100690224D01*
X151888910Y-100744477D01*
X151853975Y-100749500D01*
X143146024Y-100749500D01*
X143111089Y-100744477D01*
X142926320Y-100690224D01*
X142713971Y-100659693D01*
X142643079Y-100649500D01*
X142356921Y-100649500D01*
X142316197Y-100655355D01*
X142073678Y-100690224D01*
X141888910Y-100744477D01*
X141853975Y-100749500D01*
X133275743Y-100749500D01*
X133240807Y-100744477D01*
X133226324Y-100740224D01*
X133226318Y-100740223D01*
X133086301Y-100720092D01*
X132943079Y-100699500D01*
X132656921Y-100699500D01*
X132630961Y-100703232D01*
X132373682Y-100740222D01*
X132373676Y-100740224D01*
X132359194Y-100744477D01*
X132324258Y-100749500D01*
X124040610Y-100749500D01*
X123989098Y-100738294D01*
X123950885Y-100720842D01*
X123950879Y-100720840D01*
X123676324Y-100640225D01*
X123676320Y-100640224D01*
X123474527Y-100611210D01*
X123393079Y-100599500D01*
X123106921Y-100599500D01*
X123066197Y-100605355D01*
X122823679Y-100640224D01*
X122823675Y-100640225D01*
X122549119Y-100720840D01*
X122549113Y-100720842D01*
X122510901Y-100738294D01*
X122459389Y-100749500D01*
X113846024Y-100749500D01*
X113811089Y-100744477D01*
X113626320Y-100690224D01*
X113413971Y-100659693D01*
X113343079Y-100649500D01*
X113056921Y-100649500D01*
X113016197Y-100655355D01*
X112773678Y-100690224D01*
X112588910Y-100744477D01*
X112553975Y-100749500D01*
X104096024Y-100749500D01*
X104061089Y-100744477D01*
X103876320Y-100690224D01*
X103663971Y-100659693D01*
X103593079Y-100649500D01*
X103306921Y-100649500D01*
X103266197Y-100655355D01*
X103023678Y-100690224D01*
X102838910Y-100744477D01*
X102803975Y-100749500D01*
X94196024Y-100749500D01*
X94161089Y-100744477D01*
X93976320Y-100690224D01*
X93763971Y-100659693D01*
X93693079Y-100649500D01*
X93406921Y-100649500D01*
X93366197Y-100655355D01*
X93123678Y-100690224D01*
X92938910Y-100744477D01*
X92903975Y-100749500D01*
X84646024Y-100749500D01*
X84611089Y-100744477D01*
X84426320Y-100690224D01*
X84213971Y-100659693D01*
X84143079Y-100649500D01*
X83856921Y-100649500D01*
X83816197Y-100655355D01*
X83573678Y-100690224D01*
X83388910Y-100744477D01*
X83353975Y-100749500D01*
X74525743Y-100749500D01*
X74490807Y-100744477D01*
X74476324Y-100740224D01*
X74476318Y-100740223D01*
X74336301Y-100720092D01*
X74193079Y-100699500D01*
X73906921Y-100699500D01*
X73880961Y-100703232D01*
X73623682Y-100740222D01*
X73623676Y-100740224D01*
X73609194Y-100744477D01*
X73574258Y-100749500D01*
X53028552Y-100749500D01*
X52814566Y-100764804D01*
X52534952Y-100825631D01*
X52422617Y-100867529D01*
X52353503Y-100872637D01*
X52244650Y-100849500D01*
X52244646Y-100849500D01*
X52055354Y-100849500D01*
X52022897Y-100856398D01*
X51870197Y-100888855D01*
X51870192Y-100888857D01*
X51697270Y-100965848D01*
X51697265Y-100965851D01*
X51544129Y-101077111D01*
X51417466Y-101217785D01*
X51322821Y-101381715D01*
X51322818Y-101381722D01*
X51264327Y-101561740D01*
X51264326Y-101561744D01*
X51244540Y-101750000D01*
X51262009Y-101916209D01*
X51254870Y-101972503D01*
X51175629Y-102184958D01*
X51114804Y-102464566D01*
X51094390Y-102749998D01*
X51094390Y-102750001D01*
X50000500Y-102750001D01*
X50000500Y-75240004D01*
X53744732Y-75240004D01*
X53763777Y-75494154D01*
X53794463Y-75628599D01*
X53820492Y-75742637D01*
X53913607Y-75979888D01*
X54041041Y-76200612D01*
X54199950Y-76399877D01*
X54386783Y-76573232D01*
X54597366Y-76716805D01*
X54597371Y-76716807D01*
X54597372Y-76716808D01*
X54597373Y-76716809D01*
X54719328Y-76775538D01*
X54826992Y-76827387D01*
X54826993Y-76827387D01*
X54826996Y-76827389D01*
X55070542Y-76902513D01*
X55322565Y-76940500D01*
X55577435Y-76940500D01*
X55829458Y-76902513D01*
X56073004Y-76827389D01*
X56263994Y-76735413D01*
X56302626Y-76716809D01*
X56302626Y-76716808D01*
X56302634Y-76716805D01*
X56513217Y-76573232D01*
X56700050Y-76399877D01*
X56821272Y-76247870D01*
X66549500Y-76247870D01*
X66549501Y-76247876D01*
X66555908Y-76307483D01*
X66606202Y-76442328D01*
X66606206Y-76442335D01*
X66692452Y-76557544D01*
X66692455Y-76557547D01*
X66807664Y-76643793D01*
X66807671Y-76643797D01*
X66942517Y-76694091D01*
X66942516Y-76694091D01*
X66949444Y-76694835D01*
X67002127Y-76700500D01*
X69097872Y-76700499D01*
X69157483Y-76694091D01*
X69292331Y-76643796D01*
X69407546Y-76557546D01*
X69493796Y-76442331D01*
X69544091Y-76307483D01*
X69550500Y-76247873D01*
X69550499Y-74152128D01*
X69550270Y-74150000D01*
X143694540Y-74150000D01*
X143714326Y-74338256D01*
X143714327Y-74338259D01*
X143772818Y-74518277D01*
X143772821Y-74518284D01*
X143867467Y-74682216D01*
X143973971Y-74800500D01*
X143994129Y-74822888D01*
X144147265Y-74934148D01*
X144147270Y-74934151D01*
X144320192Y-75011142D01*
X144320197Y-75011144D01*
X144505354Y-75050500D01*
X144505355Y-75050500D01*
X144694644Y-75050500D01*
X144694646Y-75050500D01*
X144879803Y-75011144D01*
X145052730Y-74934151D01*
X145204090Y-74824182D01*
X145269896Y-74800702D01*
X145276975Y-74800500D01*
X154223025Y-74800500D01*
X154290064Y-74820185D01*
X154295910Y-74824182D01*
X154447265Y-74934148D01*
X154447270Y-74934151D01*
X154620192Y-75011142D01*
X154620197Y-75011144D01*
X154805354Y-75050500D01*
X154805355Y-75050500D01*
X154994644Y-75050500D01*
X154994646Y-75050500D01*
X155179803Y-75011144D01*
X155352730Y-74934151D01*
X155505871Y-74822888D01*
X155632533Y-74682216D01*
X155727179Y-74518284D01*
X155785674Y-74338256D01*
X155805460Y-74150000D01*
X155785674Y-73961744D01*
X155727179Y-73781716D01*
X155632533Y-73617784D01*
X155505871Y-73477112D01*
X155504090Y-73475818D01*
X155352734Y-73365851D01*
X155352729Y-73365848D01*
X155179807Y-73288857D01*
X155179802Y-73288855D01*
X155034001Y-73257865D01*
X154994646Y-73249500D01*
X154805354Y-73249500D01*
X154772897Y-73256398D01*
X154620197Y-73288855D01*
X154620192Y-73288857D01*
X154447270Y-73365848D01*
X154447265Y-73365851D01*
X154295910Y-73475818D01*
X154230104Y-73499298D01*
X154223025Y-73499500D01*
X145276975Y-73499500D01*
X145209936Y-73479815D01*
X145204090Y-73475818D01*
X145052734Y-73365851D01*
X145052729Y-73365848D01*
X144879807Y-73288857D01*
X144879802Y-73288855D01*
X144734001Y-73257865D01*
X144694646Y-73249500D01*
X144505354Y-73249500D01*
X144472897Y-73256398D01*
X144320197Y-73288855D01*
X144320192Y-73288857D01*
X144147270Y-73365848D01*
X144147265Y-73365851D01*
X143994129Y-73477111D01*
X143867466Y-73617785D01*
X143772821Y-73781715D01*
X143772818Y-73781722D01*
X143714327Y-73961740D01*
X143714326Y-73961744D01*
X143694540Y-74150000D01*
X69550270Y-74150000D01*
X69544091Y-74092517D01*
X69539468Y-74080123D01*
X69493797Y-73957671D01*
X69493793Y-73957664D01*
X69407547Y-73842455D01*
X69407544Y-73842452D01*
X69292335Y-73756206D01*
X69292328Y-73756202D01*
X69157482Y-73705908D01*
X69157483Y-73705908D01*
X69097883Y-73699501D01*
X69097881Y-73699500D01*
X69097873Y-73699500D01*
X69097864Y-73699500D01*
X67002129Y-73699500D01*
X67002123Y-73699501D01*
X66942516Y-73705908D01*
X66807671Y-73756202D01*
X66807664Y-73756206D01*
X66692455Y-73842452D01*
X66692452Y-73842455D01*
X66606206Y-73957664D01*
X66606202Y-73957671D01*
X66555908Y-74092517D01*
X66549501Y-74152116D01*
X66549501Y-74152123D01*
X66549500Y-74152135D01*
X66549500Y-76247870D01*
X56821272Y-76247870D01*
X56858959Y-76200612D01*
X56986393Y-75979888D01*
X57079508Y-75742637D01*
X57136222Y-75494157D01*
X57149659Y-75314855D01*
X57155268Y-75240004D01*
X57155268Y-75239995D01*
X57136222Y-74985845D01*
X57124423Y-74934151D01*
X57079508Y-74737363D01*
X56986393Y-74500112D01*
X56858959Y-74279388D01*
X56700050Y-74080123D01*
X56513217Y-73906768D01*
X56302634Y-73763195D01*
X56302630Y-73763193D01*
X56302627Y-73763191D01*
X56302626Y-73763190D01*
X56073006Y-73652612D01*
X56073008Y-73652612D01*
X55829466Y-73577489D01*
X55829462Y-73577488D01*
X55829458Y-73577487D01*
X55708231Y-73559214D01*
X55577440Y-73539500D01*
X55577435Y-73539500D01*
X55322565Y-73539500D01*
X55322559Y-73539500D01*
X55165609Y-73563157D01*
X55070542Y-73577487D01*
X55070539Y-73577488D01*
X55070533Y-73577489D01*
X54826992Y-73652612D01*
X54597373Y-73763190D01*
X54597372Y-73763191D01*
X54386782Y-73906768D01*
X54199952Y-74080121D01*
X54199950Y-74080123D01*
X54041041Y-74279388D01*
X53913608Y-74500109D01*
X53820492Y-74737362D01*
X53820490Y-74737369D01*
X53763777Y-74985845D01*
X53744732Y-75239995D01*
X53744732Y-75240004D01*
X50000500Y-75240004D01*
X50000500Y-70160004D01*
X53745233Y-70160004D01*
X53764273Y-70414079D01*
X53820968Y-70662477D01*
X53820973Y-70662494D01*
X53914058Y-70899671D01*
X53914057Y-70899671D01*
X54041457Y-71120332D01*
X54083452Y-71172993D01*
X54083453Y-71172993D01*
X54733339Y-70523107D01*
X54820578Y-70661947D01*
X54948053Y-70789422D01*
X55086891Y-70876660D01*
X54436813Y-71526737D01*
X54597623Y-71636375D01*
X54597624Y-71636376D01*
X54827176Y-71746921D01*
X54827174Y-71746921D01*
X55070652Y-71822024D01*
X55070658Y-71822026D01*
X55322595Y-71859999D01*
X55322604Y-71860000D01*
X55577396Y-71860000D01*
X55577404Y-71859999D01*
X55829341Y-71822026D01*
X55829347Y-71822024D01*
X56072824Y-71746921D01*
X56302381Y-71636373D01*
X56463185Y-71526737D01*
X55813108Y-70876660D01*
X55951947Y-70789422D01*
X56079422Y-70661947D01*
X56166660Y-70523108D01*
X56816545Y-71172993D01*
X56858545Y-71120327D01*
X56985941Y-70899671D01*
X57079026Y-70662494D01*
X57079031Y-70662477D01*
X57135726Y-70414079D01*
X57151769Y-70200005D01*
X66544859Y-70200005D01*
X66565385Y-70447729D01*
X66565387Y-70447738D01*
X66626412Y-70688717D01*
X66726266Y-70916364D01*
X66826564Y-71069882D01*
X67566923Y-70329523D01*
X67590507Y-70409844D01*
X67668239Y-70530798D01*
X67776900Y-70624952D01*
X67907685Y-70684680D01*
X67917466Y-70686086D01*
X67179942Y-71423609D01*
X67226768Y-71460055D01*
X67226770Y-71460056D01*
X67445385Y-71578364D01*
X67445396Y-71578369D01*
X67680506Y-71659083D01*
X67925707Y-71700000D01*
X68174293Y-71700000D01*
X68419493Y-71659083D01*
X68654603Y-71578369D01*
X68654614Y-71578364D01*
X68873228Y-71460057D01*
X68873231Y-71460055D01*
X68920056Y-71423609D01*
X68911470Y-71415023D01*
X139629517Y-71415023D01*
X139649303Y-71603279D01*
X139649304Y-71603282D01*
X139707795Y-71783300D01*
X139707798Y-71783307D01*
X139802444Y-71947239D01*
X139908948Y-72065523D01*
X139929106Y-72087911D01*
X140082242Y-72199171D01*
X140082247Y-72199174D01*
X140255169Y-72276165D01*
X140255174Y-72276167D01*
X140440331Y-72315523D01*
X140440332Y-72315523D01*
X140629621Y-72315523D01*
X140629623Y-72315523D01*
X140814780Y-72276167D01*
X140987707Y-72199174D01*
X141139067Y-72089205D01*
X141204873Y-72065725D01*
X141211952Y-72065523D01*
X156498002Y-72065523D01*
X156565041Y-72085208D01*
X156570887Y-72089205D01*
X156722242Y-72199171D01*
X156722247Y-72199174D01*
X156895169Y-72276165D01*
X156895174Y-72276167D01*
X157080331Y-72315523D01*
X157080332Y-72315523D01*
X157269621Y-72315523D01*
X157269623Y-72315523D01*
X157454780Y-72276167D01*
X157627707Y-72199174D01*
X157780848Y-72087911D01*
X157907510Y-71947239D01*
X158002156Y-71783307D01*
X158060651Y-71603279D01*
X158080437Y-71415023D01*
X158060651Y-71226767D01*
X158002156Y-71046739D01*
X157907510Y-70882807D01*
X157780848Y-70742135D01*
X157779067Y-70740841D01*
X157627711Y-70630874D01*
X157627706Y-70630871D01*
X157454784Y-70553880D01*
X157454779Y-70553878D01*
X157308978Y-70522888D01*
X157269623Y-70514523D01*
X157080331Y-70514523D01*
X157047874Y-70521421D01*
X156895174Y-70553878D01*
X156895169Y-70553880D01*
X156722247Y-70630871D01*
X156722242Y-70630874D01*
X156570887Y-70740841D01*
X156505081Y-70764321D01*
X156498002Y-70764523D01*
X141211952Y-70764523D01*
X141144913Y-70744838D01*
X141139067Y-70740841D01*
X140987711Y-70630874D01*
X140987706Y-70630871D01*
X140814784Y-70553880D01*
X140814779Y-70553878D01*
X140668978Y-70522888D01*
X140629623Y-70514523D01*
X140440331Y-70514523D01*
X140407874Y-70521421D01*
X140255174Y-70553878D01*
X140255169Y-70553880D01*
X140082247Y-70630871D01*
X140082242Y-70630874D01*
X139929106Y-70742134D01*
X139802443Y-70882808D01*
X139707798Y-71046738D01*
X139707795Y-71046745D01*
X139663005Y-71184596D01*
X139649303Y-71226767D01*
X139629517Y-71415023D01*
X68911470Y-71415023D01*
X68182533Y-70686086D01*
X68192315Y-70684680D01*
X68323100Y-70624952D01*
X68431761Y-70530798D01*
X68509493Y-70409844D01*
X68533076Y-70329524D01*
X69273434Y-71069882D01*
X69373731Y-70916369D01*
X69473587Y-70688717D01*
X69534612Y-70447738D01*
X69534614Y-70447729D01*
X69555141Y-70200005D01*
X69555141Y-70199994D01*
X69534614Y-69952270D01*
X69534612Y-69952261D01*
X69473587Y-69711282D01*
X69373731Y-69483630D01*
X69273434Y-69330116D01*
X68533076Y-70070475D01*
X68509493Y-69990156D01*
X68431761Y-69869202D01*
X68323100Y-69775048D01*
X68192315Y-69715320D01*
X68182534Y-69713913D01*
X68920057Y-68976390D01*
X68920056Y-68976389D01*
X68873229Y-68939943D01*
X68654614Y-68821635D01*
X68654603Y-68821630D01*
X68419493Y-68740916D01*
X68174293Y-68700000D01*
X67925707Y-68700000D01*
X67680506Y-68740916D01*
X67445396Y-68821630D01*
X67445390Y-68821632D01*
X67226761Y-68939949D01*
X67179942Y-68976388D01*
X67179942Y-68976390D01*
X67917466Y-69713913D01*
X67907685Y-69715320D01*
X67776900Y-69775048D01*
X67668239Y-69869202D01*
X67590507Y-69990156D01*
X67566923Y-70070475D01*
X66826564Y-69330116D01*
X66726267Y-69483632D01*
X66626412Y-69711282D01*
X66565387Y-69952261D01*
X66565385Y-69952270D01*
X66544859Y-70199994D01*
X66544859Y-70200005D01*
X57151769Y-70200005D01*
X57154767Y-70160004D01*
X57154767Y-70159995D01*
X57135726Y-69905920D01*
X57079031Y-69657522D01*
X57079026Y-69657505D01*
X56985941Y-69420328D01*
X56985942Y-69420328D01*
X56858544Y-69199671D01*
X56816546Y-69147006D01*
X56166660Y-69796891D01*
X56079422Y-69658053D01*
X55951947Y-69530578D01*
X55813107Y-69443339D01*
X56463185Y-68793261D01*
X56302377Y-68683624D01*
X56302376Y-68683623D01*
X56072823Y-68573078D01*
X56072825Y-68573078D01*
X55829347Y-68497975D01*
X55829341Y-68497973D01*
X55577404Y-68460000D01*
X55322595Y-68460000D01*
X55070658Y-68497973D01*
X55070652Y-68497975D01*
X54827175Y-68573078D01*
X54597624Y-68683623D01*
X54597616Y-68683628D01*
X54436813Y-68793261D01*
X55086891Y-69443339D01*
X54948053Y-69530578D01*
X54820578Y-69658053D01*
X54733339Y-69796892D01*
X54083453Y-69147006D01*
X54041455Y-69199670D01*
X53914058Y-69420328D01*
X53820973Y-69657505D01*
X53820968Y-69657522D01*
X53764273Y-69905920D01*
X53745233Y-70159995D01*
X53745233Y-70160004D01*
X50000500Y-70160004D01*
X50000500Y-67201660D01*
X132394391Y-67201660D01*
X132408197Y-67210335D01*
X132408201Y-67210337D01*
X132578358Y-67269877D01*
X132578361Y-67269878D01*
X132757497Y-67290062D01*
X132757503Y-67290062D01*
X132936638Y-67269878D01*
X133106807Y-67210333D01*
X133120607Y-67201661D01*
X133120607Y-67201660D01*
X133919391Y-67201660D01*
X133933197Y-67210335D01*
X133933201Y-67210337D01*
X134103358Y-67269877D01*
X134103361Y-67269878D01*
X134282497Y-67290062D01*
X134282503Y-67290062D01*
X134461638Y-67269878D01*
X134631807Y-67210333D01*
X134645607Y-67201661D01*
X134645607Y-67201660D01*
X134282501Y-66838553D01*
X134282500Y-66838553D01*
X133919391Y-67201660D01*
X133120607Y-67201660D01*
X132757501Y-66838553D01*
X132757500Y-66838553D01*
X132394391Y-67201660D01*
X50000500Y-67201660D01*
X50000500Y-66439160D01*
X131631891Y-66439160D01*
X131645697Y-66447835D01*
X131645701Y-66447837D01*
X131815859Y-66507377D01*
X131858482Y-66512180D01*
X131922896Y-66539246D01*
X131962451Y-66596840D01*
X131967819Y-66621515D01*
X131972621Y-66664138D01*
X131972622Y-66664141D01*
X132032162Y-66834298D01*
X132032167Y-66834308D01*
X132040838Y-66848108D01*
X132371455Y-66517492D01*
X132657500Y-66517492D01*
X132695697Y-66570065D01*
X132741662Y-66585000D01*
X132773338Y-66585000D01*
X132819303Y-66570065D01*
X132857500Y-66517492D01*
X132857500Y-66485000D01*
X133111053Y-66485000D01*
X133474160Y-66848107D01*
X133506121Y-66844507D01*
X133533887Y-66844508D01*
X133565838Y-66848108D01*
X133896455Y-66517492D01*
X134182500Y-66517492D01*
X134220697Y-66570065D01*
X134266662Y-66585000D01*
X134298338Y-66585000D01*
X134344303Y-66570065D01*
X134382500Y-66517492D01*
X134382500Y-66485000D01*
X134636053Y-66485000D01*
X134999160Y-66848107D01*
X134999161Y-66848107D01*
X135007833Y-66834307D01*
X135067378Y-66664138D01*
X135072180Y-66621518D01*
X135099246Y-66557103D01*
X135156840Y-66517548D01*
X135181518Y-66512180D01*
X135224138Y-66507378D01*
X135394307Y-66447833D01*
X135408107Y-66439161D01*
X135408107Y-66439160D01*
X135045000Y-66076053D01*
X134636053Y-66485000D01*
X134382500Y-66485000D01*
X134382500Y-66452508D01*
X134344303Y-66399935D01*
X134298338Y-66385000D01*
X134266662Y-66385000D01*
X134220697Y-66399935D01*
X134182500Y-66452508D01*
X134182500Y-66517492D01*
X133896455Y-66517492D01*
X133928947Y-66485000D01*
X133520000Y-66076053D01*
X133111053Y-66485000D01*
X132857500Y-66485000D01*
X132857500Y-66452508D01*
X132819303Y-66399935D01*
X132773338Y-66385000D01*
X132741662Y-66385000D01*
X132695697Y-66399935D01*
X132657500Y-66452508D01*
X132657500Y-66517492D01*
X132371455Y-66517492D01*
X132403947Y-66485000D01*
X132403947Y-66484999D01*
X131995001Y-66076053D01*
X131995000Y-66076053D01*
X131631891Y-66439160D01*
X50000500Y-66439160D01*
X50000500Y-65722502D01*
X131189938Y-65722502D01*
X131210121Y-65901638D01*
X131210122Y-65901641D01*
X131269662Y-66071798D01*
X131269667Y-66071808D01*
X131278338Y-66085608D01*
X131608955Y-65754992D01*
X131895000Y-65754992D01*
X131933197Y-65807565D01*
X131979162Y-65822500D01*
X132010838Y-65822500D01*
X132056803Y-65807565D01*
X132095000Y-65754992D01*
X132095000Y-65722500D01*
X132348553Y-65722500D01*
X132757500Y-66131447D01*
X133133955Y-65754992D01*
X133420000Y-65754992D01*
X133458197Y-65807565D01*
X133504162Y-65822500D01*
X133535838Y-65822500D01*
X133581803Y-65807565D01*
X133620000Y-65754992D01*
X133620000Y-65722500D01*
X133873553Y-65722500D01*
X134282500Y-66131447D01*
X134658955Y-65754992D01*
X134945000Y-65754992D01*
X134983197Y-65807565D01*
X135029162Y-65822500D01*
X135060838Y-65822500D01*
X135106803Y-65807565D01*
X135145000Y-65754992D01*
X135145000Y-65722500D01*
X135398553Y-65722500D01*
X135761660Y-66085607D01*
X135761661Y-66085607D01*
X135770333Y-66071807D01*
X135829878Y-65901638D01*
X135850062Y-65722502D01*
X135850062Y-65722497D01*
X135829878Y-65543361D01*
X135829877Y-65543358D01*
X135770337Y-65373201D01*
X135770335Y-65373197D01*
X135761660Y-65359391D01*
X135398553Y-65722499D01*
X135398553Y-65722500D01*
X135145000Y-65722500D01*
X135145000Y-65690008D01*
X135106803Y-65637435D01*
X135060838Y-65622500D01*
X135029162Y-65622500D01*
X134983197Y-65637435D01*
X134945000Y-65690008D01*
X134945000Y-65754992D01*
X134658955Y-65754992D01*
X134691447Y-65722500D01*
X134282500Y-65313553D01*
X133873553Y-65722500D01*
X133620000Y-65722500D01*
X133620000Y-65690008D01*
X133581803Y-65637435D01*
X133535838Y-65622500D01*
X133504162Y-65622500D01*
X133458197Y-65637435D01*
X133420000Y-65690008D01*
X133420000Y-65754992D01*
X133133955Y-65754992D01*
X133166447Y-65722500D01*
X132757500Y-65313553D01*
X132348553Y-65722500D01*
X132095000Y-65722500D01*
X132095000Y-65690008D01*
X132056803Y-65637435D01*
X132010838Y-65622500D01*
X131979162Y-65622500D01*
X131933197Y-65637435D01*
X131895000Y-65690008D01*
X131895000Y-65754992D01*
X131608955Y-65754992D01*
X131641447Y-65722500D01*
X131641447Y-65722499D01*
X131278338Y-65359390D01*
X131278338Y-65359391D01*
X131269664Y-65373196D01*
X131210122Y-65543358D01*
X131210121Y-65543361D01*
X131189938Y-65722497D01*
X131189938Y-65722502D01*
X50000500Y-65722502D01*
X50000500Y-65005838D01*
X131631890Y-65005838D01*
X131994999Y-65368947D01*
X132371455Y-64992492D01*
X132657500Y-64992492D01*
X132695697Y-65045065D01*
X132741662Y-65060000D01*
X132773338Y-65060000D01*
X132819303Y-65045065D01*
X132857500Y-64992492D01*
X132857500Y-64960000D01*
X133111053Y-64960000D01*
X133520000Y-65368947D01*
X133896455Y-64992492D01*
X134182500Y-64992492D01*
X134220697Y-65045065D01*
X134266662Y-65060000D01*
X134298338Y-65060000D01*
X134344303Y-65045065D01*
X134382500Y-64992492D01*
X134382500Y-64960000D01*
X134636053Y-64960000D01*
X135045000Y-65368947D01*
X135045001Y-65368947D01*
X135408108Y-65005838D01*
X135404508Y-64973884D01*
X135404507Y-64946119D01*
X135408107Y-64914160D01*
X135045000Y-64551053D01*
X134636053Y-64960000D01*
X134382500Y-64960000D01*
X134382500Y-64927508D01*
X134344303Y-64874935D01*
X134298338Y-64860000D01*
X134266662Y-64860000D01*
X134220697Y-64874935D01*
X134182500Y-64927508D01*
X134182500Y-64992492D01*
X133896455Y-64992492D01*
X133928947Y-64960000D01*
X133520000Y-64551053D01*
X133111053Y-64960000D01*
X132857500Y-64960000D01*
X132857500Y-64927508D01*
X132819303Y-64874935D01*
X132773338Y-64860000D01*
X132741662Y-64860000D01*
X132695697Y-64874935D01*
X132657500Y-64927508D01*
X132657500Y-64992492D01*
X132371455Y-64992492D01*
X132403947Y-64960000D01*
X132403947Y-64959999D01*
X131995001Y-64551053D01*
X131995000Y-64551053D01*
X131631890Y-64914161D01*
X131635491Y-64946123D01*
X131635491Y-64973892D01*
X131631890Y-65005838D01*
X50000500Y-65005838D01*
X50000500Y-64197502D01*
X131189938Y-64197502D01*
X131210121Y-64376638D01*
X131210122Y-64376641D01*
X131269662Y-64546798D01*
X131269667Y-64546808D01*
X131278338Y-64560608D01*
X131608955Y-64229992D01*
X131895000Y-64229992D01*
X131933197Y-64282565D01*
X131979162Y-64297500D01*
X132010838Y-64297500D01*
X132056803Y-64282565D01*
X132095000Y-64229992D01*
X132095000Y-64197500D01*
X132348553Y-64197500D01*
X132757500Y-64606447D01*
X133133955Y-64229992D01*
X133420000Y-64229992D01*
X133458197Y-64282565D01*
X133504162Y-64297500D01*
X133535838Y-64297500D01*
X133581803Y-64282565D01*
X133620000Y-64229992D01*
X133620000Y-64197500D01*
X133873553Y-64197500D01*
X134282500Y-64606447D01*
X134658955Y-64229992D01*
X134945000Y-64229992D01*
X134983197Y-64282565D01*
X135029162Y-64297500D01*
X135060838Y-64297500D01*
X135106803Y-64282565D01*
X135145000Y-64229992D01*
X135145000Y-64197500D01*
X135398553Y-64197500D01*
X135761660Y-64560607D01*
X135761661Y-64560607D01*
X135770333Y-64546807D01*
X135829878Y-64376638D01*
X135850062Y-64197502D01*
X135850062Y-64197497D01*
X135829878Y-64018361D01*
X135829877Y-64018358D01*
X135770337Y-63848201D01*
X135770335Y-63848197D01*
X135761660Y-63834391D01*
X135398553Y-64197499D01*
X135398553Y-64197500D01*
X135145000Y-64197500D01*
X135145000Y-64165008D01*
X135106803Y-64112435D01*
X135060838Y-64097500D01*
X135029162Y-64097500D01*
X134983197Y-64112435D01*
X134945000Y-64165008D01*
X134945000Y-64229992D01*
X134658955Y-64229992D01*
X134691447Y-64197500D01*
X134282500Y-63788553D01*
X133873553Y-64197500D01*
X133620000Y-64197500D01*
X133620000Y-64165008D01*
X133581803Y-64112435D01*
X133535838Y-64097500D01*
X133504162Y-64097500D01*
X133458197Y-64112435D01*
X133420000Y-64165008D01*
X133420000Y-64229992D01*
X133133955Y-64229992D01*
X133166447Y-64197500D01*
X132757500Y-63788553D01*
X132348553Y-64197500D01*
X132095000Y-64197500D01*
X132095000Y-64165008D01*
X132056803Y-64112435D01*
X132010838Y-64097500D01*
X131979162Y-64097500D01*
X131933197Y-64112435D01*
X131895000Y-64165008D01*
X131895000Y-64229992D01*
X131608955Y-64229992D01*
X131641447Y-64197500D01*
X131641447Y-64197499D01*
X131278338Y-63834390D01*
X131278338Y-63834391D01*
X131269664Y-63848196D01*
X131210122Y-64018358D01*
X131210121Y-64018361D01*
X131189938Y-64197497D01*
X131189938Y-64197502D01*
X50000500Y-64197502D01*
X50000500Y-63480838D01*
X131631890Y-63480838D01*
X131994999Y-63843947D01*
X132371455Y-63467492D01*
X132657500Y-63467492D01*
X132695697Y-63520065D01*
X132741662Y-63535000D01*
X132773338Y-63535000D01*
X132819303Y-63520065D01*
X132857500Y-63467492D01*
X132857500Y-63435000D01*
X133111053Y-63435000D01*
X133520000Y-63843947D01*
X133896455Y-63467492D01*
X134182500Y-63467492D01*
X134220697Y-63520065D01*
X134266662Y-63535000D01*
X134298338Y-63535000D01*
X134344303Y-63520065D01*
X134382500Y-63467492D01*
X134382500Y-63435000D01*
X134636053Y-63435000D01*
X135045000Y-63843947D01*
X135045001Y-63843947D01*
X135408108Y-63480838D01*
X135408108Y-63480837D01*
X135394308Y-63472167D01*
X135394298Y-63472162D01*
X135224141Y-63412622D01*
X135224138Y-63412621D01*
X135181515Y-63407819D01*
X135117102Y-63380752D01*
X135077547Y-63323157D01*
X135072180Y-63298482D01*
X135067377Y-63255859D01*
X135007837Y-63085701D01*
X135007835Y-63085697D01*
X134999160Y-63071891D01*
X134636053Y-63434999D01*
X134636053Y-63435000D01*
X134382500Y-63435000D01*
X134382500Y-63402508D01*
X134344303Y-63349935D01*
X134298338Y-63335000D01*
X134266662Y-63335000D01*
X134220697Y-63349935D01*
X134182500Y-63402508D01*
X134182500Y-63467492D01*
X133896455Y-63467492D01*
X133928947Y-63435000D01*
X133928947Y-63434999D01*
X133565838Y-63071890D01*
X133533892Y-63075491D01*
X133506123Y-63075491D01*
X133474161Y-63071890D01*
X133111053Y-63434999D01*
X133111053Y-63435000D01*
X132857500Y-63435000D01*
X132857500Y-63402508D01*
X132819303Y-63349935D01*
X132773338Y-63335000D01*
X132741662Y-63335000D01*
X132695697Y-63349935D01*
X132657500Y-63402508D01*
X132657500Y-63467492D01*
X132371455Y-63467492D01*
X132403947Y-63435000D01*
X132403947Y-63434999D01*
X132040838Y-63071890D01*
X132040838Y-63071891D01*
X132032165Y-63085695D01*
X131972622Y-63255859D01*
X131967819Y-63298484D01*
X131940752Y-63362898D01*
X131883156Y-63402452D01*
X131858484Y-63407819D01*
X131815859Y-63412622D01*
X131645695Y-63472165D01*
X131631891Y-63480838D01*
X131631890Y-63480838D01*
X50000500Y-63480838D01*
X50000500Y-62718338D01*
X132394390Y-62718338D01*
X132757500Y-63081447D01*
X132757501Y-63081447D01*
X133120608Y-62718338D01*
X133919390Y-62718338D01*
X134282500Y-63081447D01*
X134282501Y-63081447D01*
X134645608Y-62718338D01*
X134645608Y-62718337D01*
X134631808Y-62709667D01*
X134631798Y-62709662D01*
X134604185Y-62700000D01*
X146994540Y-62700000D01*
X147014326Y-62888256D01*
X147014327Y-62888259D01*
X147072818Y-63068277D01*
X147072821Y-63068284D01*
X147167467Y-63232216D01*
X147273462Y-63349935D01*
X147294129Y-63372888D01*
X147447265Y-63484148D01*
X147447270Y-63484151D01*
X147620192Y-63561142D01*
X147620197Y-63561144D01*
X147805354Y-63600500D01*
X147829192Y-63600500D01*
X147896231Y-63620185D01*
X147916873Y-63636819D01*
X150313181Y-66033127D01*
X150346666Y-66094450D01*
X150349500Y-66120808D01*
X150349500Y-68064494D01*
X150347732Y-68080505D01*
X150347974Y-68080528D01*
X150347240Y-68088294D01*
X150349500Y-68160203D01*
X150349500Y-68190920D01*
X150349501Y-68190940D01*
X150350418Y-68198206D01*
X150350876Y-68204024D01*
X150352402Y-68252567D01*
X150352403Y-68252570D01*
X150358323Y-68272948D01*
X150362268Y-68291996D01*
X150364928Y-68313054D01*
X150364931Y-68313064D01*
X150382813Y-68358230D01*
X150384705Y-68363758D01*
X150398254Y-68410395D01*
X150398255Y-68410397D01*
X150409060Y-68428666D01*
X150417617Y-68446134D01*
X150423108Y-68460000D01*
X150425432Y-68465872D01*
X150453983Y-68505170D01*
X150457188Y-68510049D01*
X150481919Y-68551865D01*
X150481923Y-68551869D01*
X150496925Y-68566871D01*
X150509563Y-68581669D01*
X150522033Y-68598833D01*
X150522036Y-68598836D01*
X150522037Y-68598837D01*
X150559476Y-68629809D01*
X150563776Y-68633722D01*
X151045457Y-69115403D01*
X151515191Y-69585137D01*
X151548676Y-69646460D01*
X151550830Y-69659851D01*
X151564326Y-69788256D01*
X151564327Y-69788259D01*
X151622818Y-69968277D01*
X151622821Y-69968284D01*
X151717467Y-70132216D01*
X151824939Y-70251575D01*
X151844129Y-70272888D01*
X151997265Y-70384148D01*
X151997270Y-70384151D01*
X152170192Y-70461142D01*
X152170197Y-70461144D01*
X152355354Y-70500500D01*
X152355355Y-70500500D01*
X152544644Y-70500500D01*
X152544646Y-70500500D01*
X152729803Y-70461144D01*
X152902730Y-70384151D01*
X153055871Y-70272888D01*
X153182533Y-70132216D01*
X153277179Y-69968284D01*
X153335674Y-69788256D01*
X153349326Y-69658353D01*
X153375910Y-69593741D01*
X153433208Y-69553756D01*
X153446835Y-69550034D01*
X153629803Y-69511144D01*
X153629807Y-69511142D01*
X153629808Y-69511142D01*
X153691600Y-69483630D01*
X153802730Y-69434151D01*
X153955871Y-69322888D01*
X154082533Y-69182216D01*
X154177179Y-69018284D01*
X154235674Y-68838256D01*
X154255460Y-68650000D01*
X154235674Y-68461744D01*
X154177179Y-68281716D01*
X154082533Y-68117784D01*
X153955871Y-67977112D01*
X153916954Y-67948837D01*
X153802734Y-67865851D01*
X153802729Y-67865848D01*
X153629807Y-67788857D01*
X153629802Y-67788855D01*
X153484001Y-67757865D01*
X153444646Y-67749500D01*
X153444645Y-67749500D01*
X153420808Y-67749500D01*
X153353769Y-67729815D01*
X153333127Y-67713181D01*
X152886819Y-67266873D01*
X152853334Y-67205550D01*
X152850500Y-67179192D01*
X152850500Y-64835502D01*
X152852268Y-64819489D01*
X152852026Y-64819467D01*
X152852758Y-64811711D01*
X152852760Y-64811704D01*
X152850500Y-64739796D01*
X152850500Y-64709075D01*
X152849579Y-64701788D01*
X152849122Y-64695979D01*
X152847597Y-64647431D01*
X152841676Y-64627053D01*
X152837731Y-64608004D01*
X152835071Y-64586942D01*
X152817185Y-64541769D01*
X152815296Y-64536249D01*
X152801743Y-64489600D01*
X152790940Y-64471334D01*
X152782378Y-64453856D01*
X152774568Y-64434129D01*
X152774565Y-64434125D01*
X152746014Y-64394827D01*
X152742811Y-64389951D01*
X152718081Y-64348135D01*
X152718079Y-64348133D01*
X152718078Y-64348131D01*
X152703075Y-64333129D01*
X152690435Y-64318330D01*
X152677961Y-64301160D01*
X152640528Y-64270194D01*
X152636206Y-64266260D01*
X149814808Y-61444862D01*
X149781323Y-61383539D01*
X149779168Y-61370141D01*
X149765674Y-61241745D01*
X149765672Y-61241740D01*
X149707179Y-61061716D01*
X149612533Y-60897784D01*
X149485871Y-60757112D01*
X149485870Y-60757111D01*
X149332734Y-60645851D01*
X149332729Y-60645848D01*
X149159807Y-60568857D01*
X149159802Y-60568855D01*
X149014001Y-60537865D01*
X148974646Y-60529500D01*
X148785354Y-60529500D01*
X148752897Y-60536398D01*
X148600197Y-60568855D01*
X148600192Y-60568857D01*
X148427270Y-60645848D01*
X148427265Y-60645851D01*
X148274129Y-60757111D01*
X148147466Y-60897785D01*
X148052821Y-61061715D01*
X148052818Y-61061722D01*
X147994327Y-61241740D01*
X147994326Y-61241744D01*
X147994326Y-61241745D01*
X147974540Y-61430000D01*
X147994326Y-61618258D01*
X148000476Y-61637184D01*
X148002470Y-61707025D01*
X147966388Y-61766857D01*
X147903687Y-61797684D01*
X147882544Y-61799500D01*
X147805354Y-61799500D01*
X147772897Y-61806398D01*
X147620197Y-61838855D01*
X147620192Y-61838857D01*
X147447270Y-61915848D01*
X147447265Y-61915851D01*
X147294129Y-62027111D01*
X147167466Y-62167785D01*
X147072821Y-62331715D01*
X147072818Y-62331722D01*
X147014327Y-62511740D01*
X147014326Y-62511744D01*
X146994540Y-62700000D01*
X134604185Y-62700000D01*
X134461641Y-62650122D01*
X134461638Y-62650121D01*
X134282503Y-62629938D01*
X134282497Y-62629938D01*
X134103361Y-62650121D01*
X134103358Y-62650122D01*
X133933196Y-62709664D01*
X133919391Y-62718338D01*
X133919390Y-62718338D01*
X133120608Y-62718338D01*
X133120608Y-62718337D01*
X133106808Y-62709667D01*
X133106798Y-62709662D01*
X132936641Y-62650122D01*
X132936638Y-62650121D01*
X132757503Y-62629938D01*
X132757497Y-62629938D01*
X132578361Y-62650121D01*
X132578358Y-62650122D01*
X132408196Y-62709664D01*
X132394391Y-62718338D01*
X132394390Y-62718338D01*
X50000500Y-62718338D01*
X50000500Y-55000000D01*
X51544696Y-55000000D01*
X51563898Y-55366405D01*
X51606434Y-55634967D01*
X51621295Y-55728794D01*
X51695456Y-56005567D01*
X51716260Y-56083206D01*
X51847746Y-56425739D01*
X52014320Y-56752656D01*
X52214147Y-57060364D01*
X52307795Y-57176009D01*
X52445051Y-57345506D01*
X52704494Y-57604949D01*
X52828746Y-57705566D01*
X52989635Y-57835852D01*
X53297343Y-58035679D01*
X53297348Y-58035682D01*
X53624264Y-58202255D01*
X53966801Y-58333742D01*
X54321206Y-58428705D01*
X54683596Y-58486102D01*
X55029734Y-58504241D01*
X55049999Y-58505304D01*
X55050000Y-58505304D01*
X55050001Y-58505304D01*
X55069203Y-58504297D01*
X55416404Y-58486102D01*
X55778794Y-58428705D01*
X56133199Y-58333742D01*
X56475736Y-58202255D01*
X56802652Y-58035682D01*
X57110366Y-57835851D01*
X57395506Y-57604949D01*
X57654949Y-57345506D01*
X57885851Y-57060366D01*
X58085682Y-56752652D01*
X58252255Y-56425736D01*
X58383742Y-56083199D01*
X58478705Y-55728794D01*
X58536102Y-55366404D01*
X58555304Y-55000000D01*
X58536102Y-54633596D01*
X58478705Y-54271206D01*
X58383742Y-53916801D01*
X58252255Y-53574264D01*
X58085682Y-53247348D01*
X57918322Y-52989635D01*
X57885852Y-52939635D01*
X57654952Y-52654498D01*
X57654949Y-52654494D01*
X57395506Y-52395051D01*
X57172111Y-52214149D01*
X57110364Y-52164147D01*
X56802656Y-51964320D01*
X56475739Y-51797746D01*
X56133206Y-51666260D01*
X56133199Y-51666258D01*
X55778794Y-51571295D01*
X55778790Y-51571294D01*
X55778789Y-51571294D01*
X55416405Y-51513898D01*
X55050001Y-51494696D01*
X55049999Y-51494696D01*
X54683594Y-51513898D01*
X54321211Y-51571294D01*
X54321209Y-51571294D01*
X53966793Y-51666260D01*
X53624260Y-51797746D01*
X53297343Y-51964320D01*
X52989635Y-52164147D01*
X52704498Y-52395047D01*
X52704490Y-52395054D01*
X52445054Y-52654490D01*
X52445047Y-52654498D01*
X52214147Y-52939635D01*
X52014320Y-53247343D01*
X51847746Y-53574260D01*
X51716260Y-53916793D01*
X51621294Y-54271209D01*
X51621294Y-54271211D01*
X51563898Y-54633594D01*
X51544696Y-54999999D01*
X51544696Y-55000000D01*
X50000500Y-55000000D01*
X50009493Y-54782569D01*
X50018160Y-54584061D01*
X50018574Y-54579138D01*
X50045487Y-54363223D01*
X50071884Y-54162726D01*
X50072669Y-54158114D01*
X50117191Y-53945778D01*
X50161160Y-53747451D01*
X50162253Y-53743235D01*
X50224112Y-53535457D01*
X50285324Y-53341320D01*
X50286673Y-53337488D01*
X50365469Y-53135551D01*
X50443499Y-52947170D01*
X50445033Y-52943771D01*
X50514381Y-52801920D01*
X50540249Y-52749007D01*
X50589446Y-52654498D01*
X50634494Y-52567960D01*
X50636207Y-52564891D01*
X50747211Y-52378601D01*
X50856972Y-52206313D01*
X50858765Y-52203656D01*
X50984856Y-52027054D01*
X51109313Y-51864861D01*
X51111135Y-51862601D01*
X51251448Y-51696933D01*
X51390563Y-51545115D01*
X51545115Y-51390563D01*
X51696933Y-51251448D01*
X51862601Y-51111135D01*
X51864861Y-51109313D01*
X52027054Y-50984856D01*
X52203656Y-50858765D01*
X52206313Y-50856972D01*
X52378601Y-50747211D01*
X52564900Y-50636201D01*
X52567960Y-50634494D01*
X52685284Y-50573419D01*
X52749007Y-50540249D01*
X52823655Y-50503755D01*
X52943771Y-50445033D01*
X52947170Y-50443499D01*
X53135551Y-50365469D01*
X53337488Y-50286673D01*
X53341320Y-50285324D01*
X53535457Y-50224112D01*
X53743235Y-50162253D01*
X53747451Y-50161160D01*
X53945778Y-50117191D01*
X54158114Y-50072669D01*
X54162726Y-50071884D01*
X54363223Y-50045487D01*
X54579138Y-50018574D01*
X54584061Y-50018160D01*
X54782569Y-50009493D01*
X55000000Y-50000500D01*
X55000500Y-50000500D01*
X64070500Y-50000500D01*
X64137539Y-50020185D01*
G37*
%TD.AperFunction*%
%TD*%
%TA.AperFunction,Conductor*%
%TO.N,Net-(U1-SW)*%
G36*
X76943039Y-56019685D02*
G01*
X76988794Y-56072489D01*
X77000000Y-56124000D01*
X77000000Y-58400000D01*
X74600000Y-58400000D01*
X74600000Y-56124000D01*
X74619685Y-56056961D01*
X74672489Y-56011206D01*
X74724000Y-56000000D01*
X76876000Y-56000000D01*
X76943039Y-56019685D01*
G37*
%TD.AperFunction*%
%TD*%
%TA.AperFunction,Conductor*%
%TO.N,+3.3V*%
G36*
X110143039Y-50020185D02*
G01*
X110188794Y-50072989D01*
X110200000Y-50124500D01*
X110200000Y-57176000D01*
X110180315Y-57243039D01*
X110127511Y-57288794D01*
X110076000Y-57300000D01*
X87724000Y-57300000D01*
X87656961Y-57280315D01*
X87611206Y-57227511D01*
X87600000Y-57176000D01*
X87600000Y-54900000D01*
X72000000Y-54900000D01*
X72000000Y-50000500D01*
X110076000Y-50000500D01*
X110143039Y-50020185D01*
G37*
%TD.AperFunction*%
%TD*%
%TA.AperFunction,Conductor*%
%TO.N,Net-(U1-SW)*%
G36*
X74600000Y-58400000D02*
G01*
X77000000Y-58400000D01*
X77000000Y-61476000D01*
X76980315Y-61543039D01*
X76927511Y-61588794D01*
X76876000Y-61600000D01*
X64524000Y-61600000D01*
X64456961Y-61580315D01*
X64411206Y-61527511D01*
X64400000Y-61476000D01*
X64400000Y-58324000D01*
X64419685Y-58256961D01*
X64472489Y-58211206D01*
X64524000Y-58200000D01*
X74600000Y-58200000D01*
X74600000Y-58400000D01*
G37*
%TD.AperFunction*%
%TD*%
M02*
