%TF.GenerationSoftware,KiCad,Pcbnew,7.0.9*%
%TF.CreationDate,2023-12-31T09:39:46+02:00*%
%TF.ProjectId,RainMaker,5261696e-4d61-46b6-9572-2e6b69636164,rev?*%
%TF.SameCoordinates,Original*%
%TF.FileFunction,Soldermask,Top*%
%TF.FilePolarity,Negative*%
%FSLAX46Y46*%
G04 Gerber Fmt 4.6, Leading zero omitted, Abs format (unit mm)*
G04 Created by KiCad (PCBNEW 7.0.9) date 2023-12-31 09:39:46*
%MOMM*%
%LPD*%
G01*
G04 APERTURE LIST*
G04 Aperture macros list*
%AMRoundRect*
0 Rectangle with rounded corners*
0 $1 Rounding radius*
0 $2 $3 $4 $5 $6 $7 $8 $9 X,Y pos of 4 corners*
0 Add a 4 corners polygon primitive as box body*
4,1,4,$2,$3,$4,$5,$6,$7,$8,$9,$2,$3,0*
0 Add four circle primitives for the rounded corners*
1,1,$1+$1,$2,$3*
1,1,$1+$1,$4,$5*
1,1,$1+$1,$6,$7*
1,1,$1+$1,$8,$9*
0 Add four rect primitives between the rounded corners*
20,1,$1+$1,$2,$3,$4,$5,0*
20,1,$1+$1,$4,$5,$6,$7,0*
20,1,$1+$1,$6,$7,$8,$9,0*
20,1,$1+$1,$8,$9,$2,$3,0*%
G04 Aperture macros list end*
%ADD10RoundRect,0.200000X0.200000X0.275000X-0.200000X0.275000X-0.200000X-0.275000X0.200000X-0.275000X0*%
%ADD11RoundRect,0.200000X-0.275000X0.200000X-0.275000X-0.200000X0.275000X-0.200000X0.275000X0.200000X0*%
%ADD12RoundRect,0.250000X-0.337500X-0.475000X0.337500X-0.475000X0.337500X0.475000X-0.337500X0.475000X0*%
%ADD13R,1.800000X1.700000*%
%ADD14C,6.000000*%
%ADD15RoundRect,0.250000X-0.475000X0.337500X-0.475000X-0.337500X0.475000X-0.337500X0.475000X0.337500X0*%
%ADD16C,2.300000*%
%ADD17RoundRect,0.150000X-0.512500X-0.150000X0.512500X-0.150000X0.512500X0.150000X-0.512500X0.150000X0*%
%ADD18RoundRect,0.250000X-0.350000X0.850000X-0.350000X-0.850000X0.350000X-0.850000X0.350000X0.850000X0*%
%ADD19RoundRect,0.249997X-2.650003X2.950003X-2.650003X-2.950003X2.650003X-2.950003X2.650003X2.950003X0*%
%ADD20RoundRect,0.250000X0.475000X-0.337500X0.475000X0.337500X-0.475000X0.337500X-0.475000X-0.337500X0*%
%ADD21RoundRect,0.250000X0.337500X0.475000X-0.337500X0.475000X-0.337500X-0.475000X0.337500X-0.475000X0*%
%ADD22C,2.000000*%
%ADD23R,2.000000X2.000000*%
%ADD24C,2.400000*%
%ADD25R,1.500000X1.500000*%
%ADD26RoundRect,0.200000X0.275000X-0.200000X0.275000X0.200000X-0.275000X0.200000X-0.275000X-0.200000X0*%
%ADD27RoundRect,0.200000X-0.200000X-0.275000X0.200000X-0.275000X0.200000X0.275000X-0.200000X0.275000X0*%
%ADD28R,1.700000X1.700000*%
%ADD29O,1.700000X1.700000*%
%ADD30R,3.500000X2.350000*%
%ADD31R,1.500000X0.900000*%
%ADD32R,0.900000X1.500000*%
%ADD33C,0.600000*%
%ADD34R,4.200000X4.200000*%
%ADD35R,0.600000X0.600000*%
G04 APERTURE END LIST*
D10*
%TO.C,R26*%
X153675000Y-66550000D03*
X152025000Y-66550000D03*
%TD*%
D11*
%TO.C,R9*%
X82222476Y-86475000D03*
X82222476Y-88125000D03*
%TD*%
%TO.C,R22*%
X150922476Y-86475000D03*
X150922476Y-88125000D03*
%TD*%
%TO.C,R14*%
X126772476Y-86475000D03*
X126772476Y-88125000D03*
%TD*%
%TO.C,R15*%
X136572476Y-86475000D03*
X136572476Y-88125000D03*
%TD*%
D12*
%TO.C,C8*%
X71300000Y-52300000D03*
X73375000Y-52300000D03*
%TD*%
D13*
%TO.C,D8*%
X131115000Y-102665000D03*
X126735000Y-102665000D03*
%TD*%
%TO.C,D7*%
X121315000Y-102665000D03*
X116935000Y-102665000D03*
%TD*%
D14*
%TO.C,REF\u002A\u002A*%
X55000000Y-116850000D03*
%TD*%
D15*
%TO.C,C2*%
X123000000Y-62562500D03*
X123000000Y-64637500D03*
%TD*%
D16*
%TO.C,J3*%
X79600000Y-116150000D03*
X84600000Y-116150000D03*
X89600000Y-116150000D03*
X94600000Y-116150000D03*
X99600000Y-116150000D03*
X104600000Y-116150000D03*
X109600000Y-116150000D03*
X114600000Y-116150000D03*
X119600000Y-116150000D03*
X124600000Y-116150000D03*
X129600000Y-116150000D03*
X134600000Y-116150000D03*
X139600000Y-116150000D03*
X144600000Y-116150000D03*
X149600000Y-116150000D03*
%TD*%
D17*
%TO.C,U1*%
X76350000Y-59000000D03*
X76350000Y-59950000D03*
X76350000Y-60900000D03*
X78625000Y-60900000D03*
X78625000Y-59950000D03*
X78625000Y-59000000D03*
%TD*%
D18*
%TO.C,Q6*%
X111672436Y-90925000D03*
D19*
X109392436Y-97225000D03*
D18*
X107112436Y-90925000D03*
%TD*%
D11*
%TO.C,R21*%
X141122476Y-86475000D03*
X141122476Y-88125000D03*
%TD*%
%TO.C,R8*%
X72422476Y-86475000D03*
X72422476Y-88125000D03*
%TD*%
D13*
%TO.C,D10*%
X150915000Y-102665000D03*
X146535000Y-102665000D03*
%TD*%
D18*
%TO.C,Q12*%
X170555000Y-90925000D03*
D19*
X168275000Y-97225000D03*
D18*
X165995000Y-90925000D03*
%TD*%
%TO.C,Q1*%
X62603636Y-90925000D03*
D19*
X60323636Y-97225000D03*
D18*
X58043636Y-90925000D03*
%TD*%
D20*
%TO.C,C4*%
X73637500Y-60900000D03*
X73637500Y-58825000D03*
%TD*%
D18*
%TO.C,Q7*%
X121486196Y-90925000D03*
D19*
X119206196Y-97225000D03*
D18*
X116926196Y-90925000D03*
%TD*%
D11*
%TO.C,R18*%
X165972476Y-86475000D03*
X165972476Y-88125000D03*
%TD*%
D18*
%TO.C,Q2*%
X72417396Y-90925000D03*
D19*
X70137396Y-97225000D03*
D18*
X67857396Y-90925000D03*
%TD*%
D13*
%TO.C,D3*%
X82115000Y-102665000D03*
X77735000Y-102665000D03*
%TD*%
D14*
%TO.C,REF\u002A\u002A*%
X174900000Y-116800000D03*
%TD*%
D11*
%TO.C,R23*%
X160722476Y-86475000D03*
X160722476Y-88125000D03*
%TD*%
%TO.C,R2*%
X67872476Y-86475000D03*
X67872476Y-88125000D03*
%TD*%
%TO.C,R19*%
X121472476Y-86475000D03*
X121472476Y-88125000D03*
%TD*%
D21*
%TO.C,C7*%
X78437500Y-57000000D03*
X76362500Y-57000000D03*
%TD*%
D20*
%TO.C,C3*%
X71337500Y-60900000D03*
X71337500Y-58825000D03*
%TD*%
D10*
%TO.C,R27*%
X153675000Y-64950000D03*
X152025000Y-64950000D03*
%TD*%
D13*
%TO.C,D4*%
X91865000Y-102665000D03*
X87485000Y-102665000D03*
%TD*%
D11*
%TO.C,R25*%
X120800000Y-62800000D03*
X120800000Y-64450000D03*
%TD*%
%TO.C,R5*%
X97252908Y-86475000D03*
X97252908Y-88125000D03*
%TD*%
D22*
%TO.C,C1*%
X68050000Y-70200000D03*
D23*
X68050000Y-75200000D03*
%TD*%
D13*
%TO.C,D2*%
X72315000Y-102665000D03*
X67935000Y-102665000D03*
%TD*%
D24*
%TO.C,J1*%
X55450000Y-70160000D03*
X55450000Y-75240000D03*
%TD*%
D25*
%TO.C,SW1*%
X154450000Y-57800000D03*
X161450000Y-57800000D03*
X154450000Y-60800000D03*
X161450000Y-60800000D03*
%TD*%
D18*
%TO.C,Q11*%
X160741236Y-90925000D03*
D19*
X158461236Y-97225000D03*
D18*
X156181236Y-90925000D03*
%TD*%
D11*
%TO.C,R4*%
X87472476Y-86475000D03*
X87472476Y-88125000D03*
%TD*%
%TO.C,R10*%
X92072476Y-86475000D03*
X92072476Y-88125000D03*
%TD*%
D26*
%TO.C,R31*%
X81550000Y-60937500D03*
X81550000Y-59287500D03*
%TD*%
D18*
%TO.C,Q9*%
X141113716Y-90925000D03*
D19*
X138833716Y-97225000D03*
D18*
X136553716Y-90925000D03*
%TD*%
D11*
%TO.C,R17*%
X156172476Y-86475000D03*
X156172476Y-88125000D03*
%TD*%
D20*
%TO.C,C5*%
X120800000Y-59437500D03*
X120800000Y-57362500D03*
%TD*%
D15*
%TO.C,C11*%
X85300000Y-59025000D03*
X85300000Y-61100000D03*
%TD*%
D18*
%TO.C,Q8*%
X131299956Y-90925000D03*
D19*
X129019956Y-97225000D03*
D18*
X126739956Y-90925000D03*
%TD*%
D11*
%TO.C,R30*%
X83400000Y-59287500D03*
X83400000Y-60937500D03*
%TD*%
%TO.C,R20*%
X131322476Y-86475000D03*
X131322476Y-88125000D03*
%TD*%
D27*
%TO.C,R29*%
X163875000Y-61150000D03*
X165525000Y-61150000D03*
%TD*%
D12*
%TO.C,C9*%
X71300000Y-54450000D03*
X73375000Y-54450000D03*
%TD*%
D11*
%TO.C,R11*%
X101872476Y-86475000D03*
X101872476Y-88125000D03*
%TD*%
D18*
%TO.C,Q4*%
X92044916Y-90925000D03*
D19*
X89764916Y-97225000D03*
D18*
X87484916Y-90925000D03*
%TD*%
D13*
%TO.C,D9*%
X140815000Y-102665000D03*
X136435000Y-102665000D03*
%TD*%
%TO.C,D6*%
X111415000Y-102665000D03*
X107035000Y-102665000D03*
%TD*%
D28*
%TO.C,J2*%
X176800000Y-79040000D03*
D29*
X176800000Y-76500000D03*
X176800000Y-73960000D03*
X176800000Y-71420000D03*
X176800000Y-68880000D03*
X176800000Y-66340000D03*
%TD*%
D13*
%TO.C,D11*%
X160515000Y-102665000D03*
X156135000Y-102665000D03*
%TD*%
D11*
%TO.C,R7*%
X62622476Y-86475000D03*
X62622476Y-88125000D03*
%TD*%
%TO.C,R13*%
X116922476Y-86475000D03*
X116922476Y-88125000D03*
%TD*%
D20*
%TO.C,C6*%
X123000000Y-59437500D03*
X123000000Y-57362500D03*
%TD*%
D18*
%TO.C,Q5*%
X101858676Y-90925000D03*
D19*
X99578676Y-97225000D03*
D18*
X97298676Y-90925000D03*
%TD*%
D30*
%TO.C,L1*%
X66650000Y-59850000D03*
X66650000Y-54150000D03*
%TD*%
D18*
%TO.C,Q10*%
X150927476Y-90925000D03*
D19*
X148647476Y-97225000D03*
D18*
X146367476Y-90925000D03*
%TD*%
D11*
%TO.C,R24*%
X170572476Y-86475000D03*
X170572476Y-88125000D03*
%TD*%
D13*
%TO.C,D12*%
X170665000Y-102665000D03*
X166285000Y-102665000D03*
%TD*%
D18*
%TO.C,Q3*%
X82231156Y-90925000D03*
D19*
X79951156Y-97225000D03*
D18*
X77671156Y-90925000D03*
%TD*%
D13*
%TO.C,D1*%
X62465000Y-102665000D03*
X58085000Y-102665000D03*
%TD*%
%TO.C,D5*%
X101665000Y-102665000D03*
X97285000Y-102665000D03*
%TD*%
D11*
%TO.C,R16*%
X146372476Y-86475000D03*
X146372476Y-88125000D03*
%TD*%
D14*
%TO.C,REF\u002A\u002A*%
X174900000Y-55050000D03*
%TD*%
D12*
%TO.C,C10*%
X71300000Y-56600000D03*
X73375000Y-56600000D03*
%TD*%
D14*
%TO.C,REF\u002A\u002A*%
X55050000Y-55000000D03*
%TD*%
D31*
%TO.C,U2*%
X125450000Y-57620000D03*
X125450000Y-58890000D03*
X125450000Y-60160000D03*
X125450000Y-61430000D03*
X125450000Y-62700000D03*
X125450000Y-63970000D03*
X125450000Y-65240000D03*
X125450000Y-66510000D03*
X125450000Y-67780000D03*
X125450000Y-69050000D03*
X125450000Y-70320000D03*
X125450000Y-71590000D03*
X125450000Y-72860000D03*
X125450000Y-74130000D03*
D32*
X128490000Y-75380000D03*
X129760000Y-75380000D03*
X131030000Y-75380000D03*
X132300000Y-75380000D03*
X133570000Y-75380000D03*
X134840000Y-75380000D03*
X136110000Y-75380000D03*
X137380000Y-75380000D03*
X138650000Y-75380000D03*
X139920000Y-75380000D03*
D31*
X142950000Y-74130000D03*
X142950000Y-72860000D03*
X142950000Y-71590000D03*
X142950000Y-70320000D03*
X142950000Y-69050000D03*
X142950000Y-67780000D03*
X142950000Y-66510000D03*
X142950000Y-65240000D03*
X142950000Y-63970000D03*
X142950000Y-62700000D03*
X142950000Y-61430000D03*
X142950000Y-60160000D03*
X142950000Y-58890000D03*
X142950000Y-57620000D03*
D33*
X131995000Y-64197500D03*
X131995000Y-65722500D03*
X132757500Y-63435000D03*
X132757500Y-64960000D03*
X132757500Y-66485000D03*
X133520000Y-64197500D03*
D34*
X133520000Y-64960000D03*
D33*
X133520000Y-65722500D03*
X134282500Y-63435000D03*
X134282500Y-64960000D03*
X134282500Y-66485000D03*
X135045000Y-64197500D03*
X135045000Y-65722500D03*
%TD*%
D11*
%TO.C,R1*%
X58122476Y-86475000D03*
X58122476Y-88125000D03*
%TD*%
D35*
%TO.C,LED1*%
X158800000Y-65850000D03*
X158800000Y-64950000D03*
X158800000Y-64050000D03*
X157400000Y-65850000D03*
X157400000Y-64950000D03*
X157400000Y-64050000D03*
%TD*%
D11*
%TO.C,R12*%
X111672476Y-86475000D03*
X111672476Y-88125000D03*
%TD*%
D10*
%TO.C,R28*%
X153675000Y-63350000D03*
X152025000Y-63350000D03*
%TD*%
D11*
%TO.C,R6*%
X107122476Y-86475000D03*
X107122476Y-88125000D03*
%TD*%
%TO.C,R3*%
X77672476Y-86475000D03*
X77672476Y-88125000D03*
%TD*%
M02*
