%TF.GenerationSoftware,KiCad,Pcbnew,7.0.9*%
%TF.CreationDate,2023-12-31T09:39:46+02:00*%
%TF.ProjectId,RainMaker,5261696e-4d61-46b6-9572-2e6b69636164,rev?*%
%TF.SameCoordinates,Original*%
%TF.FileFunction,Legend,Top*%
%TF.FilePolarity,Positive*%
%FSLAX46Y46*%
G04 Gerber Fmt 4.6, Leading zero omitted, Abs format (unit mm)*
G04 Created by KiCad (PCBNEW 7.0.9) date 2023-12-31 09:39:46*
%MOMM*%
%LPD*%
G01*
G04 APERTURE LIST*
%ADD10C,0.150000*%
%ADD11C,0.120000*%
%ADD12C,0.250000*%
G04 APERTURE END LIST*
D10*
X53558548Y-78888866D02*
X54320453Y-78888866D01*
X53939500Y-79269819D02*
X53939500Y-78507914D01*
X54749024Y-78365057D02*
X54796643Y-78317438D01*
X54796643Y-78317438D02*
X54891881Y-78269819D01*
X54891881Y-78269819D02*
X55129976Y-78269819D01*
X55129976Y-78269819D02*
X55225214Y-78317438D01*
X55225214Y-78317438D02*
X55272833Y-78365057D01*
X55272833Y-78365057D02*
X55320452Y-78460295D01*
X55320452Y-78460295D02*
X55320452Y-78555533D01*
X55320452Y-78555533D02*
X55272833Y-78698390D01*
X55272833Y-78698390D02*
X54701405Y-79269819D01*
X54701405Y-79269819D02*
X55320452Y-79269819D01*
X56177595Y-78603152D02*
X56177595Y-79269819D01*
X55939500Y-78222200D02*
X55701405Y-78936485D01*
X55701405Y-78936485D02*
X56320452Y-78936485D01*
X56558548Y-78269819D02*
X56891881Y-79269819D01*
X56891881Y-79269819D02*
X57225214Y-78269819D01*
X54660588Y-66117438D02*
X54565350Y-66069819D01*
X54565350Y-66069819D02*
X54422493Y-66069819D01*
X54422493Y-66069819D02*
X54279636Y-66117438D01*
X54279636Y-66117438D02*
X54184398Y-66212676D01*
X54184398Y-66212676D02*
X54136779Y-66307914D01*
X54136779Y-66307914D02*
X54089160Y-66498390D01*
X54089160Y-66498390D02*
X54089160Y-66641247D01*
X54089160Y-66641247D02*
X54136779Y-66831723D01*
X54136779Y-66831723D02*
X54184398Y-66926961D01*
X54184398Y-66926961D02*
X54279636Y-67022200D01*
X54279636Y-67022200D02*
X54422493Y-67069819D01*
X54422493Y-67069819D02*
X54517731Y-67069819D01*
X54517731Y-67069819D02*
X54660588Y-67022200D01*
X54660588Y-67022200D02*
X54708207Y-66974580D01*
X54708207Y-66974580D02*
X54708207Y-66641247D01*
X54708207Y-66641247D02*
X54517731Y-66641247D01*
X55136779Y-67069819D02*
X55136779Y-66069819D01*
X55136779Y-66069819D02*
X55708207Y-67069819D01*
X55708207Y-67069819D02*
X55708207Y-66069819D01*
X56184398Y-67069819D02*
X56184398Y-66069819D01*
X56184398Y-66069819D02*
X56422493Y-66069819D01*
X56422493Y-66069819D02*
X56565350Y-66117438D01*
X56565350Y-66117438D02*
X56660588Y-66212676D01*
X56660588Y-66212676D02*
X56708207Y-66307914D01*
X56708207Y-66307914D02*
X56755826Y-66498390D01*
X56755826Y-66498390D02*
X56755826Y-66641247D01*
X56755826Y-66641247D02*
X56708207Y-66831723D01*
X56708207Y-66831723D02*
X56660588Y-66926961D01*
X56660588Y-66926961D02*
X56565350Y-67022200D01*
X56565350Y-67022200D02*
X56422493Y-67069819D01*
X56422493Y-67069819D02*
X56184398Y-67069819D01*
X157393922Y-120569819D02*
X157727255Y-121569819D01*
X157727255Y-121569819D02*
X158060588Y-120569819D01*
X158917731Y-121569819D02*
X158346303Y-121569819D01*
X158632017Y-121569819D02*
X158632017Y-120569819D01*
X158632017Y-120569819D02*
X158536779Y-120712676D01*
X158536779Y-120712676D02*
X158441541Y-120807914D01*
X158441541Y-120807914D02*
X158346303Y-120855533D01*
X159346303Y-121474580D02*
X159393922Y-121522200D01*
X159393922Y-121522200D02*
X159346303Y-121569819D01*
X159346303Y-121569819D02*
X159298684Y-121522200D01*
X159298684Y-121522200D02*
X159346303Y-121474580D01*
X159346303Y-121474580D02*
X159346303Y-121569819D01*
X160012969Y-120569819D02*
X160108207Y-120569819D01*
X160108207Y-120569819D02*
X160203445Y-120617438D01*
X160203445Y-120617438D02*
X160251064Y-120665057D01*
X160251064Y-120665057D02*
X160298683Y-120760295D01*
X160298683Y-120760295D02*
X160346302Y-120950771D01*
X160346302Y-120950771D02*
X160346302Y-121188866D01*
X160346302Y-121188866D02*
X160298683Y-121379342D01*
X160298683Y-121379342D02*
X160251064Y-121474580D01*
X160251064Y-121474580D02*
X160203445Y-121522200D01*
X160203445Y-121522200D02*
X160108207Y-121569819D01*
X160108207Y-121569819D02*
X160012969Y-121569819D01*
X160012969Y-121569819D02*
X159917731Y-121522200D01*
X159917731Y-121522200D02*
X159870112Y-121474580D01*
X159870112Y-121474580D02*
X159822493Y-121379342D01*
X159822493Y-121379342D02*
X159774874Y-121188866D01*
X159774874Y-121188866D02*
X159774874Y-120950771D01*
X159774874Y-120950771D02*
X159822493Y-120760295D01*
X159822493Y-120760295D02*
X159870112Y-120665057D01*
X159870112Y-120665057D02*
X159917731Y-120617438D01*
X159917731Y-120617438D02*
X160012969Y-120569819D01*
X161727255Y-120569819D02*
X161822493Y-120569819D01*
X161822493Y-120569819D02*
X161917731Y-120617438D01*
X161917731Y-120617438D02*
X161965350Y-120665057D01*
X161965350Y-120665057D02*
X162012969Y-120760295D01*
X162012969Y-120760295D02*
X162060588Y-120950771D01*
X162060588Y-120950771D02*
X162060588Y-121188866D01*
X162060588Y-121188866D02*
X162012969Y-121379342D01*
X162012969Y-121379342D02*
X161965350Y-121474580D01*
X161965350Y-121474580D02*
X161917731Y-121522200D01*
X161917731Y-121522200D02*
X161822493Y-121569819D01*
X161822493Y-121569819D02*
X161727255Y-121569819D01*
X161727255Y-121569819D02*
X161632017Y-121522200D01*
X161632017Y-121522200D02*
X161584398Y-121474580D01*
X161584398Y-121474580D02*
X161536779Y-121379342D01*
X161536779Y-121379342D02*
X161489160Y-121188866D01*
X161489160Y-121188866D02*
X161489160Y-120950771D01*
X161489160Y-120950771D02*
X161536779Y-120760295D01*
X161536779Y-120760295D02*
X161584398Y-120665057D01*
X161584398Y-120665057D02*
X161632017Y-120617438D01*
X161632017Y-120617438D02*
X161727255Y-120569819D01*
X163012969Y-121569819D02*
X162441541Y-121569819D01*
X162727255Y-121569819D02*
X162727255Y-120569819D01*
X162727255Y-120569819D02*
X162632017Y-120712676D01*
X162632017Y-120712676D02*
X162536779Y-120807914D01*
X162536779Y-120807914D02*
X162441541Y-120855533D01*
X163441541Y-121188866D02*
X164203446Y-121188866D01*
X164870112Y-120569819D02*
X164965350Y-120569819D01*
X164965350Y-120569819D02*
X165060588Y-120617438D01*
X165060588Y-120617438D02*
X165108207Y-120665057D01*
X165108207Y-120665057D02*
X165155826Y-120760295D01*
X165155826Y-120760295D02*
X165203445Y-120950771D01*
X165203445Y-120950771D02*
X165203445Y-121188866D01*
X165203445Y-121188866D02*
X165155826Y-121379342D01*
X165155826Y-121379342D02*
X165108207Y-121474580D01*
X165108207Y-121474580D02*
X165060588Y-121522200D01*
X165060588Y-121522200D02*
X164965350Y-121569819D01*
X164965350Y-121569819D02*
X164870112Y-121569819D01*
X164870112Y-121569819D02*
X164774874Y-121522200D01*
X164774874Y-121522200D02*
X164727255Y-121474580D01*
X164727255Y-121474580D02*
X164679636Y-121379342D01*
X164679636Y-121379342D02*
X164632017Y-121188866D01*
X164632017Y-121188866D02*
X164632017Y-120950771D01*
X164632017Y-120950771D02*
X164679636Y-120760295D01*
X164679636Y-120760295D02*
X164727255Y-120665057D01*
X164727255Y-120665057D02*
X164774874Y-120617438D01*
X164774874Y-120617438D02*
X164870112Y-120569819D01*
X166155826Y-121569819D02*
X165584398Y-121569819D01*
X165870112Y-121569819D02*
X165870112Y-120569819D01*
X165870112Y-120569819D02*
X165774874Y-120712676D01*
X165774874Y-120712676D02*
X165679636Y-120807914D01*
X165679636Y-120807914D02*
X165584398Y-120855533D01*
X166584398Y-121188866D02*
X167346303Y-121188866D01*
X167774874Y-120665057D02*
X167822493Y-120617438D01*
X167822493Y-120617438D02*
X167917731Y-120569819D01*
X167917731Y-120569819D02*
X168155826Y-120569819D01*
X168155826Y-120569819D02*
X168251064Y-120617438D01*
X168251064Y-120617438D02*
X168298683Y-120665057D01*
X168298683Y-120665057D02*
X168346302Y-120760295D01*
X168346302Y-120760295D02*
X168346302Y-120855533D01*
X168346302Y-120855533D02*
X168298683Y-120998390D01*
X168298683Y-120998390D02*
X167727255Y-121569819D01*
X167727255Y-121569819D02*
X168346302Y-121569819D01*
X168965350Y-120569819D02*
X169060588Y-120569819D01*
X169060588Y-120569819D02*
X169155826Y-120617438D01*
X169155826Y-120617438D02*
X169203445Y-120665057D01*
X169203445Y-120665057D02*
X169251064Y-120760295D01*
X169251064Y-120760295D02*
X169298683Y-120950771D01*
X169298683Y-120950771D02*
X169298683Y-121188866D01*
X169298683Y-121188866D02*
X169251064Y-121379342D01*
X169251064Y-121379342D02*
X169203445Y-121474580D01*
X169203445Y-121474580D02*
X169155826Y-121522200D01*
X169155826Y-121522200D02*
X169060588Y-121569819D01*
X169060588Y-121569819D02*
X168965350Y-121569819D01*
X168965350Y-121569819D02*
X168870112Y-121522200D01*
X168870112Y-121522200D02*
X168822493Y-121474580D01*
X168822493Y-121474580D02*
X168774874Y-121379342D01*
X168774874Y-121379342D02*
X168727255Y-121188866D01*
X168727255Y-121188866D02*
X168727255Y-120950771D01*
X168727255Y-120950771D02*
X168774874Y-120760295D01*
X168774874Y-120760295D02*
X168822493Y-120665057D01*
X168822493Y-120665057D02*
X168870112Y-120617438D01*
X168870112Y-120617438D02*
X168965350Y-120569819D01*
X169679636Y-120665057D02*
X169727255Y-120617438D01*
X169727255Y-120617438D02*
X169822493Y-120569819D01*
X169822493Y-120569819D02*
X170060588Y-120569819D01*
X170060588Y-120569819D02*
X170155826Y-120617438D01*
X170155826Y-120617438D02*
X170203445Y-120665057D01*
X170203445Y-120665057D02*
X170251064Y-120760295D01*
X170251064Y-120760295D02*
X170251064Y-120855533D01*
X170251064Y-120855533D02*
X170203445Y-120998390D01*
X170203445Y-120998390D02*
X169632017Y-121569819D01*
X169632017Y-121569819D02*
X170251064Y-121569819D01*
X171108207Y-120903152D02*
X171108207Y-121569819D01*
X170870112Y-120522200D02*
X170632017Y-121236485D01*
X170632017Y-121236485D02*
X171251064Y-121236485D01*
X50822493Y-65269819D02*
X50822493Y-65984104D01*
X50822493Y-65984104D02*
X50774874Y-66126961D01*
X50774874Y-66126961D02*
X50679636Y-66222200D01*
X50679636Y-66222200D02*
X50536779Y-66269819D01*
X50536779Y-66269819D02*
X50441541Y-66269819D01*
X51251065Y-65365057D02*
X51298684Y-65317438D01*
X51298684Y-65317438D02*
X51393922Y-65269819D01*
X51393922Y-65269819D02*
X51632017Y-65269819D01*
X51632017Y-65269819D02*
X51727255Y-65317438D01*
X51727255Y-65317438D02*
X51774874Y-65365057D01*
X51774874Y-65365057D02*
X51822493Y-65460295D01*
X51822493Y-65460295D02*
X51822493Y-65555533D01*
X51822493Y-65555533D02*
X51774874Y-65698390D01*
X51774874Y-65698390D02*
X51203446Y-66269819D01*
X51203446Y-66269819D02*
X51822493Y-66269819D01*
X75022493Y-120569819D02*
X75022493Y-121284104D01*
X75022493Y-121284104D02*
X74974874Y-121426961D01*
X74974874Y-121426961D02*
X74879636Y-121522200D01*
X74879636Y-121522200D02*
X74736779Y-121569819D01*
X74736779Y-121569819D02*
X74641541Y-121569819D01*
X75403446Y-120569819D02*
X76022493Y-120569819D01*
X76022493Y-120569819D02*
X75689160Y-120950771D01*
X75689160Y-120950771D02*
X75832017Y-120950771D01*
X75832017Y-120950771D02*
X75927255Y-120998390D01*
X75927255Y-120998390D02*
X75974874Y-121046009D01*
X75974874Y-121046009D02*
X76022493Y-121141247D01*
X76022493Y-121141247D02*
X76022493Y-121379342D01*
X76022493Y-121379342D02*
X75974874Y-121474580D01*
X75974874Y-121474580D02*
X75927255Y-121522200D01*
X75927255Y-121522200D02*
X75832017Y-121569819D01*
X75832017Y-121569819D02*
X75546303Y-121569819D01*
X75546303Y-121569819D02*
X75451065Y-121522200D01*
X75451065Y-121522200D02*
X75403446Y-121474580D01*
X75236779Y-58974580D02*
X75284398Y-59022200D01*
X75284398Y-59022200D02*
X75236779Y-59069819D01*
X75236779Y-59069819D02*
X75189160Y-59022200D01*
X75189160Y-59022200D02*
X75236779Y-58974580D01*
X75236779Y-58974580D02*
X75236779Y-59069819D01*
X171836779Y-79469819D02*
X171836779Y-78469819D01*
X172503445Y-78469819D02*
X172693921Y-78469819D01*
X172693921Y-78469819D02*
X172789159Y-78517438D01*
X172789159Y-78517438D02*
X172884397Y-78612676D01*
X172884397Y-78612676D02*
X172932016Y-78803152D01*
X172932016Y-78803152D02*
X172932016Y-79136485D01*
X172932016Y-79136485D02*
X172884397Y-79326961D01*
X172884397Y-79326961D02*
X172789159Y-79422200D01*
X172789159Y-79422200D02*
X172693921Y-79469819D01*
X172693921Y-79469819D02*
X172503445Y-79469819D01*
X172503445Y-79469819D02*
X172408207Y-79422200D01*
X172408207Y-79422200D02*
X172312969Y-79326961D01*
X172312969Y-79326961D02*
X172265350Y-79136485D01*
X172265350Y-79136485D02*
X172265350Y-78803152D01*
X172265350Y-78803152D02*
X172312969Y-78612676D01*
X172312969Y-78612676D02*
X172408207Y-78517438D01*
X172408207Y-78517438D02*
X172503445Y-78469819D01*
X173122493Y-79565057D02*
X173884397Y-79565057D01*
X174312969Y-78469819D02*
X174408207Y-78469819D01*
X174408207Y-78469819D02*
X174503445Y-78517438D01*
X174503445Y-78517438D02*
X174551064Y-78565057D01*
X174551064Y-78565057D02*
X174598683Y-78660295D01*
X174598683Y-78660295D02*
X174646302Y-78850771D01*
X174646302Y-78850771D02*
X174646302Y-79088866D01*
X174646302Y-79088866D02*
X174598683Y-79279342D01*
X174598683Y-79279342D02*
X174551064Y-79374580D01*
X174551064Y-79374580D02*
X174503445Y-79422200D01*
X174503445Y-79422200D02*
X174408207Y-79469819D01*
X174408207Y-79469819D02*
X174312969Y-79469819D01*
X174312969Y-79469819D02*
X174217731Y-79422200D01*
X174217731Y-79422200D02*
X174170112Y-79374580D01*
X174170112Y-79374580D02*
X174122493Y-79279342D01*
X174122493Y-79279342D02*
X174074874Y-79088866D01*
X174074874Y-79088866D02*
X174074874Y-78850771D01*
X174074874Y-78850771D02*
X174122493Y-78660295D01*
X174122493Y-78660295D02*
X174170112Y-78565057D01*
X174170112Y-78565057D02*
X174217731Y-78517438D01*
X174217731Y-78517438D02*
X174312969Y-78469819D01*
X172408207Y-76969819D02*
X172074874Y-76493628D01*
X171836779Y-76969819D02*
X171836779Y-75969819D01*
X171836779Y-75969819D02*
X172217731Y-75969819D01*
X172217731Y-75969819D02*
X172312969Y-76017438D01*
X172312969Y-76017438D02*
X172360588Y-76065057D01*
X172360588Y-76065057D02*
X172408207Y-76160295D01*
X172408207Y-76160295D02*
X172408207Y-76303152D01*
X172408207Y-76303152D02*
X172360588Y-76398390D01*
X172360588Y-76398390D02*
X172312969Y-76446009D01*
X172312969Y-76446009D02*
X172217731Y-76493628D01*
X172217731Y-76493628D02*
X171836779Y-76493628D01*
X172741541Y-75969819D02*
X173408207Y-76969819D01*
X173408207Y-75969819D02*
X172741541Y-76969819D01*
X171793922Y-73469819D02*
X172365350Y-73469819D01*
X172079636Y-74469819D02*
X172079636Y-73469819D01*
X172603446Y-73469819D02*
X173270112Y-74469819D01*
X173270112Y-73469819D02*
X172603446Y-74469819D01*
X171836779Y-71446009D02*
X172170112Y-71446009D01*
X172312969Y-71969819D02*
X171836779Y-71969819D01*
X171836779Y-71969819D02*
X171836779Y-70969819D01*
X171836779Y-70969819D02*
X172312969Y-70969819D01*
X172741541Y-71969819D02*
X172741541Y-70969819D01*
X172741541Y-70969819D02*
X173312969Y-71969819D01*
X173312969Y-71969819D02*
X173312969Y-70969819D01*
X171841541Y-68269819D02*
X172460588Y-68269819D01*
X172460588Y-68269819D02*
X172127255Y-68650771D01*
X172127255Y-68650771D02*
X172270112Y-68650771D01*
X172270112Y-68650771D02*
X172365350Y-68698390D01*
X172365350Y-68698390D02*
X172412969Y-68746009D01*
X172412969Y-68746009D02*
X172460588Y-68841247D01*
X172460588Y-68841247D02*
X172460588Y-69079342D01*
X172460588Y-69079342D02*
X172412969Y-69174580D01*
X172412969Y-69174580D02*
X172365350Y-69222200D01*
X172365350Y-69222200D02*
X172270112Y-69269819D01*
X172270112Y-69269819D02*
X171984398Y-69269819D01*
X171984398Y-69269819D02*
X171889160Y-69222200D01*
X171889160Y-69222200D02*
X171841541Y-69174580D01*
X172889160Y-69174580D02*
X172936779Y-69222200D01*
X172936779Y-69222200D02*
X172889160Y-69269819D01*
X172889160Y-69269819D02*
X172841541Y-69222200D01*
X172841541Y-69222200D02*
X172889160Y-69174580D01*
X172889160Y-69174580D02*
X172889160Y-69269819D01*
X173270112Y-68269819D02*
X173889159Y-68269819D01*
X173889159Y-68269819D02*
X173555826Y-68650771D01*
X173555826Y-68650771D02*
X173698683Y-68650771D01*
X173698683Y-68650771D02*
X173793921Y-68698390D01*
X173793921Y-68698390D02*
X173841540Y-68746009D01*
X173841540Y-68746009D02*
X173889159Y-68841247D01*
X173889159Y-68841247D02*
X173889159Y-69079342D01*
X173889159Y-69079342D02*
X173841540Y-69174580D01*
X173841540Y-69174580D02*
X173793921Y-69222200D01*
X173793921Y-69222200D02*
X173698683Y-69269819D01*
X173698683Y-69269819D02*
X173412969Y-69269819D01*
X173412969Y-69269819D02*
X173317731Y-69222200D01*
X173317731Y-69222200D02*
X173270112Y-69174580D01*
X174174874Y-68269819D02*
X174508207Y-69269819D01*
X174508207Y-69269819D02*
X174841540Y-68269819D01*
X172660588Y-65817438D02*
X172565350Y-65769819D01*
X172565350Y-65769819D02*
X172422493Y-65769819D01*
X172422493Y-65769819D02*
X172279636Y-65817438D01*
X172279636Y-65817438D02*
X172184398Y-65912676D01*
X172184398Y-65912676D02*
X172136779Y-66007914D01*
X172136779Y-66007914D02*
X172089160Y-66198390D01*
X172089160Y-66198390D02*
X172089160Y-66341247D01*
X172089160Y-66341247D02*
X172136779Y-66531723D01*
X172136779Y-66531723D02*
X172184398Y-66626961D01*
X172184398Y-66626961D02*
X172279636Y-66722200D01*
X172279636Y-66722200D02*
X172422493Y-66769819D01*
X172422493Y-66769819D02*
X172517731Y-66769819D01*
X172517731Y-66769819D02*
X172660588Y-66722200D01*
X172660588Y-66722200D02*
X172708207Y-66674580D01*
X172708207Y-66674580D02*
X172708207Y-66341247D01*
X172708207Y-66341247D02*
X172517731Y-66341247D01*
X173136779Y-66769819D02*
X173136779Y-65769819D01*
X173136779Y-65769819D02*
X173708207Y-66769819D01*
X173708207Y-66769819D02*
X173708207Y-65769819D01*
X174184398Y-66769819D02*
X174184398Y-65769819D01*
X174184398Y-65769819D02*
X174422493Y-65769819D01*
X174422493Y-65769819D02*
X174565350Y-65817438D01*
X174565350Y-65817438D02*
X174660588Y-65912676D01*
X174660588Y-65912676D02*
X174708207Y-66007914D01*
X174708207Y-66007914D02*
X174755826Y-66198390D01*
X174755826Y-66198390D02*
X174755826Y-66341247D01*
X174755826Y-66341247D02*
X174708207Y-66531723D01*
X174708207Y-66531723D02*
X174660588Y-66626961D01*
X174660588Y-66626961D02*
X174565350Y-66722200D01*
X174565350Y-66722200D02*
X174422493Y-66769819D01*
X174422493Y-66769819D02*
X174184398Y-66769819D01*
X114629636Y-110248390D02*
X114534398Y-110200771D01*
X114534398Y-110200771D02*
X114486779Y-110153152D01*
X114486779Y-110153152D02*
X114439160Y-110057914D01*
X114439160Y-110057914D02*
X114439160Y-110010295D01*
X114439160Y-110010295D02*
X114486779Y-109915057D01*
X114486779Y-109915057D02*
X114534398Y-109867438D01*
X114534398Y-109867438D02*
X114629636Y-109819819D01*
X114629636Y-109819819D02*
X114820112Y-109819819D01*
X114820112Y-109819819D02*
X114915350Y-109867438D01*
X114915350Y-109867438D02*
X114962969Y-109915057D01*
X114962969Y-109915057D02*
X115010588Y-110010295D01*
X115010588Y-110010295D02*
X115010588Y-110057914D01*
X115010588Y-110057914D02*
X114962969Y-110153152D01*
X114962969Y-110153152D02*
X114915350Y-110200771D01*
X114915350Y-110200771D02*
X114820112Y-110248390D01*
X114820112Y-110248390D02*
X114629636Y-110248390D01*
X114629636Y-110248390D02*
X114534398Y-110296009D01*
X114534398Y-110296009D02*
X114486779Y-110343628D01*
X114486779Y-110343628D02*
X114439160Y-110438866D01*
X114439160Y-110438866D02*
X114439160Y-110629342D01*
X114439160Y-110629342D02*
X114486779Y-110724580D01*
X114486779Y-110724580D02*
X114534398Y-110772200D01*
X114534398Y-110772200D02*
X114629636Y-110819819D01*
X114629636Y-110819819D02*
X114820112Y-110819819D01*
X114820112Y-110819819D02*
X114915350Y-110772200D01*
X114915350Y-110772200D02*
X114962969Y-110724580D01*
X114962969Y-110724580D02*
X115010588Y-110629342D01*
X115010588Y-110629342D02*
X115010588Y-110438866D01*
X115010588Y-110438866D02*
X114962969Y-110343628D01*
X114962969Y-110343628D02*
X114915350Y-110296009D01*
X114915350Y-110296009D02*
X114820112Y-110248390D01*
X99862969Y-109919819D02*
X99386779Y-109919819D01*
X99386779Y-109919819D02*
X99339160Y-110396009D01*
X99339160Y-110396009D02*
X99386779Y-110348390D01*
X99386779Y-110348390D02*
X99482017Y-110300771D01*
X99482017Y-110300771D02*
X99720112Y-110300771D01*
X99720112Y-110300771D02*
X99815350Y-110348390D01*
X99815350Y-110348390D02*
X99862969Y-110396009D01*
X99862969Y-110396009D02*
X99910588Y-110491247D01*
X99910588Y-110491247D02*
X99910588Y-110729342D01*
X99910588Y-110729342D02*
X99862969Y-110824580D01*
X99862969Y-110824580D02*
X99815350Y-110872200D01*
X99815350Y-110872200D02*
X99720112Y-110919819D01*
X99720112Y-110919819D02*
X99482017Y-110919819D01*
X99482017Y-110919819D02*
X99386779Y-110872200D01*
X99386779Y-110872200D02*
X99339160Y-110824580D01*
X143043922Y-109969819D02*
X143377255Y-110969819D01*
X143377255Y-110969819D02*
X143710588Y-109969819D01*
X144615350Y-110874580D02*
X144567731Y-110922200D01*
X144567731Y-110922200D02*
X144424874Y-110969819D01*
X144424874Y-110969819D02*
X144329636Y-110969819D01*
X144329636Y-110969819D02*
X144186779Y-110922200D01*
X144186779Y-110922200D02*
X144091541Y-110826961D01*
X144091541Y-110826961D02*
X144043922Y-110731723D01*
X144043922Y-110731723D02*
X143996303Y-110541247D01*
X143996303Y-110541247D02*
X143996303Y-110398390D01*
X143996303Y-110398390D02*
X144043922Y-110207914D01*
X144043922Y-110207914D02*
X144091541Y-110112676D01*
X144091541Y-110112676D02*
X144186779Y-110017438D01*
X144186779Y-110017438D02*
X144329636Y-109969819D01*
X144329636Y-109969819D02*
X144424874Y-109969819D01*
X144424874Y-109969819D02*
X144567731Y-110017438D01*
X144567731Y-110017438D02*
X144615350Y-110065057D01*
X145615350Y-110874580D02*
X145567731Y-110922200D01*
X145567731Y-110922200D02*
X145424874Y-110969819D01*
X145424874Y-110969819D02*
X145329636Y-110969819D01*
X145329636Y-110969819D02*
X145186779Y-110922200D01*
X145186779Y-110922200D02*
X145091541Y-110826961D01*
X145091541Y-110826961D02*
X145043922Y-110731723D01*
X145043922Y-110731723D02*
X144996303Y-110541247D01*
X144996303Y-110541247D02*
X144996303Y-110398390D01*
X144996303Y-110398390D02*
X145043922Y-110207914D01*
X145043922Y-110207914D02*
X145091541Y-110112676D01*
X145091541Y-110112676D02*
X145186779Y-110017438D01*
X145186779Y-110017438D02*
X145329636Y-109969819D01*
X145329636Y-109969819D02*
X145424874Y-109969819D01*
X145424874Y-109969819D02*
X145567731Y-110017438D01*
X145567731Y-110017438D02*
X145615350Y-110065057D01*
X134360588Y-110969819D02*
X133789160Y-110969819D01*
X134074874Y-110969819D02*
X134074874Y-109969819D01*
X134074874Y-109969819D02*
X133979636Y-110112676D01*
X133979636Y-110112676D02*
X133884398Y-110207914D01*
X133884398Y-110207914D02*
X133789160Y-110255533D01*
X134741541Y-110065057D02*
X134789160Y-110017438D01*
X134789160Y-110017438D02*
X134884398Y-109969819D01*
X134884398Y-109969819D02*
X135122493Y-109969819D01*
X135122493Y-109969819D02*
X135217731Y-110017438D01*
X135217731Y-110017438D02*
X135265350Y-110065057D01*
X135265350Y-110065057D02*
X135312969Y-110160295D01*
X135312969Y-110160295D02*
X135312969Y-110255533D01*
X135312969Y-110255533D02*
X135265350Y-110398390D01*
X135265350Y-110398390D02*
X134693922Y-110969819D01*
X134693922Y-110969819D02*
X135312969Y-110969819D01*
X84239160Y-110015057D02*
X84286779Y-109967438D01*
X84286779Y-109967438D02*
X84382017Y-109919819D01*
X84382017Y-109919819D02*
X84620112Y-109919819D01*
X84620112Y-109919819D02*
X84715350Y-109967438D01*
X84715350Y-109967438D02*
X84762969Y-110015057D01*
X84762969Y-110015057D02*
X84810588Y-110110295D01*
X84810588Y-110110295D02*
X84810588Y-110205533D01*
X84810588Y-110205533D02*
X84762969Y-110348390D01*
X84762969Y-110348390D02*
X84191541Y-110919819D01*
X84191541Y-110919819D02*
X84810588Y-110919819D01*
X94665350Y-110253152D02*
X94665350Y-110919819D01*
X94427255Y-109872200D02*
X94189160Y-110586485D01*
X94189160Y-110586485D02*
X94808207Y-110586485D01*
X138193922Y-109969819D02*
X138527255Y-110969819D01*
X138527255Y-110969819D02*
X138860588Y-109969819D01*
X139765350Y-110874580D02*
X139717731Y-110922200D01*
X139717731Y-110922200D02*
X139574874Y-110969819D01*
X139574874Y-110969819D02*
X139479636Y-110969819D01*
X139479636Y-110969819D02*
X139336779Y-110922200D01*
X139336779Y-110922200D02*
X139241541Y-110826961D01*
X139241541Y-110826961D02*
X139193922Y-110731723D01*
X139193922Y-110731723D02*
X139146303Y-110541247D01*
X139146303Y-110541247D02*
X139146303Y-110398390D01*
X139146303Y-110398390D02*
X139193922Y-110207914D01*
X139193922Y-110207914D02*
X139241541Y-110112676D01*
X139241541Y-110112676D02*
X139336779Y-110017438D01*
X139336779Y-110017438D02*
X139479636Y-109969819D01*
X139479636Y-109969819D02*
X139574874Y-109969819D01*
X139574874Y-109969819D02*
X139717731Y-110017438D01*
X139717731Y-110017438D02*
X139765350Y-110065057D01*
X140765350Y-110874580D02*
X140717731Y-110922200D01*
X140717731Y-110922200D02*
X140574874Y-110969819D01*
X140574874Y-110969819D02*
X140479636Y-110969819D01*
X140479636Y-110969819D02*
X140336779Y-110922200D01*
X140336779Y-110922200D02*
X140241541Y-110826961D01*
X140241541Y-110826961D02*
X140193922Y-110731723D01*
X140193922Y-110731723D02*
X140146303Y-110541247D01*
X140146303Y-110541247D02*
X140146303Y-110398390D01*
X140146303Y-110398390D02*
X140193922Y-110207914D01*
X140193922Y-110207914D02*
X140241541Y-110112676D01*
X140241541Y-110112676D02*
X140336779Y-110017438D01*
X140336779Y-110017438D02*
X140479636Y-109969819D01*
X140479636Y-109969819D02*
X140574874Y-109969819D01*
X140574874Y-109969819D02*
X140717731Y-110017438D01*
X140717731Y-110017438D02*
X140765350Y-110065057D01*
X89291541Y-109969819D02*
X89910588Y-109969819D01*
X89910588Y-109969819D02*
X89577255Y-110350771D01*
X89577255Y-110350771D02*
X89720112Y-110350771D01*
X89720112Y-110350771D02*
X89815350Y-110398390D01*
X89815350Y-110398390D02*
X89862969Y-110446009D01*
X89862969Y-110446009D02*
X89910588Y-110541247D01*
X89910588Y-110541247D02*
X89910588Y-110779342D01*
X89910588Y-110779342D02*
X89862969Y-110874580D01*
X89862969Y-110874580D02*
X89815350Y-110922200D01*
X89815350Y-110922200D02*
X89720112Y-110969819D01*
X89720112Y-110969819D02*
X89434398Y-110969819D01*
X89434398Y-110969819D02*
X89339160Y-110922200D01*
X89339160Y-110922200D02*
X89291541Y-110874580D01*
X119284398Y-110919819D02*
X119474874Y-110919819D01*
X119474874Y-110919819D02*
X119570112Y-110872200D01*
X119570112Y-110872200D02*
X119617731Y-110824580D01*
X119617731Y-110824580D02*
X119712969Y-110681723D01*
X119712969Y-110681723D02*
X119760588Y-110491247D01*
X119760588Y-110491247D02*
X119760588Y-110110295D01*
X119760588Y-110110295D02*
X119712969Y-110015057D01*
X119712969Y-110015057D02*
X119665350Y-109967438D01*
X119665350Y-109967438D02*
X119570112Y-109919819D01*
X119570112Y-109919819D02*
X119379636Y-109919819D01*
X119379636Y-109919819D02*
X119284398Y-109967438D01*
X119284398Y-109967438D02*
X119236779Y-110015057D01*
X119236779Y-110015057D02*
X119189160Y-110110295D01*
X119189160Y-110110295D02*
X119189160Y-110348390D01*
X119189160Y-110348390D02*
X119236779Y-110443628D01*
X119236779Y-110443628D02*
X119284398Y-110491247D01*
X119284398Y-110491247D02*
X119379636Y-110538866D01*
X119379636Y-110538866D02*
X119570112Y-110538866D01*
X119570112Y-110538866D02*
X119665350Y-110491247D01*
X119665350Y-110491247D02*
X119712969Y-110443628D01*
X119712969Y-110443628D02*
X119760588Y-110348390D01*
X124410588Y-110919819D02*
X123839160Y-110919819D01*
X124124874Y-110919819D02*
X124124874Y-109919819D01*
X124124874Y-109919819D02*
X124029636Y-110062676D01*
X124029636Y-110062676D02*
X123934398Y-110157914D01*
X123934398Y-110157914D02*
X123839160Y-110205533D01*
X125029636Y-109919819D02*
X125124874Y-109919819D01*
X125124874Y-109919819D02*
X125220112Y-109967438D01*
X125220112Y-109967438D02*
X125267731Y-110015057D01*
X125267731Y-110015057D02*
X125315350Y-110110295D01*
X125315350Y-110110295D02*
X125362969Y-110300771D01*
X125362969Y-110300771D02*
X125362969Y-110538866D01*
X125362969Y-110538866D02*
X125315350Y-110729342D01*
X125315350Y-110729342D02*
X125267731Y-110824580D01*
X125267731Y-110824580D02*
X125220112Y-110872200D01*
X125220112Y-110872200D02*
X125124874Y-110919819D01*
X125124874Y-110919819D02*
X125029636Y-110919819D01*
X125029636Y-110919819D02*
X124934398Y-110872200D01*
X124934398Y-110872200D02*
X124886779Y-110824580D01*
X124886779Y-110824580D02*
X124839160Y-110729342D01*
X124839160Y-110729342D02*
X124791541Y-110538866D01*
X124791541Y-110538866D02*
X124791541Y-110300771D01*
X124791541Y-110300771D02*
X124839160Y-110110295D01*
X124839160Y-110110295D02*
X124886779Y-110015057D01*
X124886779Y-110015057D02*
X124934398Y-109967438D01*
X124934398Y-109967438D02*
X125029636Y-109919819D01*
X104965350Y-109919819D02*
X104774874Y-109919819D01*
X104774874Y-109919819D02*
X104679636Y-109967438D01*
X104679636Y-109967438D02*
X104632017Y-110015057D01*
X104632017Y-110015057D02*
X104536779Y-110157914D01*
X104536779Y-110157914D02*
X104489160Y-110348390D01*
X104489160Y-110348390D02*
X104489160Y-110729342D01*
X104489160Y-110729342D02*
X104536779Y-110824580D01*
X104536779Y-110824580D02*
X104584398Y-110872200D01*
X104584398Y-110872200D02*
X104679636Y-110919819D01*
X104679636Y-110919819D02*
X104870112Y-110919819D01*
X104870112Y-110919819D02*
X104965350Y-110872200D01*
X104965350Y-110872200D02*
X105012969Y-110824580D01*
X105012969Y-110824580D02*
X105060588Y-110729342D01*
X105060588Y-110729342D02*
X105060588Y-110491247D01*
X105060588Y-110491247D02*
X105012969Y-110396009D01*
X105012969Y-110396009D02*
X104965350Y-110348390D01*
X104965350Y-110348390D02*
X104870112Y-110300771D01*
X104870112Y-110300771D02*
X104679636Y-110300771D01*
X104679636Y-110300771D02*
X104584398Y-110348390D01*
X104584398Y-110348390D02*
X104536779Y-110396009D01*
X104536779Y-110396009D02*
X104489160Y-110491247D01*
X109291541Y-109919819D02*
X109958207Y-109919819D01*
X109958207Y-109919819D02*
X109529636Y-110919819D01*
X79710588Y-110969819D02*
X79139160Y-110969819D01*
X79424874Y-110969819D02*
X79424874Y-109969819D01*
X79424874Y-109969819D02*
X79329636Y-110112676D01*
X79329636Y-110112676D02*
X79234398Y-110207914D01*
X79234398Y-110207914D02*
X79139160Y-110255533D01*
X129410588Y-110919819D02*
X128839160Y-110919819D01*
X129124874Y-110919819D02*
X129124874Y-109919819D01*
X129124874Y-109919819D02*
X129029636Y-110062676D01*
X129029636Y-110062676D02*
X128934398Y-110157914D01*
X128934398Y-110157914D02*
X128839160Y-110205533D01*
X130362969Y-110919819D02*
X129791541Y-110919819D01*
X130077255Y-110919819D02*
X130077255Y-109919819D01*
X130077255Y-109919819D02*
X129982017Y-110062676D01*
X129982017Y-110062676D02*
X129886779Y-110157914D01*
X129886779Y-110157914D02*
X129791541Y-110205533D01*
X148910588Y-110017438D02*
X148815350Y-109969819D01*
X148815350Y-109969819D02*
X148672493Y-109969819D01*
X148672493Y-109969819D02*
X148529636Y-110017438D01*
X148529636Y-110017438D02*
X148434398Y-110112676D01*
X148434398Y-110112676D02*
X148386779Y-110207914D01*
X148386779Y-110207914D02*
X148339160Y-110398390D01*
X148339160Y-110398390D02*
X148339160Y-110541247D01*
X148339160Y-110541247D02*
X148386779Y-110731723D01*
X148386779Y-110731723D02*
X148434398Y-110826961D01*
X148434398Y-110826961D02*
X148529636Y-110922200D01*
X148529636Y-110922200D02*
X148672493Y-110969819D01*
X148672493Y-110969819D02*
X148767731Y-110969819D01*
X148767731Y-110969819D02*
X148910588Y-110922200D01*
X148910588Y-110922200D02*
X148958207Y-110874580D01*
X148958207Y-110874580D02*
X148958207Y-110541247D01*
X148958207Y-110541247D02*
X148767731Y-110541247D01*
X149386779Y-110969819D02*
X149386779Y-109969819D01*
X149386779Y-109969819D02*
X149958207Y-110969819D01*
X149958207Y-110969819D02*
X149958207Y-109969819D01*
X150434398Y-110969819D02*
X150434398Y-109969819D01*
X150434398Y-109969819D02*
X150672493Y-109969819D01*
X150672493Y-109969819D02*
X150815350Y-110017438D01*
X150815350Y-110017438D02*
X150910588Y-110112676D01*
X150910588Y-110112676D02*
X150958207Y-110207914D01*
X150958207Y-110207914D02*
X151005826Y-110398390D01*
X151005826Y-110398390D02*
X151005826Y-110541247D01*
X151005826Y-110541247D02*
X150958207Y-110731723D01*
X150958207Y-110731723D02*
X150910588Y-110826961D01*
X150910588Y-110826961D02*
X150815350Y-110922200D01*
X150815350Y-110922200D02*
X150672493Y-110969819D01*
X150672493Y-110969819D02*
X150434398Y-110969819D01*
X149157142Y-67104819D02*
X148823809Y-66628628D01*
X148585714Y-67104819D02*
X148585714Y-66104819D01*
X148585714Y-66104819D02*
X148966666Y-66104819D01*
X148966666Y-66104819D02*
X149061904Y-66152438D01*
X149061904Y-66152438D02*
X149109523Y-66200057D01*
X149109523Y-66200057D02*
X149157142Y-66295295D01*
X149157142Y-66295295D02*
X149157142Y-66438152D01*
X149157142Y-66438152D02*
X149109523Y-66533390D01*
X149109523Y-66533390D02*
X149061904Y-66581009D01*
X149061904Y-66581009D02*
X148966666Y-66628628D01*
X148966666Y-66628628D02*
X148585714Y-66628628D01*
X149538095Y-66200057D02*
X149585714Y-66152438D01*
X149585714Y-66152438D02*
X149680952Y-66104819D01*
X149680952Y-66104819D02*
X149919047Y-66104819D01*
X149919047Y-66104819D02*
X150014285Y-66152438D01*
X150014285Y-66152438D02*
X150061904Y-66200057D01*
X150061904Y-66200057D02*
X150109523Y-66295295D01*
X150109523Y-66295295D02*
X150109523Y-66390533D01*
X150109523Y-66390533D02*
X150061904Y-66533390D01*
X150061904Y-66533390D02*
X149490476Y-67104819D01*
X149490476Y-67104819D02*
X150109523Y-67104819D01*
X150966666Y-66104819D02*
X150776190Y-66104819D01*
X150776190Y-66104819D02*
X150680952Y-66152438D01*
X150680952Y-66152438D02*
X150633333Y-66200057D01*
X150633333Y-66200057D02*
X150538095Y-66342914D01*
X150538095Y-66342914D02*
X150490476Y-66533390D01*
X150490476Y-66533390D02*
X150490476Y-66914342D01*
X150490476Y-66914342D02*
X150538095Y-67009580D01*
X150538095Y-67009580D02*
X150585714Y-67057200D01*
X150585714Y-67057200D02*
X150680952Y-67104819D01*
X150680952Y-67104819D02*
X150871428Y-67104819D01*
X150871428Y-67104819D02*
X150966666Y-67057200D01*
X150966666Y-67057200D02*
X151014285Y-67009580D01*
X151014285Y-67009580D02*
X151061904Y-66914342D01*
X151061904Y-66914342D02*
X151061904Y-66676247D01*
X151061904Y-66676247D02*
X151014285Y-66581009D01*
X151014285Y-66581009D02*
X150966666Y-66533390D01*
X150966666Y-66533390D02*
X150871428Y-66485771D01*
X150871428Y-66485771D02*
X150680952Y-66485771D01*
X150680952Y-66485771D02*
X150585714Y-66533390D01*
X150585714Y-66533390D02*
X150538095Y-66581009D01*
X150538095Y-66581009D02*
X150490476Y-66676247D01*
X82055809Y-85554819D02*
X81722476Y-85078628D01*
X81484381Y-85554819D02*
X81484381Y-84554819D01*
X81484381Y-84554819D02*
X81865333Y-84554819D01*
X81865333Y-84554819D02*
X81960571Y-84602438D01*
X81960571Y-84602438D02*
X82008190Y-84650057D01*
X82008190Y-84650057D02*
X82055809Y-84745295D01*
X82055809Y-84745295D02*
X82055809Y-84888152D01*
X82055809Y-84888152D02*
X82008190Y-84983390D01*
X82008190Y-84983390D02*
X81960571Y-85031009D01*
X81960571Y-85031009D02*
X81865333Y-85078628D01*
X81865333Y-85078628D02*
X81484381Y-85078628D01*
X82532000Y-85554819D02*
X82722476Y-85554819D01*
X82722476Y-85554819D02*
X82817714Y-85507200D01*
X82817714Y-85507200D02*
X82865333Y-85459580D01*
X82865333Y-85459580D02*
X82960571Y-85316723D01*
X82960571Y-85316723D02*
X83008190Y-85126247D01*
X83008190Y-85126247D02*
X83008190Y-84745295D01*
X83008190Y-84745295D02*
X82960571Y-84650057D01*
X82960571Y-84650057D02*
X82912952Y-84602438D01*
X82912952Y-84602438D02*
X82817714Y-84554819D01*
X82817714Y-84554819D02*
X82627238Y-84554819D01*
X82627238Y-84554819D02*
X82532000Y-84602438D01*
X82532000Y-84602438D02*
X82484381Y-84650057D01*
X82484381Y-84650057D02*
X82436762Y-84745295D01*
X82436762Y-84745295D02*
X82436762Y-84983390D01*
X82436762Y-84983390D02*
X82484381Y-85078628D01*
X82484381Y-85078628D02*
X82532000Y-85126247D01*
X82532000Y-85126247D02*
X82627238Y-85173866D01*
X82627238Y-85173866D02*
X82817714Y-85173866D01*
X82817714Y-85173866D02*
X82912952Y-85126247D01*
X82912952Y-85126247D02*
X82960571Y-85078628D01*
X82960571Y-85078628D02*
X83008190Y-84983390D01*
X150279618Y-85579819D02*
X149946285Y-85103628D01*
X149708190Y-85579819D02*
X149708190Y-84579819D01*
X149708190Y-84579819D02*
X150089142Y-84579819D01*
X150089142Y-84579819D02*
X150184380Y-84627438D01*
X150184380Y-84627438D02*
X150231999Y-84675057D01*
X150231999Y-84675057D02*
X150279618Y-84770295D01*
X150279618Y-84770295D02*
X150279618Y-84913152D01*
X150279618Y-84913152D02*
X150231999Y-85008390D01*
X150231999Y-85008390D02*
X150184380Y-85056009D01*
X150184380Y-85056009D02*
X150089142Y-85103628D01*
X150089142Y-85103628D02*
X149708190Y-85103628D01*
X150660571Y-84675057D02*
X150708190Y-84627438D01*
X150708190Y-84627438D02*
X150803428Y-84579819D01*
X150803428Y-84579819D02*
X151041523Y-84579819D01*
X151041523Y-84579819D02*
X151136761Y-84627438D01*
X151136761Y-84627438D02*
X151184380Y-84675057D01*
X151184380Y-84675057D02*
X151231999Y-84770295D01*
X151231999Y-84770295D02*
X151231999Y-84865533D01*
X151231999Y-84865533D02*
X151184380Y-85008390D01*
X151184380Y-85008390D02*
X150612952Y-85579819D01*
X150612952Y-85579819D02*
X151231999Y-85579819D01*
X151612952Y-84675057D02*
X151660571Y-84627438D01*
X151660571Y-84627438D02*
X151755809Y-84579819D01*
X151755809Y-84579819D02*
X151993904Y-84579819D01*
X151993904Y-84579819D02*
X152089142Y-84627438D01*
X152089142Y-84627438D02*
X152136761Y-84675057D01*
X152136761Y-84675057D02*
X152184380Y-84770295D01*
X152184380Y-84770295D02*
X152184380Y-84865533D01*
X152184380Y-84865533D02*
X152136761Y-85008390D01*
X152136761Y-85008390D02*
X151565333Y-85579819D01*
X151565333Y-85579819D02*
X152184380Y-85579819D01*
X126129618Y-85654819D02*
X125796285Y-85178628D01*
X125558190Y-85654819D02*
X125558190Y-84654819D01*
X125558190Y-84654819D02*
X125939142Y-84654819D01*
X125939142Y-84654819D02*
X126034380Y-84702438D01*
X126034380Y-84702438D02*
X126081999Y-84750057D01*
X126081999Y-84750057D02*
X126129618Y-84845295D01*
X126129618Y-84845295D02*
X126129618Y-84988152D01*
X126129618Y-84988152D02*
X126081999Y-85083390D01*
X126081999Y-85083390D02*
X126034380Y-85131009D01*
X126034380Y-85131009D02*
X125939142Y-85178628D01*
X125939142Y-85178628D02*
X125558190Y-85178628D01*
X127081999Y-85654819D02*
X126510571Y-85654819D01*
X126796285Y-85654819D02*
X126796285Y-84654819D01*
X126796285Y-84654819D02*
X126701047Y-84797676D01*
X126701047Y-84797676D02*
X126605809Y-84892914D01*
X126605809Y-84892914D02*
X126510571Y-84940533D01*
X127939142Y-84988152D02*
X127939142Y-85654819D01*
X127701047Y-84607200D02*
X127462952Y-85321485D01*
X127462952Y-85321485D02*
X128081999Y-85321485D01*
X135929618Y-85579819D02*
X135596285Y-85103628D01*
X135358190Y-85579819D02*
X135358190Y-84579819D01*
X135358190Y-84579819D02*
X135739142Y-84579819D01*
X135739142Y-84579819D02*
X135834380Y-84627438D01*
X135834380Y-84627438D02*
X135881999Y-84675057D01*
X135881999Y-84675057D02*
X135929618Y-84770295D01*
X135929618Y-84770295D02*
X135929618Y-84913152D01*
X135929618Y-84913152D02*
X135881999Y-85008390D01*
X135881999Y-85008390D02*
X135834380Y-85056009D01*
X135834380Y-85056009D02*
X135739142Y-85103628D01*
X135739142Y-85103628D02*
X135358190Y-85103628D01*
X136881999Y-85579819D02*
X136310571Y-85579819D01*
X136596285Y-85579819D02*
X136596285Y-84579819D01*
X136596285Y-84579819D02*
X136501047Y-84722676D01*
X136501047Y-84722676D02*
X136405809Y-84817914D01*
X136405809Y-84817914D02*
X136310571Y-84865533D01*
X137786761Y-84579819D02*
X137310571Y-84579819D01*
X137310571Y-84579819D02*
X137262952Y-85056009D01*
X137262952Y-85056009D02*
X137310571Y-85008390D01*
X137310571Y-85008390D02*
X137405809Y-84960771D01*
X137405809Y-84960771D02*
X137643904Y-84960771D01*
X137643904Y-84960771D02*
X137739142Y-85008390D01*
X137739142Y-85008390D02*
X137786761Y-85056009D01*
X137786761Y-85056009D02*
X137834380Y-85151247D01*
X137834380Y-85151247D02*
X137834380Y-85389342D01*
X137834380Y-85389342D02*
X137786761Y-85484580D01*
X137786761Y-85484580D02*
X137739142Y-85532200D01*
X137739142Y-85532200D02*
X137643904Y-85579819D01*
X137643904Y-85579819D02*
X137405809Y-85579819D01*
X137405809Y-85579819D02*
X137310571Y-85532200D01*
X137310571Y-85532200D02*
X137262952Y-85484580D01*
X75033333Y-52709580D02*
X74985714Y-52757200D01*
X74985714Y-52757200D02*
X74842857Y-52804819D01*
X74842857Y-52804819D02*
X74747619Y-52804819D01*
X74747619Y-52804819D02*
X74604762Y-52757200D01*
X74604762Y-52757200D02*
X74509524Y-52661961D01*
X74509524Y-52661961D02*
X74461905Y-52566723D01*
X74461905Y-52566723D02*
X74414286Y-52376247D01*
X74414286Y-52376247D02*
X74414286Y-52233390D01*
X74414286Y-52233390D02*
X74461905Y-52042914D01*
X74461905Y-52042914D02*
X74509524Y-51947676D01*
X74509524Y-51947676D02*
X74604762Y-51852438D01*
X74604762Y-51852438D02*
X74747619Y-51804819D01*
X74747619Y-51804819D02*
X74842857Y-51804819D01*
X74842857Y-51804819D02*
X74985714Y-51852438D01*
X74985714Y-51852438D02*
X75033333Y-51900057D01*
X75604762Y-52233390D02*
X75509524Y-52185771D01*
X75509524Y-52185771D02*
X75461905Y-52138152D01*
X75461905Y-52138152D02*
X75414286Y-52042914D01*
X75414286Y-52042914D02*
X75414286Y-51995295D01*
X75414286Y-51995295D02*
X75461905Y-51900057D01*
X75461905Y-51900057D02*
X75509524Y-51852438D01*
X75509524Y-51852438D02*
X75604762Y-51804819D01*
X75604762Y-51804819D02*
X75795238Y-51804819D01*
X75795238Y-51804819D02*
X75890476Y-51852438D01*
X75890476Y-51852438D02*
X75938095Y-51900057D01*
X75938095Y-51900057D02*
X75985714Y-51995295D01*
X75985714Y-51995295D02*
X75985714Y-52042914D01*
X75985714Y-52042914D02*
X75938095Y-52138152D01*
X75938095Y-52138152D02*
X75890476Y-52185771D01*
X75890476Y-52185771D02*
X75795238Y-52233390D01*
X75795238Y-52233390D02*
X75604762Y-52233390D01*
X75604762Y-52233390D02*
X75509524Y-52281009D01*
X75509524Y-52281009D02*
X75461905Y-52328628D01*
X75461905Y-52328628D02*
X75414286Y-52423866D01*
X75414286Y-52423866D02*
X75414286Y-52614342D01*
X75414286Y-52614342D02*
X75461905Y-52709580D01*
X75461905Y-52709580D02*
X75509524Y-52757200D01*
X75509524Y-52757200D02*
X75604762Y-52804819D01*
X75604762Y-52804819D02*
X75795238Y-52804819D01*
X75795238Y-52804819D02*
X75890476Y-52757200D01*
X75890476Y-52757200D02*
X75938095Y-52709580D01*
X75938095Y-52709580D02*
X75985714Y-52614342D01*
X75985714Y-52614342D02*
X75985714Y-52423866D01*
X75985714Y-52423866D02*
X75938095Y-52328628D01*
X75938095Y-52328628D02*
X75890476Y-52281009D01*
X75890476Y-52281009D02*
X75795238Y-52233390D01*
X128184381Y-105304819D02*
X128184381Y-104304819D01*
X128184381Y-104304819D02*
X128422476Y-104304819D01*
X128422476Y-104304819D02*
X128565333Y-104352438D01*
X128565333Y-104352438D02*
X128660571Y-104447676D01*
X128660571Y-104447676D02*
X128708190Y-104542914D01*
X128708190Y-104542914D02*
X128755809Y-104733390D01*
X128755809Y-104733390D02*
X128755809Y-104876247D01*
X128755809Y-104876247D02*
X128708190Y-105066723D01*
X128708190Y-105066723D02*
X128660571Y-105161961D01*
X128660571Y-105161961D02*
X128565333Y-105257200D01*
X128565333Y-105257200D02*
X128422476Y-105304819D01*
X128422476Y-105304819D02*
X128184381Y-105304819D01*
X129327238Y-104733390D02*
X129232000Y-104685771D01*
X129232000Y-104685771D02*
X129184381Y-104638152D01*
X129184381Y-104638152D02*
X129136762Y-104542914D01*
X129136762Y-104542914D02*
X129136762Y-104495295D01*
X129136762Y-104495295D02*
X129184381Y-104400057D01*
X129184381Y-104400057D02*
X129232000Y-104352438D01*
X129232000Y-104352438D02*
X129327238Y-104304819D01*
X129327238Y-104304819D02*
X129517714Y-104304819D01*
X129517714Y-104304819D02*
X129612952Y-104352438D01*
X129612952Y-104352438D02*
X129660571Y-104400057D01*
X129660571Y-104400057D02*
X129708190Y-104495295D01*
X129708190Y-104495295D02*
X129708190Y-104542914D01*
X129708190Y-104542914D02*
X129660571Y-104638152D01*
X129660571Y-104638152D02*
X129612952Y-104685771D01*
X129612952Y-104685771D02*
X129517714Y-104733390D01*
X129517714Y-104733390D02*
X129327238Y-104733390D01*
X129327238Y-104733390D02*
X129232000Y-104781009D01*
X129232000Y-104781009D02*
X129184381Y-104828628D01*
X129184381Y-104828628D02*
X129136762Y-104923866D01*
X129136762Y-104923866D02*
X129136762Y-105114342D01*
X129136762Y-105114342D02*
X129184381Y-105209580D01*
X129184381Y-105209580D02*
X129232000Y-105257200D01*
X129232000Y-105257200D02*
X129327238Y-105304819D01*
X129327238Y-105304819D02*
X129517714Y-105304819D01*
X129517714Y-105304819D02*
X129612952Y-105257200D01*
X129612952Y-105257200D02*
X129660571Y-105209580D01*
X129660571Y-105209580D02*
X129708190Y-105114342D01*
X129708190Y-105114342D02*
X129708190Y-104923866D01*
X129708190Y-104923866D02*
X129660571Y-104828628D01*
X129660571Y-104828628D02*
X129612952Y-104781009D01*
X129612952Y-104781009D02*
X129517714Y-104733390D01*
X118384381Y-105354819D02*
X118384381Y-104354819D01*
X118384381Y-104354819D02*
X118622476Y-104354819D01*
X118622476Y-104354819D02*
X118765333Y-104402438D01*
X118765333Y-104402438D02*
X118860571Y-104497676D01*
X118860571Y-104497676D02*
X118908190Y-104592914D01*
X118908190Y-104592914D02*
X118955809Y-104783390D01*
X118955809Y-104783390D02*
X118955809Y-104926247D01*
X118955809Y-104926247D02*
X118908190Y-105116723D01*
X118908190Y-105116723D02*
X118860571Y-105211961D01*
X118860571Y-105211961D02*
X118765333Y-105307200D01*
X118765333Y-105307200D02*
X118622476Y-105354819D01*
X118622476Y-105354819D02*
X118384381Y-105354819D01*
X119289143Y-104354819D02*
X119955809Y-104354819D01*
X119955809Y-104354819D02*
X119527238Y-105354819D01*
X122733333Y-66559580D02*
X122685714Y-66607200D01*
X122685714Y-66607200D02*
X122542857Y-66654819D01*
X122542857Y-66654819D02*
X122447619Y-66654819D01*
X122447619Y-66654819D02*
X122304762Y-66607200D01*
X122304762Y-66607200D02*
X122209524Y-66511961D01*
X122209524Y-66511961D02*
X122161905Y-66416723D01*
X122161905Y-66416723D02*
X122114286Y-66226247D01*
X122114286Y-66226247D02*
X122114286Y-66083390D01*
X122114286Y-66083390D02*
X122161905Y-65892914D01*
X122161905Y-65892914D02*
X122209524Y-65797676D01*
X122209524Y-65797676D02*
X122304762Y-65702438D01*
X122304762Y-65702438D02*
X122447619Y-65654819D01*
X122447619Y-65654819D02*
X122542857Y-65654819D01*
X122542857Y-65654819D02*
X122685714Y-65702438D01*
X122685714Y-65702438D02*
X122733333Y-65750057D01*
X123114286Y-65750057D02*
X123161905Y-65702438D01*
X123161905Y-65702438D02*
X123257143Y-65654819D01*
X123257143Y-65654819D02*
X123495238Y-65654819D01*
X123495238Y-65654819D02*
X123590476Y-65702438D01*
X123590476Y-65702438D02*
X123638095Y-65750057D01*
X123638095Y-65750057D02*
X123685714Y-65845295D01*
X123685714Y-65845295D02*
X123685714Y-65940533D01*
X123685714Y-65940533D02*
X123638095Y-66083390D01*
X123638095Y-66083390D02*
X123066667Y-66654819D01*
X123066667Y-66654819D02*
X123685714Y-66654819D01*
X76775595Y-61754819D02*
X76775595Y-62564342D01*
X76775595Y-62564342D02*
X76823214Y-62659580D01*
X76823214Y-62659580D02*
X76870833Y-62707200D01*
X76870833Y-62707200D02*
X76966071Y-62754819D01*
X76966071Y-62754819D02*
X77156547Y-62754819D01*
X77156547Y-62754819D02*
X77251785Y-62707200D01*
X77251785Y-62707200D02*
X77299404Y-62659580D01*
X77299404Y-62659580D02*
X77347023Y-62564342D01*
X77347023Y-62564342D02*
X77347023Y-61754819D01*
X78347023Y-62754819D02*
X77775595Y-62754819D01*
X78061309Y-62754819D02*
X78061309Y-61754819D01*
X78061309Y-61754819D02*
X77966071Y-61897676D01*
X77966071Y-61897676D02*
X77870833Y-61992914D01*
X77870833Y-61992914D02*
X77775595Y-62040533D01*
X109329761Y-93475057D02*
X109234523Y-93427438D01*
X109234523Y-93427438D02*
X109139285Y-93332200D01*
X109139285Y-93332200D02*
X108996428Y-93189342D01*
X108996428Y-93189342D02*
X108901190Y-93141723D01*
X108901190Y-93141723D02*
X108805952Y-93141723D01*
X108853571Y-93379819D02*
X108758333Y-93332200D01*
X108758333Y-93332200D02*
X108663095Y-93236961D01*
X108663095Y-93236961D02*
X108615476Y-93046485D01*
X108615476Y-93046485D02*
X108615476Y-92713152D01*
X108615476Y-92713152D02*
X108663095Y-92522676D01*
X108663095Y-92522676D02*
X108758333Y-92427438D01*
X108758333Y-92427438D02*
X108853571Y-92379819D01*
X108853571Y-92379819D02*
X109044047Y-92379819D01*
X109044047Y-92379819D02*
X109139285Y-92427438D01*
X109139285Y-92427438D02*
X109234523Y-92522676D01*
X109234523Y-92522676D02*
X109282142Y-92713152D01*
X109282142Y-92713152D02*
X109282142Y-93046485D01*
X109282142Y-93046485D02*
X109234523Y-93236961D01*
X109234523Y-93236961D02*
X109139285Y-93332200D01*
X109139285Y-93332200D02*
X109044047Y-93379819D01*
X109044047Y-93379819D02*
X108853571Y-93379819D01*
X110139285Y-92379819D02*
X109948809Y-92379819D01*
X109948809Y-92379819D02*
X109853571Y-92427438D01*
X109853571Y-92427438D02*
X109805952Y-92475057D01*
X109805952Y-92475057D02*
X109710714Y-92617914D01*
X109710714Y-92617914D02*
X109663095Y-92808390D01*
X109663095Y-92808390D02*
X109663095Y-93189342D01*
X109663095Y-93189342D02*
X109710714Y-93284580D01*
X109710714Y-93284580D02*
X109758333Y-93332200D01*
X109758333Y-93332200D02*
X109853571Y-93379819D01*
X109853571Y-93379819D02*
X110044047Y-93379819D01*
X110044047Y-93379819D02*
X110139285Y-93332200D01*
X110139285Y-93332200D02*
X110186904Y-93284580D01*
X110186904Y-93284580D02*
X110234523Y-93189342D01*
X110234523Y-93189342D02*
X110234523Y-92951247D01*
X110234523Y-92951247D02*
X110186904Y-92856009D01*
X110186904Y-92856009D02*
X110139285Y-92808390D01*
X110139285Y-92808390D02*
X110044047Y-92760771D01*
X110044047Y-92760771D02*
X109853571Y-92760771D01*
X109853571Y-92760771D02*
X109758333Y-92808390D01*
X109758333Y-92808390D02*
X109710714Y-92856009D01*
X109710714Y-92856009D02*
X109663095Y-92951247D01*
X140479618Y-85554819D02*
X140146285Y-85078628D01*
X139908190Y-85554819D02*
X139908190Y-84554819D01*
X139908190Y-84554819D02*
X140289142Y-84554819D01*
X140289142Y-84554819D02*
X140384380Y-84602438D01*
X140384380Y-84602438D02*
X140431999Y-84650057D01*
X140431999Y-84650057D02*
X140479618Y-84745295D01*
X140479618Y-84745295D02*
X140479618Y-84888152D01*
X140479618Y-84888152D02*
X140431999Y-84983390D01*
X140431999Y-84983390D02*
X140384380Y-85031009D01*
X140384380Y-85031009D02*
X140289142Y-85078628D01*
X140289142Y-85078628D02*
X139908190Y-85078628D01*
X140860571Y-84650057D02*
X140908190Y-84602438D01*
X140908190Y-84602438D02*
X141003428Y-84554819D01*
X141003428Y-84554819D02*
X141241523Y-84554819D01*
X141241523Y-84554819D02*
X141336761Y-84602438D01*
X141336761Y-84602438D02*
X141384380Y-84650057D01*
X141384380Y-84650057D02*
X141431999Y-84745295D01*
X141431999Y-84745295D02*
X141431999Y-84840533D01*
X141431999Y-84840533D02*
X141384380Y-84983390D01*
X141384380Y-84983390D02*
X140812952Y-85554819D01*
X140812952Y-85554819D02*
X141431999Y-85554819D01*
X142384380Y-85554819D02*
X141812952Y-85554819D01*
X142098666Y-85554819D02*
X142098666Y-84554819D01*
X142098666Y-84554819D02*
X142003428Y-84697676D01*
X142003428Y-84697676D02*
X141908190Y-84792914D01*
X141908190Y-84792914D02*
X141812952Y-84840533D01*
X72255809Y-85604819D02*
X71922476Y-85128628D01*
X71684381Y-85604819D02*
X71684381Y-84604819D01*
X71684381Y-84604819D02*
X72065333Y-84604819D01*
X72065333Y-84604819D02*
X72160571Y-84652438D01*
X72160571Y-84652438D02*
X72208190Y-84700057D01*
X72208190Y-84700057D02*
X72255809Y-84795295D01*
X72255809Y-84795295D02*
X72255809Y-84938152D01*
X72255809Y-84938152D02*
X72208190Y-85033390D01*
X72208190Y-85033390D02*
X72160571Y-85081009D01*
X72160571Y-85081009D02*
X72065333Y-85128628D01*
X72065333Y-85128628D02*
X71684381Y-85128628D01*
X72827238Y-85033390D02*
X72732000Y-84985771D01*
X72732000Y-84985771D02*
X72684381Y-84938152D01*
X72684381Y-84938152D02*
X72636762Y-84842914D01*
X72636762Y-84842914D02*
X72636762Y-84795295D01*
X72636762Y-84795295D02*
X72684381Y-84700057D01*
X72684381Y-84700057D02*
X72732000Y-84652438D01*
X72732000Y-84652438D02*
X72827238Y-84604819D01*
X72827238Y-84604819D02*
X73017714Y-84604819D01*
X73017714Y-84604819D02*
X73112952Y-84652438D01*
X73112952Y-84652438D02*
X73160571Y-84700057D01*
X73160571Y-84700057D02*
X73208190Y-84795295D01*
X73208190Y-84795295D02*
X73208190Y-84842914D01*
X73208190Y-84842914D02*
X73160571Y-84938152D01*
X73160571Y-84938152D02*
X73112952Y-84985771D01*
X73112952Y-84985771D02*
X73017714Y-85033390D01*
X73017714Y-85033390D02*
X72827238Y-85033390D01*
X72827238Y-85033390D02*
X72732000Y-85081009D01*
X72732000Y-85081009D02*
X72684381Y-85128628D01*
X72684381Y-85128628D02*
X72636762Y-85223866D01*
X72636762Y-85223866D02*
X72636762Y-85414342D01*
X72636762Y-85414342D02*
X72684381Y-85509580D01*
X72684381Y-85509580D02*
X72732000Y-85557200D01*
X72732000Y-85557200D02*
X72827238Y-85604819D01*
X72827238Y-85604819D02*
X73017714Y-85604819D01*
X73017714Y-85604819D02*
X73112952Y-85557200D01*
X73112952Y-85557200D02*
X73160571Y-85509580D01*
X73160571Y-85509580D02*
X73208190Y-85414342D01*
X73208190Y-85414342D02*
X73208190Y-85223866D01*
X73208190Y-85223866D02*
X73160571Y-85128628D01*
X73160571Y-85128628D02*
X73112952Y-85081009D01*
X73112952Y-85081009D02*
X73017714Y-85033390D01*
X147508190Y-105304819D02*
X147508190Y-104304819D01*
X147508190Y-104304819D02*
X147746285Y-104304819D01*
X147746285Y-104304819D02*
X147889142Y-104352438D01*
X147889142Y-104352438D02*
X147984380Y-104447676D01*
X147984380Y-104447676D02*
X148031999Y-104542914D01*
X148031999Y-104542914D02*
X148079618Y-104733390D01*
X148079618Y-104733390D02*
X148079618Y-104876247D01*
X148079618Y-104876247D02*
X148031999Y-105066723D01*
X148031999Y-105066723D02*
X147984380Y-105161961D01*
X147984380Y-105161961D02*
X147889142Y-105257200D01*
X147889142Y-105257200D02*
X147746285Y-105304819D01*
X147746285Y-105304819D02*
X147508190Y-105304819D01*
X149031999Y-105304819D02*
X148460571Y-105304819D01*
X148746285Y-105304819D02*
X148746285Y-104304819D01*
X148746285Y-104304819D02*
X148651047Y-104447676D01*
X148651047Y-104447676D02*
X148555809Y-104542914D01*
X148555809Y-104542914D02*
X148460571Y-104590533D01*
X149651047Y-104304819D02*
X149746285Y-104304819D01*
X149746285Y-104304819D02*
X149841523Y-104352438D01*
X149841523Y-104352438D02*
X149889142Y-104400057D01*
X149889142Y-104400057D02*
X149936761Y-104495295D01*
X149936761Y-104495295D02*
X149984380Y-104685771D01*
X149984380Y-104685771D02*
X149984380Y-104923866D01*
X149984380Y-104923866D02*
X149936761Y-105114342D01*
X149936761Y-105114342D02*
X149889142Y-105209580D01*
X149889142Y-105209580D02*
X149841523Y-105257200D01*
X149841523Y-105257200D02*
X149746285Y-105304819D01*
X149746285Y-105304819D02*
X149651047Y-105304819D01*
X149651047Y-105304819D02*
X149555809Y-105257200D01*
X149555809Y-105257200D02*
X149508190Y-105209580D01*
X149508190Y-105209580D02*
X149460571Y-105114342D01*
X149460571Y-105114342D02*
X149412952Y-104923866D01*
X149412952Y-104923866D02*
X149412952Y-104685771D01*
X149412952Y-104685771D02*
X149460571Y-104495295D01*
X149460571Y-104495295D02*
X149508190Y-104400057D01*
X149508190Y-104400057D02*
X149555809Y-104352438D01*
X149555809Y-104352438D02*
X149651047Y-104304819D01*
X167753571Y-93625057D02*
X167658333Y-93577438D01*
X167658333Y-93577438D02*
X167563095Y-93482200D01*
X167563095Y-93482200D02*
X167420238Y-93339342D01*
X167420238Y-93339342D02*
X167325000Y-93291723D01*
X167325000Y-93291723D02*
X167229762Y-93291723D01*
X167277381Y-93529819D02*
X167182143Y-93482200D01*
X167182143Y-93482200D02*
X167086905Y-93386961D01*
X167086905Y-93386961D02*
X167039286Y-93196485D01*
X167039286Y-93196485D02*
X167039286Y-92863152D01*
X167039286Y-92863152D02*
X167086905Y-92672676D01*
X167086905Y-92672676D02*
X167182143Y-92577438D01*
X167182143Y-92577438D02*
X167277381Y-92529819D01*
X167277381Y-92529819D02*
X167467857Y-92529819D01*
X167467857Y-92529819D02*
X167563095Y-92577438D01*
X167563095Y-92577438D02*
X167658333Y-92672676D01*
X167658333Y-92672676D02*
X167705952Y-92863152D01*
X167705952Y-92863152D02*
X167705952Y-93196485D01*
X167705952Y-93196485D02*
X167658333Y-93386961D01*
X167658333Y-93386961D02*
X167563095Y-93482200D01*
X167563095Y-93482200D02*
X167467857Y-93529819D01*
X167467857Y-93529819D02*
X167277381Y-93529819D01*
X168658333Y-93529819D02*
X168086905Y-93529819D01*
X168372619Y-93529819D02*
X168372619Y-92529819D01*
X168372619Y-92529819D02*
X168277381Y-92672676D01*
X168277381Y-92672676D02*
X168182143Y-92767914D01*
X168182143Y-92767914D02*
X168086905Y-92815533D01*
X169039286Y-92625057D02*
X169086905Y-92577438D01*
X169086905Y-92577438D02*
X169182143Y-92529819D01*
X169182143Y-92529819D02*
X169420238Y-92529819D01*
X169420238Y-92529819D02*
X169515476Y-92577438D01*
X169515476Y-92577438D02*
X169563095Y-92625057D01*
X169563095Y-92625057D02*
X169610714Y-92720295D01*
X169610714Y-92720295D02*
X169610714Y-92815533D01*
X169610714Y-92815533D02*
X169563095Y-92958390D01*
X169563095Y-92958390D02*
X168991667Y-93529819D01*
X168991667Y-93529819D02*
X169610714Y-93529819D01*
X60229761Y-93525057D02*
X60134523Y-93477438D01*
X60134523Y-93477438D02*
X60039285Y-93382200D01*
X60039285Y-93382200D02*
X59896428Y-93239342D01*
X59896428Y-93239342D02*
X59801190Y-93191723D01*
X59801190Y-93191723D02*
X59705952Y-93191723D01*
X59753571Y-93429819D02*
X59658333Y-93382200D01*
X59658333Y-93382200D02*
X59563095Y-93286961D01*
X59563095Y-93286961D02*
X59515476Y-93096485D01*
X59515476Y-93096485D02*
X59515476Y-92763152D01*
X59515476Y-92763152D02*
X59563095Y-92572676D01*
X59563095Y-92572676D02*
X59658333Y-92477438D01*
X59658333Y-92477438D02*
X59753571Y-92429819D01*
X59753571Y-92429819D02*
X59944047Y-92429819D01*
X59944047Y-92429819D02*
X60039285Y-92477438D01*
X60039285Y-92477438D02*
X60134523Y-92572676D01*
X60134523Y-92572676D02*
X60182142Y-92763152D01*
X60182142Y-92763152D02*
X60182142Y-93096485D01*
X60182142Y-93096485D02*
X60134523Y-93286961D01*
X60134523Y-93286961D02*
X60039285Y-93382200D01*
X60039285Y-93382200D02*
X59944047Y-93429819D01*
X59944047Y-93429819D02*
X59753571Y-93429819D01*
X61134523Y-93429819D02*
X60563095Y-93429819D01*
X60848809Y-93429819D02*
X60848809Y-92429819D01*
X60848809Y-92429819D02*
X60753571Y-92572676D01*
X60753571Y-92572676D02*
X60658333Y-92667914D01*
X60658333Y-92667914D02*
X60563095Y-92715533D01*
X73470833Y-62822080D02*
X73423214Y-62869700D01*
X73423214Y-62869700D02*
X73280357Y-62917319D01*
X73280357Y-62917319D02*
X73185119Y-62917319D01*
X73185119Y-62917319D02*
X73042262Y-62869700D01*
X73042262Y-62869700D02*
X72947024Y-62774461D01*
X72947024Y-62774461D02*
X72899405Y-62679223D01*
X72899405Y-62679223D02*
X72851786Y-62488747D01*
X72851786Y-62488747D02*
X72851786Y-62345890D01*
X72851786Y-62345890D02*
X72899405Y-62155414D01*
X72899405Y-62155414D02*
X72947024Y-62060176D01*
X72947024Y-62060176D02*
X73042262Y-61964938D01*
X73042262Y-61964938D02*
X73185119Y-61917319D01*
X73185119Y-61917319D02*
X73280357Y-61917319D01*
X73280357Y-61917319D02*
X73423214Y-61964938D01*
X73423214Y-61964938D02*
X73470833Y-62012557D01*
X74327976Y-62250652D02*
X74327976Y-62917319D01*
X74089881Y-61869700D02*
X73851786Y-62583985D01*
X73851786Y-62583985D02*
X74470833Y-62583985D01*
X119129761Y-93625057D02*
X119034523Y-93577438D01*
X119034523Y-93577438D02*
X118939285Y-93482200D01*
X118939285Y-93482200D02*
X118796428Y-93339342D01*
X118796428Y-93339342D02*
X118701190Y-93291723D01*
X118701190Y-93291723D02*
X118605952Y-93291723D01*
X118653571Y-93529819D02*
X118558333Y-93482200D01*
X118558333Y-93482200D02*
X118463095Y-93386961D01*
X118463095Y-93386961D02*
X118415476Y-93196485D01*
X118415476Y-93196485D02*
X118415476Y-92863152D01*
X118415476Y-92863152D02*
X118463095Y-92672676D01*
X118463095Y-92672676D02*
X118558333Y-92577438D01*
X118558333Y-92577438D02*
X118653571Y-92529819D01*
X118653571Y-92529819D02*
X118844047Y-92529819D01*
X118844047Y-92529819D02*
X118939285Y-92577438D01*
X118939285Y-92577438D02*
X119034523Y-92672676D01*
X119034523Y-92672676D02*
X119082142Y-92863152D01*
X119082142Y-92863152D02*
X119082142Y-93196485D01*
X119082142Y-93196485D02*
X119034523Y-93386961D01*
X119034523Y-93386961D02*
X118939285Y-93482200D01*
X118939285Y-93482200D02*
X118844047Y-93529819D01*
X118844047Y-93529819D02*
X118653571Y-93529819D01*
X119415476Y-92529819D02*
X120082142Y-92529819D01*
X120082142Y-92529819D02*
X119653571Y-93529819D01*
X165329618Y-85604819D02*
X164996285Y-85128628D01*
X164758190Y-85604819D02*
X164758190Y-84604819D01*
X164758190Y-84604819D02*
X165139142Y-84604819D01*
X165139142Y-84604819D02*
X165234380Y-84652438D01*
X165234380Y-84652438D02*
X165281999Y-84700057D01*
X165281999Y-84700057D02*
X165329618Y-84795295D01*
X165329618Y-84795295D02*
X165329618Y-84938152D01*
X165329618Y-84938152D02*
X165281999Y-85033390D01*
X165281999Y-85033390D02*
X165234380Y-85081009D01*
X165234380Y-85081009D02*
X165139142Y-85128628D01*
X165139142Y-85128628D02*
X164758190Y-85128628D01*
X166281999Y-85604819D02*
X165710571Y-85604819D01*
X165996285Y-85604819D02*
X165996285Y-84604819D01*
X165996285Y-84604819D02*
X165901047Y-84747676D01*
X165901047Y-84747676D02*
X165805809Y-84842914D01*
X165805809Y-84842914D02*
X165710571Y-84890533D01*
X166853428Y-85033390D02*
X166758190Y-84985771D01*
X166758190Y-84985771D02*
X166710571Y-84938152D01*
X166710571Y-84938152D02*
X166662952Y-84842914D01*
X166662952Y-84842914D02*
X166662952Y-84795295D01*
X166662952Y-84795295D02*
X166710571Y-84700057D01*
X166710571Y-84700057D02*
X166758190Y-84652438D01*
X166758190Y-84652438D02*
X166853428Y-84604819D01*
X166853428Y-84604819D02*
X167043904Y-84604819D01*
X167043904Y-84604819D02*
X167139142Y-84652438D01*
X167139142Y-84652438D02*
X167186761Y-84700057D01*
X167186761Y-84700057D02*
X167234380Y-84795295D01*
X167234380Y-84795295D02*
X167234380Y-84842914D01*
X167234380Y-84842914D02*
X167186761Y-84938152D01*
X167186761Y-84938152D02*
X167139142Y-84985771D01*
X167139142Y-84985771D02*
X167043904Y-85033390D01*
X167043904Y-85033390D02*
X166853428Y-85033390D01*
X166853428Y-85033390D02*
X166758190Y-85081009D01*
X166758190Y-85081009D02*
X166710571Y-85128628D01*
X166710571Y-85128628D02*
X166662952Y-85223866D01*
X166662952Y-85223866D02*
X166662952Y-85414342D01*
X166662952Y-85414342D02*
X166710571Y-85509580D01*
X166710571Y-85509580D02*
X166758190Y-85557200D01*
X166758190Y-85557200D02*
X166853428Y-85604819D01*
X166853428Y-85604819D02*
X167043904Y-85604819D01*
X167043904Y-85604819D02*
X167139142Y-85557200D01*
X167139142Y-85557200D02*
X167186761Y-85509580D01*
X167186761Y-85509580D02*
X167234380Y-85414342D01*
X167234380Y-85414342D02*
X167234380Y-85223866D01*
X167234380Y-85223866D02*
X167186761Y-85128628D01*
X167186761Y-85128628D02*
X167139142Y-85081009D01*
X167139142Y-85081009D02*
X167043904Y-85033390D01*
X70047996Y-93567885D02*
X69952758Y-93520266D01*
X69952758Y-93520266D02*
X69857520Y-93425028D01*
X69857520Y-93425028D02*
X69714663Y-93282170D01*
X69714663Y-93282170D02*
X69619425Y-93234551D01*
X69619425Y-93234551D02*
X69524187Y-93234551D01*
X69571806Y-93472647D02*
X69476568Y-93425028D01*
X69476568Y-93425028D02*
X69381330Y-93329789D01*
X69381330Y-93329789D02*
X69333711Y-93139313D01*
X69333711Y-93139313D02*
X69333711Y-92805980D01*
X69333711Y-92805980D02*
X69381330Y-92615504D01*
X69381330Y-92615504D02*
X69476568Y-92520266D01*
X69476568Y-92520266D02*
X69571806Y-92472647D01*
X69571806Y-92472647D02*
X69762282Y-92472647D01*
X69762282Y-92472647D02*
X69857520Y-92520266D01*
X69857520Y-92520266D02*
X69952758Y-92615504D01*
X69952758Y-92615504D02*
X70000377Y-92805980D01*
X70000377Y-92805980D02*
X70000377Y-93139313D01*
X70000377Y-93139313D02*
X69952758Y-93329789D01*
X69952758Y-93329789D02*
X69857520Y-93425028D01*
X69857520Y-93425028D02*
X69762282Y-93472647D01*
X69762282Y-93472647D02*
X69571806Y-93472647D01*
X70381330Y-92567885D02*
X70428949Y-92520266D01*
X70428949Y-92520266D02*
X70524187Y-92472647D01*
X70524187Y-92472647D02*
X70762282Y-92472647D01*
X70762282Y-92472647D02*
X70857520Y-92520266D01*
X70857520Y-92520266D02*
X70905139Y-92567885D01*
X70905139Y-92567885D02*
X70952758Y-92663123D01*
X70952758Y-92663123D02*
X70952758Y-92758361D01*
X70952758Y-92758361D02*
X70905139Y-92901218D01*
X70905139Y-92901218D02*
X70333711Y-93472647D01*
X70333711Y-93472647D02*
X70952758Y-93472647D01*
X79184381Y-105304819D02*
X79184381Y-104304819D01*
X79184381Y-104304819D02*
X79422476Y-104304819D01*
X79422476Y-104304819D02*
X79565333Y-104352438D01*
X79565333Y-104352438D02*
X79660571Y-104447676D01*
X79660571Y-104447676D02*
X79708190Y-104542914D01*
X79708190Y-104542914D02*
X79755809Y-104733390D01*
X79755809Y-104733390D02*
X79755809Y-104876247D01*
X79755809Y-104876247D02*
X79708190Y-105066723D01*
X79708190Y-105066723D02*
X79660571Y-105161961D01*
X79660571Y-105161961D02*
X79565333Y-105257200D01*
X79565333Y-105257200D02*
X79422476Y-105304819D01*
X79422476Y-105304819D02*
X79184381Y-105304819D01*
X80089143Y-104304819D02*
X80708190Y-104304819D01*
X80708190Y-104304819D02*
X80374857Y-104685771D01*
X80374857Y-104685771D02*
X80517714Y-104685771D01*
X80517714Y-104685771D02*
X80612952Y-104733390D01*
X80612952Y-104733390D02*
X80660571Y-104781009D01*
X80660571Y-104781009D02*
X80708190Y-104876247D01*
X80708190Y-104876247D02*
X80708190Y-105114342D01*
X80708190Y-105114342D02*
X80660571Y-105209580D01*
X80660571Y-105209580D02*
X80612952Y-105257200D01*
X80612952Y-105257200D02*
X80517714Y-105304819D01*
X80517714Y-105304819D02*
X80232000Y-105304819D01*
X80232000Y-105304819D02*
X80136762Y-105257200D01*
X80136762Y-105257200D02*
X80089143Y-105209580D01*
X160079618Y-85529819D02*
X159746285Y-85053628D01*
X159508190Y-85529819D02*
X159508190Y-84529819D01*
X159508190Y-84529819D02*
X159889142Y-84529819D01*
X159889142Y-84529819D02*
X159984380Y-84577438D01*
X159984380Y-84577438D02*
X160031999Y-84625057D01*
X160031999Y-84625057D02*
X160079618Y-84720295D01*
X160079618Y-84720295D02*
X160079618Y-84863152D01*
X160079618Y-84863152D02*
X160031999Y-84958390D01*
X160031999Y-84958390D02*
X159984380Y-85006009D01*
X159984380Y-85006009D02*
X159889142Y-85053628D01*
X159889142Y-85053628D02*
X159508190Y-85053628D01*
X160460571Y-84625057D02*
X160508190Y-84577438D01*
X160508190Y-84577438D02*
X160603428Y-84529819D01*
X160603428Y-84529819D02*
X160841523Y-84529819D01*
X160841523Y-84529819D02*
X160936761Y-84577438D01*
X160936761Y-84577438D02*
X160984380Y-84625057D01*
X160984380Y-84625057D02*
X161031999Y-84720295D01*
X161031999Y-84720295D02*
X161031999Y-84815533D01*
X161031999Y-84815533D02*
X160984380Y-84958390D01*
X160984380Y-84958390D02*
X160412952Y-85529819D01*
X160412952Y-85529819D02*
X161031999Y-85529819D01*
X161365333Y-84529819D02*
X161984380Y-84529819D01*
X161984380Y-84529819D02*
X161651047Y-84910771D01*
X161651047Y-84910771D02*
X161793904Y-84910771D01*
X161793904Y-84910771D02*
X161889142Y-84958390D01*
X161889142Y-84958390D02*
X161936761Y-85006009D01*
X161936761Y-85006009D02*
X161984380Y-85101247D01*
X161984380Y-85101247D02*
X161984380Y-85339342D01*
X161984380Y-85339342D02*
X161936761Y-85434580D01*
X161936761Y-85434580D02*
X161889142Y-85482200D01*
X161889142Y-85482200D02*
X161793904Y-85529819D01*
X161793904Y-85529819D02*
X161508190Y-85529819D01*
X161508190Y-85529819D02*
X161412952Y-85482200D01*
X161412952Y-85482200D02*
X161365333Y-85434580D01*
X67705809Y-85554819D02*
X67372476Y-85078628D01*
X67134381Y-85554819D02*
X67134381Y-84554819D01*
X67134381Y-84554819D02*
X67515333Y-84554819D01*
X67515333Y-84554819D02*
X67610571Y-84602438D01*
X67610571Y-84602438D02*
X67658190Y-84650057D01*
X67658190Y-84650057D02*
X67705809Y-84745295D01*
X67705809Y-84745295D02*
X67705809Y-84888152D01*
X67705809Y-84888152D02*
X67658190Y-84983390D01*
X67658190Y-84983390D02*
X67610571Y-85031009D01*
X67610571Y-85031009D02*
X67515333Y-85078628D01*
X67515333Y-85078628D02*
X67134381Y-85078628D01*
X68086762Y-84650057D02*
X68134381Y-84602438D01*
X68134381Y-84602438D02*
X68229619Y-84554819D01*
X68229619Y-84554819D02*
X68467714Y-84554819D01*
X68467714Y-84554819D02*
X68562952Y-84602438D01*
X68562952Y-84602438D02*
X68610571Y-84650057D01*
X68610571Y-84650057D02*
X68658190Y-84745295D01*
X68658190Y-84745295D02*
X68658190Y-84840533D01*
X68658190Y-84840533D02*
X68610571Y-84983390D01*
X68610571Y-84983390D02*
X68039143Y-85554819D01*
X68039143Y-85554819D02*
X68658190Y-85554819D01*
X120829618Y-85554819D02*
X120496285Y-85078628D01*
X120258190Y-85554819D02*
X120258190Y-84554819D01*
X120258190Y-84554819D02*
X120639142Y-84554819D01*
X120639142Y-84554819D02*
X120734380Y-84602438D01*
X120734380Y-84602438D02*
X120781999Y-84650057D01*
X120781999Y-84650057D02*
X120829618Y-84745295D01*
X120829618Y-84745295D02*
X120829618Y-84888152D01*
X120829618Y-84888152D02*
X120781999Y-84983390D01*
X120781999Y-84983390D02*
X120734380Y-85031009D01*
X120734380Y-85031009D02*
X120639142Y-85078628D01*
X120639142Y-85078628D02*
X120258190Y-85078628D01*
X121781999Y-85554819D02*
X121210571Y-85554819D01*
X121496285Y-85554819D02*
X121496285Y-84554819D01*
X121496285Y-84554819D02*
X121401047Y-84697676D01*
X121401047Y-84697676D02*
X121305809Y-84792914D01*
X121305809Y-84792914D02*
X121210571Y-84840533D01*
X122258190Y-85554819D02*
X122448666Y-85554819D01*
X122448666Y-85554819D02*
X122543904Y-85507200D01*
X122543904Y-85507200D02*
X122591523Y-85459580D01*
X122591523Y-85459580D02*
X122686761Y-85316723D01*
X122686761Y-85316723D02*
X122734380Y-85126247D01*
X122734380Y-85126247D02*
X122734380Y-84745295D01*
X122734380Y-84745295D02*
X122686761Y-84650057D01*
X122686761Y-84650057D02*
X122639142Y-84602438D01*
X122639142Y-84602438D02*
X122543904Y-84554819D01*
X122543904Y-84554819D02*
X122353428Y-84554819D01*
X122353428Y-84554819D02*
X122258190Y-84602438D01*
X122258190Y-84602438D02*
X122210571Y-84650057D01*
X122210571Y-84650057D02*
X122162952Y-84745295D01*
X122162952Y-84745295D02*
X122162952Y-84983390D01*
X122162952Y-84983390D02*
X122210571Y-85078628D01*
X122210571Y-85078628D02*
X122258190Y-85126247D01*
X122258190Y-85126247D02*
X122353428Y-85173866D01*
X122353428Y-85173866D02*
X122543904Y-85173866D01*
X122543904Y-85173866D02*
X122639142Y-85126247D01*
X122639142Y-85126247D02*
X122686761Y-85078628D01*
X122686761Y-85078628D02*
X122734380Y-84983390D01*
X80133333Y-57359580D02*
X80085714Y-57407200D01*
X80085714Y-57407200D02*
X79942857Y-57454819D01*
X79942857Y-57454819D02*
X79847619Y-57454819D01*
X79847619Y-57454819D02*
X79704762Y-57407200D01*
X79704762Y-57407200D02*
X79609524Y-57311961D01*
X79609524Y-57311961D02*
X79561905Y-57216723D01*
X79561905Y-57216723D02*
X79514286Y-57026247D01*
X79514286Y-57026247D02*
X79514286Y-56883390D01*
X79514286Y-56883390D02*
X79561905Y-56692914D01*
X79561905Y-56692914D02*
X79609524Y-56597676D01*
X79609524Y-56597676D02*
X79704762Y-56502438D01*
X79704762Y-56502438D02*
X79847619Y-56454819D01*
X79847619Y-56454819D02*
X79942857Y-56454819D01*
X79942857Y-56454819D02*
X80085714Y-56502438D01*
X80085714Y-56502438D02*
X80133333Y-56550057D01*
X80466667Y-56454819D02*
X81133333Y-56454819D01*
X81133333Y-56454819D02*
X80704762Y-57454819D01*
X71120833Y-62822080D02*
X71073214Y-62869700D01*
X71073214Y-62869700D02*
X70930357Y-62917319D01*
X70930357Y-62917319D02*
X70835119Y-62917319D01*
X70835119Y-62917319D02*
X70692262Y-62869700D01*
X70692262Y-62869700D02*
X70597024Y-62774461D01*
X70597024Y-62774461D02*
X70549405Y-62679223D01*
X70549405Y-62679223D02*
X70501786Y-62488747D01*
X70501786Y-62488747D02*
X70501786Y-62345890D01*
X70501786Y-62345890D02*
X70549405Y-62155414D01*
X70549405Y-62155414D02*
X70597024Y-62060176D01*
X70597024Y-62060176D02*
X70692262Y-61964938D01*
X70692262Y-61964938D02*
X70835119Y-61917319D01*
X70835119Y-61917319D02*
X70930357Y-61917319D01*
X70930357Y-61917319D02*
X71073214Y-61964938D01*
X71073214Y-61964938D02*
X71120833Y-62012557D01*
X71454167Y-61917319D02*
X72073214Y-61917319D01*
X72073214Y-61917319D02*
X71739881Y-62298271D01*
X71739881Y-62298271D02*
X71882738Y-62298271D01*
X71882738Y-62298271D02*
X71977976Y-62345890D01*
X71977976Y-62345890D02*
X72025595Y-62393509D01*
X72025595Y-62393509D02*
X72073214Y-62488747D01*
X72073214Y-62488747D02*
X72073214Y-62726842D01*
X72073214Y-62726842D02*
X72025595Y-62822080D01*
X72025595Y-62822080D02*
X71977976Y-62869700D01*
X71977976Y-62869700D02*
X71882738Y-62917319D01*
X71882738Y-62917319D02*
X71597024Y-62917319D01*
X71597024Y-62917319D02*
X71501786Y-62869700D01*
X71501786Y-62869700D02*
X71454167Y-62822080D01*
X149107142Y-65504819D02*
X148773809Y-65028628D01*
X148535714Y-65504819D02*
X148535714Y-64504819D01*
X148535714Y-64504819D02*
X148916666Y-64504819D01*
X148916666Y-64504819D02*
X149011904Y-64552438D01*
X149011904Y-64552438D02*
X149059523Y-64600057D01*
X149059523Y-64600057D02*
X149107142Y-64695295D01*
X149107142Y-64695295D02*
X149107142Y-64838152D01*
X149107142Y-64838152D02*
X149059523Y-64933390D01*
X149059523Y-64933390D02*
X149011904Y-64981009D01*
X149011904Y-64981009D02*
X148916666Y-65028628D01*
X148916666Y-65028628D02*
X148535714Y-65028628D01*
X149488095Y-64600057D02*
X149535714Y-64552438D01*
X149535714Y-64552438D02*
X149630952Y-64504819D01*
X149630952Y-64504819D02*
X149869047Y-64504819D01*
X149869047Y-64504819D02*
X149964285Y-64552438D01*
X149964285Y-64552438D02*
X150011904Y-64600057D01*
X150011904Y-64600057D02*
X150059523Y-64695295D01*
X150059523Y-64695295D02*
X150059523Y-64790533D01*
X150059523Y-64790533D02*
X150011904Y-64933390D01*
X150011904Y-64933390D02*
X149440476Y-65504819D01*
X149440476Y-65504819D02*
X150059523Y-65504819D01*
X150392857Y-64504819D02*
X151059523Y-64504819D01*
X151059523Y-64504819D02*
X150630952Y-65504819D01*
X88934381Y-105304819D02*
X88934381Y-104304819D01*
X88934381Y-104304819D02*
X89172476Y-104304819D01*
X89172476Y-104304819D02*
X89315333Y-104352438D01*
X89315333Y-104352438D02*
X89410571Y-104447676D01*
X89410571Y-104447676D02*
X89458190Y-104542914D01*
X89458190Y-104542914D02*
X89505809Y-104733390D01*
X89505809Y-104733390D02*
X89505809Y-104876247D01*
X89505809Y-104876247D02*
X89458190Y-105066723D01*
X89458190Y-105066723D02*
X89410571Y-105161961D01*
X89410571Y-105161961D02*
X89315333Y-105257200D01*
X89315333Y-105257200D02*
X89172476Y-105304819D01*
X89172476Y-105304819D02*
X88934381Y-105304819D01*
X90362952Y-104638152D02*
X90362952Y-105304819D01*
X90124857Y-104257200D02*
X89886762Y-104971485D01*
X89886762Y-104971485D02*
X90505809Y-104971485D01*
X119707142Y-66304819D02*
X119373809Y-65828628D01*
X119135714Y-66304819D02*
X119135714Y-65304819D01*
X119135714Y-65304819D02*
X119516666Y-65304819D01*
X119516666Y-65304819D02*
X119611904Y-65352438D01*
X119611904Y-65352438D02*
X119659523Y-65400057D01*
X119659523Y-65400057D02*
X119707142Y-65495295D01*
X119707142Y-65495295D02*
X119707142Y-65638152D01*
X119707142Y-65638152D02*
X119659523Y-65733390D01*
X119659523Y-65733390D02*
X119611904Y-65781009D01*
X119611904Y-65781009D02*
X119516666Y-65828628D01*
X119516666Y-65828628D02*
X119135714Y-65828628D01*
X120088095Y-65400057D02*
X120135714Y-65352438D01*
X120135714Y-65352438D02*
X120230952Y-65304819D01*
X120230952Y-65304819D02*
X120469047Y-65304819D01*
X120469047Y-65304819D02*
X120564285Y-65352438D01*
X120564285Y-65352438D02*
X120611904Y-65400057D01*
X120611904Y-65400057D02*
X120659523Y-65495295D01*
X120659523Y-65495295D02*
X120659523Y-65590533D01*
X120659523Y-65590533D02*
X120611904Y-65733390D01*
X120611904Y-65733390D02*
X120040476Y-66304819D01*
X120040476Y-66304819D02*
X120659523Y-66304819D01*
X121564285Y-65304819D02*
X121088095Y-65304819D01*
X121088095Y-65304819D02*
X121040476Y-65781009D01*
X121040476Y-65781009D02*
X121088095Y-65733390D01*
X121088095Y-65733390D02*
X121183333Y-65685771D01*
X121183333Y-65685771D02*
X121421428Y-65685771D01*
X121421428Y-65685771D02*
X121516666Y-65733390D01*
X121516666Y-65733390D02*
X121564285Y-65781009D01*
X121564285Y-65781009D02*
X121611904Y-65876247D01*
X121611904Y-65876247D02*
X121611904Y-66114342D01*
X121611904Y-66114342D02*
X121564285Y-66209580D01*
X121564285Y-66209580D02*
X121516666Y-66257200D01*
X121516666Y-66257200D02*
X121421428Y-66304819D01*
X121421428Y-66304819D02*
X121183333Y-66304819D01*
X121183333Y-66304819D02*
X121088095Y-66257200D01*
X121088095Y-66257200D02*
X121040476Y-66209580D01*
X97136241Y-85554819D02*
X96802908Y-85078628D01*
X96564813Y-85554819D02*
X96564813Y-84554819D01*
X96564813Y-84554819D02*
X96945765Y-84554819D01*
X96945765Y-84554819D02*
X97041003Y-84602438D01*
X97041003Y-84602438D02*
X97088622Y-84650057D01*
X97088622Y-84650057D02*
X97136241Y-84745295D01*
X97136241Y-84745295D02*
X97136241Y-84888152D01*
X97136241Y-84888152D02*
X97088622Y-84983390D01*
X97088622Y-84983390D02*
X97041003Y-85031009D01*
X97041003Y-85031009D02*
X96945765Y-85078628D01*
X96945765Y-85078628D02*
X96564813Y-85078628D01*
X98041003Y-84554819D02*
X97564813Y-84554819D01*
X97564813Y-84554819D02*
X97517194Y-85031009D01*
X97517194Y-85031009D02*
X97564813Y-84983390D01*
X97564813Y-84983390D02*
X97660051Y-84935771D01*
X97660051Y-84935771D02*
X97898146Y-84935771D01*
X97898146Y-84935771D02*
X97993384Y-84983390D01*
X97993384Y-84983390D02*
X98041003Y-85031009D01*
X98041003Y-85031009D02*
X98088622Y-85126247D01*
X98088622Y-85126247D02*
X98088622Y-85364342D01*
X98088622Y-85364342D02*
X98041003Y-85459580D01*
X98041003Y-85459580D02*
X97993384Y-85507200D01*
X97993384Y-85507200D02*
X97898146Y-85554819D01*
X97898146Y-85554819D02*
X97660051Y-85554819D01*
X97660051Y-85554819D02*
X97564813Y-85507200D01*
X97564813Y-85507200D02*
X97517194Y-85459580D01*
X67833333Y-67109580D02*
X67785714Y-67157200D01*
X67785714Y-67157200D02*
X67642857Y-67204819D01*
X67642857Y-67204819D02*
X67547619Y-67204819D01*
X67547619Y-67204819D02*
X67404762Y-67157200D01*
X67404762Y-67157200D02*
X67309524Y-67061961D01*
X67309524Y-67061961D02*
X67261905Y-66966723D01*
X67261905Y-66966723D02*
X67214286Y-66776247D01*
X67214286Y-66776247D02*
X67214286Y-66633390D01*
X67214286Y-66633390D02*
X67261905Y-66442914D01*
X67261905Y-66442914D02*
X67309524Y-66347676D01*
X67309524Y-66347676D02*
X67404762Y-66252438D01*
X67404762Y-66252438D02*
X67547619Y-66204819D01*
X67547619Y-66204819D02*
X67642857Y-66204819D01*
X67642857Y-66204819D02*
X67785714Y-66252438D01*
X67785714Y-66252438D02*
X67833333Y-66300057D01*
X68785714Y-67204819D02*
X68214286Y-67204819D01*
X68500000Y-67204819D02*
X68500000Y-66204819D01*
X68500000Y-66204819D02*
X68404762Y-66347676D01*
X68404762Y-66347676D02*
X68309524Y-66442914D01*
X68309524Y-66442914D02*
X68214286Y-66490533D01*
X69384381Y-105254819D02*
X69384381Y-104254819D01*
X69384381Y-104254819D02*
X69622476Y-104254819D01*
X69622476Y-104254819D02*
X69765333Y-104302438D01*
X69765333Y-104302438D02*
X69860571Y-104397676D01*
X69860571Y-104397676D02*
X69908190Y-104492914D01*
X69908190Y-104492914D02*
X69955809Y-104683390D01*
X69955809Y-104683390D02*
X69955809Y-104826247D01*
X69955809Y-104826247D02*
X69908190Y-105016723D01*
X69908190Y-105016723D02*
X69860571Y-105111961D01*
X69860571Y-105111961D02*
X69765333Y-105207200D01*
X69765333Y-105207200D02*
X69622476Y-105254819D01*
X69622476Y-105254819D02*
X69384381Y-105254819D01*
X70336762Y-104350057D02*
X70384381Y-104302438D01*
X70384381Y-104302438D02*
X70479619Y-104254819D01*
X70479619Y-104254819D02*
X70717714Y-104254819D01*
X70717714Y-104254819D02*
X70812952Y-104302438D01*
X70812952Y-104302438D02*
X70860571Y-104350057D01*
X70860571Y-104350057D02*
X70908190Y-104445295D01*
X70908190Y-104445295D02*
X70908190Y-104540533D01*
X70908190Y-104540533D02*
X70860571Y-104683390D01*
X70860571Y-104683390D02*
X70289143Y-105254819D01*
X70289143Y-105254819D02*
X70908190Y-105254819D01*
X156616667Y-56657200D02*
X156759524Y-56704819D01*
X156759524Y-56704819D02*
X156997619Y-56704819D01*
X156997619Y-56704819D02*
X157092857Y-56657200D01*
X157092857Y-56657200D02*
X157140476Y-56609580D01*
X157140476Y-56609580D02*
X157188095Y-56514342D01*
X157188095Y-56514342D02*
X157188095Y-56419104D01*
X157188095Y-56419104D02*
X157140476Y-56323866D01*
X157140476Y-56323866D02*
X157092857Y-56276247D01*
X157092857Y-56276247D02*
X156997619Y-56228628D01*
X156997619Y-56228628D02*
X156807143Y-56181009D01*
X156807143Y-56181009D02*
X156711905Y-56133390D01*
X156711905Y-56133390D02*
X156664286Y-56085771D01*
X156664286Y-56085771D02*
X156616667Y-55990533D01*
X156616667Y-55990533D02*
X156616667Y-55895295D01*
X156616667Y-55895295D02*
X156664286Y-55800057D01*
X156664286Y-55800057D02*
X156711905Y-55752438D01*
X156711905Y-55752438D02*
X156807143Y-55704819D01*
X156807143Y-55704819D02*
X157045238Y-55704819D01*
X157045238Y-55704819D02*
X157188095Y-55752438D01*
X157521429Y-55704819D02*
X157759524Y-56704819D01*
X157759524Y-56704819D02*
X157950000Y-55990533D01*
X157950000Y-55990533D02*
X158140476Y-56704819D01*
X158140476Y-56704819D02*
X158378572Y-55704819D01*
X159283333Y-56704819D02*
X158711905Y-56704819D01*
X158997619Y-56704819D02*
X158997619Y-55704819D01*
X158997619Y-55704819D02*
X158902381Y-55847676D01*
X158902381Y-55847676D02*
X158807143Y-55942914D01*
X158807143Y-55942914D02*
X158711905Y-55990533D01*
X157903571Y-93625057D02*
X157808333Y-93577438D01*
X157808333Y-93577438D02*
X157713095Y-93482200D01*
X157713095Y-93482200D02*
X157570238Y-93339342D01*
X157570238Y-93339342D02*
X157475000Y-93291723D01*
X157475000Y-93291723D02*
X157379762Y-93291723D01*
X157427381Y-93529819D02*
X157332143Y-93482200D01*
X157332143Y-93482200D02*
X157236905Y-93386961D01*
X157236905Y-93386961D02*
X157189286Y-93196485D01*
X157189286Y-93196485D02*
X157189286Y-92863152D01*
X157189286Y-92863152D02*
X157236905Y-92672676D01*
X157236905Y-92672676D02*
X157332143Y-92577438D01*
X157332143Y-92577438D02*
X157427381Y-92529819D01*
X157427381Y-92529819D02*
X157617857Y-92529819D01*
X157617857Y-92529819D02*
X157713095Y-92577438D01*
X157713095Y-92577438D02*
X157808333Y-92672676D01*
X157808333Y-92672676D02*
X157855952Y-92863152D01*
X157855952Y-92863152D02*
X157855952Y-93196485D01*
X157855952Y-93196485D02*
X157808333Y-93386961D01*
X157808333Y-93386961D02*
X157713095Y-93482200D01*
X157713095Y-93482200D02*
X157617857Y-93529819D01*
X157617857Y-93529819D02*
X157427381Y-93529819D01*
X158808333Y-93529819D02*
X158236905Y-93529819D01*
X158522619Y-93529819D02*
X158522619Y-92529819D01*
X158522619Y-92529819D02*
X158427381Y-92672676D01*
X158427381Y-92672676D02*
X158332143Y-92767914D01*
X158332143Y-92767914D02*
X158236905Y-92815533D01*
X159760714Y-93529819D02*
X159189286Y-93529819D01*
X159475000Y-93529819D02*
X159475000Y-92529819D01*
X159475000Y-92529819D02*
X159379762Y-92672676D01*
X159379762Y-92672676D02*
X159284524Y-92767914D01*
X159284524Y-92767914D02*
X159189286Y-92815533D01*
X87355809Y-85604819D02*
X87022476Y-85128628D01*
X86784381Y-85604819D02*
X86784381Y-84604819D01*
X86784381Y-84604819D02*
X87165333Y-84604819D01*
X87165333Y-84604819D02*
X87260571Y-84652438D01*
X87260571Y-84652438D02*
X87308190Y-84700057D01*
X87308190Y-84700057D02*
X87355809Y-84795295D01*
X87355809Y-84795295D02*
X87355809Y-84938152D01*
X87355809Y-84938152D02*
X87308190Y-85033390D01*
X87308190Y-85033390D02*
X87260571Y-85081009D01*
X87260571Y-85081009D02*
X87165333Y-85128628D01*
X87165333Y-85128628D02*
X86784381Y-85128628D01*
X88212952Y-84938152D02*
X88212952Y-85604819D01*
X87974857Y-84557200D02*
X87736762Y-85271485D01*
X87736762Y-85271485D02*
X88355809Y-85271485D01*
X91479618Y-85604819D02*
X91146285Y-85128628D01*
X90908190Y-85604819D02*
X90908190Y-84604819D01*
X90908190Y-84604819D02*
X91289142Y-84604819D01*
X91289142Y-84604819D02*
X91384380Y-84652438D01*
X91384380Y-84652438D02*
X91431999Y-84700057D01*
X91431999Y-84700057D02*
X91479618Y-84795295D01*
X91479618Y-84795295D02*
X91479618Y-84938152D01*
X91479618Y-84938152D02*
X91431999Y-85033390D01*
X91431999Y-85033390D02*
X91384380Y-85081009D01*
X91384380Y-85081009D02*
X91289142Y-85128628D01*
X91289142Y-85128628D02*
X90908190Y-85128628D01*
X92431999Y-85604819D02*
X91860571Y-85604819D01*
X92146285Y-85604819D02*
X92146285Y-84604819D01*
X92146285Y-84604819D02*
X92051047Y-84747676D01*
X92051047Y-84747676D02*
X91955809Y-84842914D01*
X91955809Y-84842914D02*
X91860571Y-84890533D01*
X93051047Y-84604819D02*
X93146285Y-84604819D01*
X93146285Y-84604819D02*
X93241523Y-84652438D01*
X93241523Y-84652438D02*
X93289142Y-84700057D01*
X93289142Y-84700057D02*
X93336761Y-84795295D01*
X93336761Y-84795295D02*
X93384380Y-84985771D01*
X93384380Y-84985771D02*
X93384380Y-85223866D01*
X93384380Y-85223866D02*
X93336761Y-85414342D01*
X93336761Y-85414342D02*
X93289142Y-85509580D01*
X93289142Y-85509580D02*
X93241523Y-85557200D01*
X93241523Y-85557200D02*
X93146285Y-85604819D01*
X93146285Y-85604819D02*
X93051047Y-85604819D01*
X93051047Y-85604819D02*
X92955809Y-85557200D01*
X92955809Y-85557200D02*
X92908190Y-85509580D01*
X92908190Y-85509580D02*
X92860571Y-85414342D01*
X92860571Y-85414342D02*
X92812952Y-85223866D01*
X92812952Y-85223866D02*
X92812952Y-84985771D01*
X92812952Y-84985771D02*
X92860571Y-84795295D01*
X92860571Y-84795295D02*
X92908190Y-84700057D01*
X92908190Y-84700057D02*
X92955809Y-84652438D01*
X92955809Y-84652438D02*
X93051047Y-84604819D01*
X82054819Y-57705357D02*
X81578628Y-58038690D01*
X82054819Y-58276785D02*
X81054819Y-58276785D01*
X81054819Y-58276785D02*
X81054819Y-57895833D01*
X81054819Y-57895833D02*
X81102438Y-57800595D01*
X81102438Y-57800595D02*
X81150057Y-57752976D01*
X81150057Y-57752976D02*
X81245295Y-57705357D01*
X81245295Y-57705357D02*
X81388152Y-57705357D01*
X81388152Y-57705357D02*
X81483390Y-57752976D01*
X81483390Y-57752976D02*
X81531009Y-57800595D01*
X81531009Y-57800595D02*
X81578628Y-57895833D01*
X81578628Y-57895833D02*
X81578628Y-58276785D01*
X81054819Y-57372023D02*
X81054819Y-56752976D01*
X81054819Y-56752976D02*
X81435771Y-57086309D01*
X81435771Y-57086309D02*
X81435771Y-56943452D01*
X81435771Y-56943452D02*
X81483390Y-56848214D01*
X81483390Y-56848214D02*
X81531009Y-56800595D01*
X81531009Y-56800595D02*
X81626247Y-56752976D01*
X81626247Y-56752976D02*
X81864342Y-56752976D01*
X81864342Y-56752976D02*
X81959580Y-56800595D01*
X81959580Y-56800595D02*
X82007200Y-56848214D01*
X82007200Y-56848214D02*
X82054819Y-56943452D01*
X82054819Y-56943452D02*
X82054819Y-57229166D01*
X82054819Y-57229166D02*
X82007200Y-57324404D01*
X82007200Y-57324404D02*
X81959580Y-57372023D01*
X82054819Y-55800595D02*
X82054819Y-56372023D01*
X82054819Y-56086309D02*
X81054819Y-56086309D01*
X81054819Y-56086309D02*
X81197676Y-56181547D01*
X81197676Y-56181547D02*
X81292914Y-56276785D01*
X81292914Y-56276785D02*
X81340533Y-56372023D01*
X138729761Y-93625057D02*
X138634523Y-93577438D01*
X138634523Y-93577438D02*
X138539285Y-93482200D01*
X138539285Y-93482200D02*
X138396428Y-93339342D01*
X138396428Y-93339342D02*
X138301190Y-93291723D01*
X138301190Y-93291723D02*
X138205952Y-93291723D01*
X138253571Y-93529819D02*
X138158333Y-93482200D01*
X138158333Y-93482200D02*
X138063095Y-93386961D01*
X138063095Y-93386961D02*
X138015476Y-93196485D01*
X138015476Y-93196485D02*
X138015476Y-92863152D01*
X138015476Y-92863152D02*
X138063095Y-92672676D01*
X138063095Y-92672676D02*
X138158333Y-92577438D01*
X138158333Y-92577438D02*
X138253571Y-92529819D01*
X138253571Y-92529819D02*
X138444047Y-92529819D01*
X138444047Y-92529819D02*
X138539285Y-92577438D01*
X138539285Y-92577438D02*
X138634523Y-92672676D01*
X138634523Y-92672676D02*
X138682142Y-92863152D01*
X138682142Y-92863152D02*
X138682142Y-93196485D01*
X138682142Y-93196485D02*
X138634523Y-93386961D01*
X138634523Y-93386961D02*
X138539285Y-93482200D01*
X138539285Y-93482200D02*
X138444047Y-93529819D01*
X138444047Y-93529819D02*
X138253571Y-93529819D01*
X139158333Y-93529819D02*
X139348809Y-93529819D01*
X139348809Y-93529819D02*
X139444047Y-93482200D01*
X139444047Y-93482200D02*
X139491666Y-93434580D01*
X139491666Y-93434580D02*
X139586904Y-93291723D01*
X139586904Y-93291723D02*
X139634523Y-93101247D01*
X139634523Y-93101247D02*
X139634523Y-92720295D01*
X139634523Y-92720295D02*
X139586904Y-92625057D01*
X139586904Y-92625057D02*
X139539285Y-92577438D01*
X139539285Y-92577438D02*
X139444047Y-92529819D01*
X139444047Y-92529819D02*
X139253571Y-92529819D01*
X139253571Y-92529819D02*
X139158333Y-92577438D01*
X139158333Y-92577438D02*
X139110714Y-92625057D01*
X139110714Y-92625057D02*
X139063095Y-92720295D01*
X139063095Y-92720295D02*
X139063095Y-92958390D01*
X139063095Y-92958390D02*
X139110714Y-93053628D01*
X139110714Y-93053628D02*
X139158333Y-93101247D01*
X139158333Y-93101247D02*
X139253571Y-93148866D01*
X139253571Y-93148866D02*
X139444047Y-93148866D01*
X139444047Y-93148866D02*
X139539285Y-93101247D01*
X139539285Y-93101247D02*
X139586904Y-93053628D01*
X139586904Y-93053628D02*
X139634523Y-92958390D01*
X155529618Y-85554819D02*
X155196285Y-85078628D01*
X154958190Y-85554819D02*
X154958190Y-84554819D01*
X154958190Y-84554819D02*
X155339142Y-84554819D01*
X155339142Y-84554819D02*
X155434380Y-84602438D01*
X155434380Y-84602438D02*
X155481999Y-84650057D01*
X155481999Y-84650057D02*
X155529618Y-84745295D01*
X155529618Y-84745295D02*
X155529618Y-84888152D01*
X155529618Y-84888152D02*
X155481999Y-84983390D01*
X155481999Y-84983390D02*
X155434380Y-85031009D01*
X155434380Y-85031009D02*
X155339142Y-85078628D01*
X155339142Y-85078628D02*
X154958190Y-85078628D01*
X156481999Y-85554819D02*
X155910571Y-85554819D01*
X156196285Y-85554819D02*
X156196285Y-84554819D01*
X156196285Y-84554819D02*
X156101047Y-84697676D01*
X156101047Y-84697676D02*
X156005809Y-84792914D01*
X156005809Y-84792914D02*
X155910571Y-84840533D01*
X156815333Y-84554819D02*
X157481999Y-84554819D01*
X157481999Y-84554819D02*
X157053428Y-85554819D01*
X120683333Y-61359580D02*
X120635714Y-61407200D01*
X120635714Y-61407200D02*
X120492857Y-61454819D01*
X120492857Y-61454819D02*
X120397619Y-61454819D01*
X120397619Y-61454819D02*
X120254762Y-61407200D01*
X120254762Y-61407200D02*
X120159524Y-61311961D01*
X120159524Y-61311961D02*
X120111905Y-61216723D01*
X120111905Y-61216723D02*
X120064286Y-61026247D01*
X120064286Y-61026247D02*
X120064286Y-60883390D01*
X120064286Y-60883390D02*
X120111905Y-60692914D01*
X120111905Y-60692914D02*
X120159524Y-60597676D01*
X120159524Y-60597676D02*
X120254762Y-60502438D01*
X120254762Y-60502438D02*
X120397619Y-60454819D01*
X120397619Y-60454819D02*
X120492857Y-60454819D01*
X120492857Y-60454819D02*
X120635714Y-60502438D01*
X120635714Y-60502438D02*
X120683333Y-60550057D01*
X121588095Y-60454819D02*
X121111905Y-60454819D01*
X121111905Y-60454819D02*
X121064286Y-60931009D01*
X121064286Y-60931009D02*
X121111905Y-60883390D01*
X121111905Y-60883390D02*
X121207143Y-60835771D01*
X121207143Y-60835771D02*
X121445238Y-60835771D01*
X121445238Y-60835771D02*
X121540476Y-60883390D01*
X121540476Y-60883390D02*
X121588095Y-60931009D01*
X121588095Y-60931009D02*
X121635714Y-61026247D01*
X121635714Y-61026247D02*
X121635714Y-61264342D01*
X121635714Y-61264342D02*
X121588095Y-61359580D01*
X121588095Y-61359580D02*
X121540476Y-61407200D01*
X121540476Y-61407200D02*
X121445238Y-61454819D01*
X121445238Y-61454819D02*
X121207143Y-61454819D01*
X121207143Y-61454819D02*
X121111905Y-61407200D01*
X121111905Y-61407200D02*
X121064286Y-61359580D01*
X87339580Y-60705357D02*
X87387200Y-60752976D01*
X87387200Y-60752976D02*
X87434819Y-60895833D01*
X87434819Y-60895833D02*
X87434819Y-60991071D01*
X87434819Y-60991071D02*
X87387200Y-61133928D01*
X87387200Y-61133928D02*
X87291961Y-61229166D01*
X87291961Y-61229166D02*
X87196723Y-61276785D01*
X87196723Y-61276785D02*
X87006247Y-61324404D01*
X87006247Y-61324404D02*
X86863390Y-61324404D01*
X86863390Y-61324404D02*
X86672914Y-61276785D01*
X86672914Y-61276785D02*
X86577676Y-61229166D01*
X86577676Y-61229166D02*
X86482438Y-61133928D01*
X86482438Y-61133928D02*
X86434819Y-60991071D01*
X86434819Y-60991071D02*
X86434819Y-60895833D01*
X86434819Y-60895833D02*
X86482438Y-60752976D01*
X86482438Y-60752976D02*
X86530057Y-60705357D01*
X87434819Y-59752976D02*
X87434819Y-60324404D01*
X87434819Y-60038690D02*
X86434819Y-60038690D01*
X86434819Y-60038690D02*
X86577676Y-60133928D01*
X86577676Y-60133928D02*
X86672914Y-60229166D01*
X86672914Y-60229166D02*
X86720533Y-60324404D01*
X87434819Y-58800595D02*
X87434819Y-59372023D01*
X87434819Y-59086309D02*
X86434819Y-59086309D01*
X86434819Y-59086309D02*
X86577676Y-59181547D01*
X86577676Y-59181547D02*
X86672914Y-59276785D01*
X86672914Y-59276785D02*
X86720533Y-59372023D01*
X128929761Y-93575057D02*
X128834523Y-93527438D01*
X128834523Y-93527438D02*
X128739285Y-93432200D01*
X128739285Y-93432200D02*
X128596428Y-93289342D01*
X128596428Y-93289342D02*
X128501190Y-93241723D01*
X128501190Y-93241723D02*
X128405952Y-93241723D01*
X128453571Y-93479819D02*
X128358333Y-93432200D01*
X128358333Y-93432200D02*
X128263095Y-93336961D01*
X128263095Y-93336961D02*
X128215476Y-93146485D01*
X128215476Y-93146485D02*
X128215476Y-92813152D01*
X128215476Y-92813152D02*
X128263095Y-92622676D01*
X128263095Y-92622676D02*
X128358333Y-92527438D01*
X128358333Y-92527438D02*
X128453571Y-92479819D01*
X128453571Y-92479819D02*
X128644047Y-92479819D01*
X128644047Y-92479819D02*
X128739285Y-92527438D01*
X128739285Y-92527438D02*
X128834523Y-92622676D01*
X128834523Y-92622676D02*
X128882142Y-92813152D01*
X128882142Y-92813152D02*
X128882142Y-93146485D01*
X128882142Y-93146485D02*
X128834523Y-93336961D01*
X128834523Y-93336961D02*
X128739285Y-93432200D01*
X128739285Y-93432200D02*
X128644047Y-93479819D01*
X128644047Y-93479819D02*
X128453571Y-93479819D01*
X129453571Y-92908390D02*
X129358333Y-92860771D01*
X129358333Y-92860771D02*
X129310714Y-92813152D01*
X129310714Y-92813152D02*
X129263095Y-92717914D01*
X129263095Y-92717914D02*
X129263095Y-92670295D01*
X129263095Y-92670295D02*
X129310714Y-92575057D01*
X129310714Y-92575057D02*
X129358333Y-92527438D01*
X129358333Y-92527438D02*
X129453571Y-92479819D01*
X129453571Y-92479819D02*
X129644047Y-92479819D01*
X129644047Y-92479819D02*
X129739285Y-92527438D01*
X129739285Y-92527438D02*
X129786904Y-92575057D01*
X129786904Y-92575057D02*
X129834523Y-92670295D01*
X129834523Y-92670295D02*
X129834523Y-92717914D01*
X129834523Y-92717914D02*
X129786904Y-92813152D01*
X129786904Y-92813152D02*
X129739285Y-92860771D01*
X129739285Y-92860771D02*
X129644047Y-92908390D01*
X129644047Y-92908390D02*
X129453571Y-92908390D01*
X129453571Y-92908390D02*
X129358333Y-92956009D01*
X129358333Y-92956009D02*
X129310714Y-93003628D01*
X129310714Y-93003628D02*
X129263095Y-93098866D01*
X129263095Y-93098866D02*
X129263095Y-93289342D01*
X129263095Y-93289342D02*
X129310714Y-93384580D01*
X129310714Y-93384580D02*
X129358333Y-93432200D01*
X129358333Y-93432200D02*
X129453571Y-93479819D01*
X129453571Y-93479819D02*
X129644047Y-93479819D01*
X129644047Y-93479819D02*
X129739285Y-93432200D01*
X129739285Y-93432200D02*
X129786904Y-93384580D01*
X129786904Y-93384580D02*
X129834523Y-93289342D01*
X129834523Y-93289342D02*
X129834523Y-93098866D01*
X129834523Y-93098866D02*
X129786904Y-93003628D01*
X129786904Y-93003628D02*
X129739285Y-92956009D01*
X129739285Y-92956009D02*
X129644047Y-92908390D01*
X83904819Y-57705357D02*
X83428628Y-58038690D01*
X83904819Y-58276785D02*
X82904819Y-58276785D01*
X82904819Y-58276785D02*
X82904819Y-57895833D01*
X82904819Y-57895833D02*
X82952438Y-57800595D01*
X82952438Y-57800595D02*
X83000057Y-57752976D01*
X83000057Y-57752976D02*
X83095295Y-57705357D01*
X83095295Y-57705357D02*
X83238152Y-57705357D01*
X83238152Y-57705357D02*
X83333390Y-57752976D01*
X83333390Y-57752976D02*
X83381009Y-57800595D01*
X83381009Y-57800595D02*
X83428628Y-57895833D01*
X83428628Y-57895833D02*
X83428628Y-58276785D01*
X82904819Y-57372023D02*
X82904819Y-56752976D01*
X82904819Y-56752976D02*
X83285771Y-57086309D01*
X83285771Y-57086309D02*
X83285771Y-56943452D01*
X83285771Y-56943452D02*
X83333390Y-56848214D01*
X83333390Y-56848214D02*
X83381009Y-56800595D01*
X83381009Y-56800595D02*
X83476247Y-56752976D01*
X83476247Y-56752976D02*
X83714342Y-56752976D01*
X83714342Y-56752976D02*
X83809580Y-56800595D01*
X83809580Y-56800595D02*
X83857200Y-56848214D01*
X83857200Y-56848214D02*
X83904819Y-56943452D01*
X83904819Y-56943452D02*
X83904819Y-57229166D01*
X83904819Y-57229166D02*
X83857200Y-57324404D01*
X83857200Y-57324404D02*
X83809580Y-57372023D01*
X82904819Y-56133928D02*
X82904819Y-56038690D01*
X82904819Y-56038690D02*
X82952438Y-55943452D01*
X82952438Y-55943452D02*
X83000057Y-55895833D01*
X83000057Y-55895833D02*
X83095295Y-55848214D01*
X83095295Y-55848214D02*
X83285771Y-55800595D01*
X83285771Y-55800595D02*
X83523866Y-55800595D01*
X83523866Y-55800595D02*
X83714342Y-55848214D01*
X83714342Y-55848214D02*
X83809580Y-55895833D01*
X83809580Y-55895833D02*
X83857200Y-55943452D01*
X83857200Y-55943452D02*
X83904819Y-56038690D01*
X83904819Y-56038690D02*
X83904819Y-56133928D01*
X83904819Y-56133928D02*
X83857200Y-56229166D01*
X83857200Y-56229166D02*
X83809580Y-56276785D01*
X83809580Y-56276785D02*
X83714342Y-56324404D01*
X83714342Y-56324404D02*
X83523866Y-56372023D01*
X83523866Y-56372023D02*
X83285771Y-56372023D01*
X83285771Y-56372023D02*
X83095295Y-56324404D01*
X83095295Y-56324404D02*
X83000057Y-56276785D01*
X83000057Y-56276785D02*
X82952438Y-56229166D01*
X82952438Y-56229166D02*
X82904819Y-56133928D01*
X130679618Y-85554819D02*
X130346285Y-85078628D01*
X130108190Y-85554819D02*
X130108190Y-84554819D01*
X130108190Y-84554819D02*
X130489142Y-84554819D01*
X130489142Y-84554819D02*
X130584380Y-84602438D01*
X130584380Y-84602438D02*
X130631999Y-84650057D01*
X130631999Y-84650057D02*
X130679618Y-84745295D01*
X130679618Y-84745295D02*
X130679618Y-84888152D01*
X130679618Y-84888152D02*
X130631999Y-84983390D01*
X130631999Y-84983390D02*
X130584380Y-85031009D01*
X130584380Y-85031009D02*
X130489142Y-85078628D01*
X130489142Y-85078628D02*
X130108190Y-85078628D01*
X131060571Y-84650057D02*
X131108190Y-84602438D01*
X131108190Y-84602438D02*
X131203428Y-84554819D01*
X131203428Y-84554819D02*
X131441523Y-84554819D01*
X131441523Y-84554819D02*
X131536761Y-84602438D01*
X131536761Y-84602438D02*
X131584380Y-84650057D01*
X131584380Y-84650057D02*
X131631999Y-84745295D01*
X131631999Y-84745295D02*
X131631999Y-84840533D01*
X131631999Y-84840533D02*
X131584380Y-84983390D01*
X131584380Y-84983390D02*
X131012952Y-85554819D01*
X131012952Y-85554819D02*
X131631999Y-85554819D01*
X132251047Y-84554819D02*
X132346285Y-84554819D01*
X132346285Y-84554819D02*
X132441523Y-84602438D01*
X132441523Y-84602438D02*
X132489142Y-84650057D01*
X132489142Y-84650057D02*
X132536761Y-84745295D01*
X132536761Y-84745295D02*
X132584380Y-84935771D01*
X132584380Y-84935771D02*
X132584380Y-85173866D01*
X132584380Y-85173866D02*
X132536761Y-85364342D01*
X132536761Y-85364342D02*
X132489142Y-85459580D01*
X132489142Y-85459580D02*
X132441523Y-85507200D01*
X132441523Y-85507200D02*
X132346285Y-85554819D01*
X132346285Y-85554819D02*
X132251047Y-85554819D01*
X132251047Y-85554819D02*
X132155809Y-85507200D01*
X132155809Y-85507200D02*
X132108190Y-85459580D01*
X132108190Y-85459580D02*
X132060571Y-85364342D01*
X132060571Y-85364342D02*
X132012952Y-85173866D01*
X132012952Y-85173866D02*
X132012952Y-84935771D01*
X132012952Y-84935771D02*
X132060571Y-84745295D01*
X132060571Y-84745295D02*
X132108190Y-84650057D01*
X132108190Y-84650057D02*
X132155809Y-84602438D01*
X132155809Y-84602438D02*
X132251047Y-84554819D01*
X164057142Y-60174819D02*
X163723809Y-59698628D01*
X163485714Y-60174819D02*
X163485714Y-59174819D01*
X163485714Y-59174819D02*
X163866666Y-59174819D01*
X163866666Y-59174819D02*
X163961904Y-59222438D01*
X163961904Y-59222438D02*
X164009523Y-59270057D01*
X164009523Y-59270057D02*
X164057142Y-59365295D01*
X164057142Y-59365295D02*
X164057142Y-59508152D01*
X164057142Y-59508152D02*
X164009523Y-59603390D01*
X164009523Y-59603390D02*
X163961904Y-59651009D01*
X163961904Y-59651009D02*
X163866666Y-59698628D01*
X163866666Y-59698628D02*
X163485714Y-59698628D01*
X164438095Y-59270057D02*
X164485714Y-59222438D01*
X164485714Y-59222438D02*
X164580952Y-59174819D01*
X164580952Y-59174819D02*
X164819047Y-59174819D01*
X164819047Y-59174819D02*
X164914285Y-59222438D01*
X164914285Y-59222438D02*
X164961904Y-59270057D01*
X164961904Y-59270057D02*
X165009523Y-59365295D01*
X165009523Y-59365295D02*
X165009523Y-59460533D01*
X165009523Y-59460533D02*
X164961904Y-59603390D01*
X164961904Y-59603390D02*
X164390476Y-60174819D01*
X164390476Y-60174819D02*
X165009523Y-60174819D01*
X165485714Y-60174819D02*
X165676190Y-60174819D01*
X165676190Y-60174819D02*
X165771428Y-60127200D01*
X165771428Y-60127200D02*
X165819047Y-60079580D01*
X165819047Y-60079580D02*
X165914285Y-59936723D01*
X165914285Y-59936723D02*
X165961904Y-59746247D01*
X165961904Y-59746247D02*
X165961904Y-59365295D01*
X165961904Y-59365295D02*
X165914285Y-59270057D01*
X165914285Y-59270057D02*
X165866666Y-59222438D01*
X165866666Y-59222438D02*
X165771428Y-59174819D01*
X165771428Y-59174819D02*
X165580952Y-59174819D01*
X165580952Y-59174819D02*
X165485714Y-59222438D01*
X165485714Y-59222438D02*
X165438095Y-59270057D01*
X165438095Y-59270057D02*
X165390476Y-59365295D01*
X165390476Y-59365295D02*
X165390476Y-59603390D01*
X165390476Y-59603390D02*
X165438095Y-59698628D01*
X165438095Y-59698628D02*
X165485714Y-59746247D01*
X165485714Y-59746247D02*
X165580952Y-59793866D01*
X165580952Y-59793866D02*
X165771428Y-59793866D01*
X165771428Y-59793866D02*
X165866666Y-59746247D01*
X165866666Y-59746247D02*
X165914285Y-59698628D01*
X165914285Y-59698628D02*
X165961904Y-59603390D01*
X75020833Y-54859580D02*
X74973214Y-54907200D01*
X74973214Y-54907200D02*
X74830357Y-54954819D01*
X74830357Y-54954819D02*
X74735119Y-54954819D01*
X74735119Y-54954819D02*
X74592262Y-54907200D01*
X74592262Y-54907200D02*
X74497024Y-54811961D01*
X74497024Y-54811961D02*
X74449405Y-54716723D01*
X74449405Y-54716723D02*
X74401786Y-54526247D01*
X74401786Y-54526247D02*
X74401786Y-54383390D01*
X74401786Y-54383390D02*
X74449405Y-54192914D01*
X74449405Y-54192914D02*
X74497024Y-54097676D01*
X74497024Y-54097676D02*
X74592262Y-54002438D01*
X74592262Y-54002438D02*
X74735119Y-53954819D01*
X74735119Y-53954819D02*
X74830357Y-53954819D01*
X74830357Y-53954819D02*
X74973214Y-54002438D01*
X74973214Y-54002438D02*
X75020833Y-54050057D01*
X75497024Y-54954819D02*
X75687500Y-54954819D01*
X75687500Y-54954819D02*
X75782738Y-54907200D01*
X75782738Y-54907200D02*
X75830357Y-54859580D01*
X75830357Y-54859580D02*
X75925595Y-54716723D01*
X75925595Y-54716723D02*
X75973214Y-54526247D01*
X75973214Y-54526247D02*
X75973214Y-54145295D01*
X75973214Y-54145295D02*
X75925595Y-54050057D01*
X75925595Y-54050057D02*
X75877976Y-54002438D01*
X75877976Y-54002438D02*
X75782738Y-53954819D01*
X75782738Y-53954819D02*
X75592262Y-53954819D01*
X75592262Y-53954819D02*
X75497024Y-54002438D01*
X75497024Y-54002438D02*
X75449405Y-54050057D01*
X75449405Y-54050057D02*
X75401786Y-54145295D01*
X75401786Y-54145295D02*
X75401786Y-54383390D01*
X75401786Y-54383390D02*
X75449405Y-54478628D01*
X75449405Y-54478628D02*
X75497024Y-54526247D01*
X75497024Y-54526247D02*
X75592262Y-54573866D01*
X75592262Y-54573866D02*
X75782738Y-54573866D01*
X75782738Y-54573866D02*
X75877976Y-54526247D01*
X75877976Y-54526247D02*
X75925595Y-54478628D01*
X75925595Y-54478628D02*
X75973214Y-54383390D01*
X101279618Y-85554819D02*
X100946285Y-85078628D01*
X100708190Y-85554819D02*
X100708190Y-84554819D01*
X100708190Y-84554819D02*
X101089142Y-84554819D01*
X101089142Y-84554819D02*
X101184380Y-84602438D01*
X101184380Y-84602438D02*
X101231999Y-84650057D01*
X101231999Y-84650057D02*
X101279618Y-84745295D01*
X101279618Y-84745295D02*
X101279618Y-84888152D01*
X101279618Y-84888152D02*
X101231999Y-84983390D01*
X101231999Y-84983390D02*
X101184380Y-85031009D01*
X101184380Y-85031009D02*
X101089142Y-85078628D01*
X101089142Y-85078628D02*
X100708190Y-85078628D01*
X102231999Y-85554819D02*
X101660571Y-85554819D01*
X101946285Y-85554819D02*
X101946285Y-84554819D01*
X101946285Y-84554819D02*
X101851047Y-84697676D01*
X101851047Y-84697676D02*
X101755809Y-84792914D01*
X101755809Y-84792914D02*
X101660571Y-84840533D01*
X103184380Y-85554819D02*
X102612952Y-85554819D01*
X102898666Y-85554819D02*
X102898666Y-84554819D01*
X102898666Y-84554819D02*
X102803428Y-84697676D01*
X102803428Y-84697676D02*
X102708190Y-84792914D01*
X102708190Y-84792914D02*
X102612952Y-84840533D01*
X89679761Y-93575057D02*
X89584523Y-93527438D01*
X89584523Y-93527438D02*
X89489285Y-93432200D01*
X89489285Y-93432200D02*
X89346428Y-93289342D01*
X89346428Y-93289342D02*
X89251190Y-93241723D01*
X89251190Y-93241723D02*
X89155952Y-93241723D01*
X89203571Y-93479819D02*
X89108333Y-93432200D01*
X89108333Y-93432200D02*
X89013095Y-93336961D01*
X89013095Y-93336961D02*
X88965476Y-93146485D01*
X88965476Y-93146485D02*
X88965476Y-92813152D01*
X88965476Y-92813152D02*
X89013095Y-92622676D01*
X89013095Y-92622676D02*
X89108333Y-92527438D01*
X89108333Y-92527438D02*
X89203571Y-92479819D01*
X89203571Y-92479819D02*
X89394047Y-92479819D01*
X89394047Y-92479819D02*
X89489285Y-92527438D01*
X89489285Y-92527438D02*
X89584523Y-92622676D01*
X89584523Y-92622676D02*
X89632142Y-92813152D01*
X89632142Y-92813152D02*
X89632142Y-93146485D01*
X89632142Y-93146485D02*
X89584523Y-93336961D01*
X89584523Y-93336961D02*
X89489285Y-93432200D01*
X89489285Y-93432200D02*
X89394047Y-93479819D01*
X89394047Y-93479819D02*
X89203571Y-93479819D01*
X90489285Y-92813152D02*
X90489285Y-93479819D01*
X90251190Y-92432200D02*
X90013095Y-93146485D01*
X90013095Y-93146485D02*
X90632142Y-93146485D01*
X137834381Y-105304819D02*
X137834381Y-104304819D01*
X137834381Y-104304819D02*
X138072476Y-104304819D01*
X138072476Y-104304819D02*
X138215333Y-104352438D01*
X138215333Y-104352438D02*
X138310571Y-104447676D01*
X138310571Y-104447676D02*
X138358190Y-104542914D01*
X138358190Y-104542914D02*
X138405809Y-104733390D01*
X138405809Y-104733390D02*
X138405809Y-104876247D01*
X138405809Y-104876247D02*
X138358190Y-105066723D01*
X138358190Y-105066723D02*
X138310571Y-105161961D01*
X138310571Y-105161961D02*
X138215333Y-105257200D01*
X138215333Y-105257200D02*
X138072476Y-105304819D01*
X138072476Y-105304819D02*
X137834381Y-105304819D01*
X138882000Y-105304819D02*
X139072476Y-105304819D01*
X139072476Y-105304819D02*
X139167714Y-105257200D01*
X139167714Y-105257200D02*
X139215333Y-105209580D01*
X139215333Y-105209580D02*
X139310571Y-105066723D01*
X139310571Y-105066723D02*
X139358190Y-104876247D01*
X139358190Y-104876247D02*
X139358190Y-104495295D01*
X139358190Y-104495295D02*
X139310571Y-104400057D01*
X139310571Y-104400057D02*
X139262952Y-104352438D01*
X139262952Y-104352438D02*
X139167714Y-104304819D01*
X139167714Y-104304819D02*
X138977238Y-104304819D01*
X138977238Y-104304819D02*
X138882000Y-104352438D01*
X138882000Y-104352438D02*
X138834381Y-104400057D01*
X138834381Y-104400057D02*
X138786762Y-104495295D01*
X138786762Y-104495295D02*
X138786762Y-104733390D01*
X138786762Y-104733390D02*
X138834381Y-104828628D01*
X138834381Y-104828628D02*
X138882000Y-104876247D01*
X138882000Y-104876247D02*
X138977238Y-104923866D01*
X138977238Y-104923866D02*
X139167714Y-104923866D01*
X139167714Y-104923866D02*
X139262952Y-104876247D01*
X139262952Y-104876247D02*
X139310571Y-104828628D01*
X139310571Y-104828628D02*
X139358190Y-104733390D01*
X108484381Y-105304819D02*
X108484381Y-104304819D01*
X108484381Y-104304819D02*
X108722476Y-104304819D01*
X108722476Y-104304819D02*
X108865333Y-104352438D01*
X108865333Y-104352438D02*
X108960571Y-104447676D01*
X108960571Y-104447676D02*
X109008190Y-104542914D01*
X109008190Y-104542914D02*
X109055809Y-104733390D01*
X109055809Y-104733390D02*
X109055809Y-104876247D01*
X109055809Y-104876247D02*
X109008190Y-105066723D01*
X109008190Y-105066723D02*
X108960571Y-105161961D01*
X108960571Y-105161961D02*
X108865333Y-105257200D01*
X108865333Y-105257200D02*
X108722476Y-105304819D01*
X108722476Y-105304819D02*
X108484381Y-105304819D01*
X109912952Y-104304819D02*
X109722476Y-104304819D01*
X109722476Y-104304819D02*
X109627238Y-104352438D01*
X109627238Y-104352438D02*
X109579619Y-104400057D01*
X109579619Y-104400057D02*
X109484381Y-104542914D01*
X109484381Y-104542914D02*
X109436762Y-104733390D01*
X109436762Y-104733390D02*
X109436762Y-105114342D01*
X109436762Y-105114342D02*
X109484381Y-105209580D01*
X109484381Y-105209580D02*
X109532000Y-105257200D01*
X109532000Y-105257200D02*
X109627238Y-105304819D01*
X109627238Y-105304819D02*
X109817714Y-105304819D01*
X109817714Y-105304819D02*
X109912952Y-105257200D01*
X109912952Y-105257200D02*
X109960571Y-105209580D01*
X109960571Y-105209580D02*
X110008190Y-105114342D01*
X110008190Y-105114342D02*
X110008190Y-104876247D01*
X110008190Y-104876247D02*
X109960571Y-104781009D01*
X109960571Y-104781009D02*
X109912952Y-104733390D01*
X109912952Y-104733390D02*
X109817714Y-104685771D01*
X109817714Y-104685771D02*
X109627238Y-104685771D01*
X109627238Y-104685771D02*
X109532000Y-104733390D01*
X109532000Y-104733390D02*
X109484381Y-104781009D01*
X109484381Y-104781009D02*
X109436762Y-104876247D01*
X176466666Y-81054819D02*
X176466666Y-81769104D01*
X176466666Y-81769104D02*
X176419047Y-81911961D01*
X176419047Y-81911961D02*
X176323809Y-82007200D01*
X176323809Y-82007200D02*
X176180952Y-82054819D01*
X176180952Y-82054819D02*
X176085714Y-82054819D01*
X176895238Y-81150057D02*
X176942857Y-81102438D01*
X176942857Y-81102438D02*
X177038095Y-81054819D01*
X177038095Y-81054819D02*
X177276190Y-81054819D01*
X177276190Y-81054819D02*
X177371428Y-81102438D01*
X177371428Y-81102438D02*
X177419047Y-81150057D01*
X177419047Y-81150057D02*
X177466666Y-81245295D01*
X177466666Y-81245295D02*
X177466666Y-81340533D01*
X177466666Y-81340533D02*
X177419047Y-81483390D01*
X177419047Y-81483390D02*
X176847619Y-82054819D01*
X176847619Y-82054819D02*
X177466666Y-82054819D01*
X157108190Y-105304819D02*
X157108190Y-104304819D01*
X157108190Y-104304819D02*
X157346285Y-104304819D01*
X157346285Y-104304819D02*
X157489142Y-104352438D01*
X157489142Y-104352438D02*
X157584380Y-104447676D01*
X157584380Y-104447676D02*
X157631999Y-104542914D01*
X157631999Y-104542914D02*
X157679618Y-104733390D01*
X157679618Y-104733390D02*
X157679618Y-104876247D01*
X157679618Y-104876247D02*
X157631999Y-105066723D01*
X157631999Y-105066723D02*
X157584380Y-105161961D01*
X157584380Y-105161961D02*
X157489142Y-105257200D01*
X157489142Y-105257200D02*
X157346285Y-105304819D01*
X157346285Y-105304819D02*
X157108190Y-105304819D01*
X158631999Y-105304819D02*
X158060571Y-105304819D01*
X158346285Y-105304819D02*
X158346285Y-104304819D01*
X158346285Y-104304819D02*
X158251047Y-104447676D01*
X158251047Y-104447676D02*
X158155809Y-104542914D01*
X158155809Y-104542914D02*
X158060571Y-104590533D01*
X159584380Y-105304819D02*
X159012952Y-105304819D01*
X159298666Y-105304819D02*
X159298666Y-104304819D01*
X159298666Y-104304819D02*
X159203428Y-104447676D01*
X159203428Y-104447676D02*
X159108190Y-104542914D01*
X159108190Y-104542914D02*
X159012952Y-104590533D01*
X62455809Y-85529819D02*
X62122476Y-85053628D01*
X61884381Y-85529819D02*
X61884381Y-84529819D01*
X61884381Y-84529819D02*
X62265333Y-84529819D01*
X62265333Y-84529819D02*
X62360571Y-84577438D01*
X62360571Y-84577438D02*
X62408190Y-84625057D01*
X62408190Y-84625057D02*
X62455809Y-84720295D01*
X62455809Y-84720295D02*
X62455809Y-84863152D01*
X62455809Y-84863152D02*
X62408190Y-84958390D01*
X62408190Y-84958390D02*
X62360571Y-85006009D01*
X62360571Y-85006009D02*
X62265333Y-85053628D01*
X62265333Y-85053628D02*
X61884381Y-85053628D01*
X62789143Y-84529819D02*
X63455809Y-84529819D01*
X63455809Y-84529819D02*
X63027238Y-85529819D01*
X116329618Y-85604819D02*
X115996285Y-85128628D01*
X115758190Y-85604819D02*
X115758190Y-84604819D01*
X115758190Y-84604819D02*
X116139142Y-84604819D01*
X116139142Y-84604819D02*
X116234380Y-84652438D01*
X116234380Y-84652438D02*
X116281999Y-84700057D01*
X116281999Y-84700057D02*
X116329618Y-84795295D01*
X116329618Y-84795295D02*
X116329618Y-84938152D01*
X116329618Y-84938152D02*
X116281999Y-85033390D01*
X116281999Y-85033390D02*
X116234380Y-85081009D01*
X116234380Y-85081009D02*
X116139142Y-85128628D01*
X116139142Y-85128628D02*
X115758190Y-85128628D01*
X117281999Y-85604819D02*
X116710571Y-85604819D01*
X116996285Y-85604819D02*
X116996285Y-84604819D01*
X116996285Y-84604819D02*
X116901047Y-84747676D01*
X116901047Y-84747676D02*
X116805809Y-84842914D01*
X116805809Y-84842914D02*
X116710571Y-84890533D01*
X117615333Y-84604819D02*
X118234380Y-84604819D01*
X118234380Y-84604819D02*
X117901047Y-84985771D01*
X117901047Y-84985771D02*
X118043904Y-84985771D01*
X118043904Y-84985771D02*
X118139142Y-85033390D01*
X118139142Y-85033390D02*
X118186761Y-85081009D01*
X118186761Y-85081009D02*
X118234380Y-85176247D01*
X118234380Y-85176247D02*
X118234380Y-85414342D01*
X118234380Y-85414342D02*
X118186761Y-85509580D01*
X118186761Y-85509580D02*
X118139142Y-85557200D01*
X118139142Y-85557200D02*
X118043904Y-85604819D01*
X118043904Y-85604819D02*
X117758190Y-85604819D01*
X117758190Y-85604819D02*
X117662952Y-85557200D01*
X117662952Y-85557200D02*
X117615333Y-85509580D01*
X122883333Y-61309580D02*
X122835714Y-61357200D01*
X122835714Y-61357200D02*
X122692857Y-61404819D01*
X122692857Y-61404819D02*
X122597619Y-61404819D01*
X122597619Y-61404819D02*
X122454762Y-61357200D01*
X122454762Y-61357200D02*
X122359524Y-61261961D01*
X122359524Y-61261961D02*
X122311905Y-61166723D01*
X122311905Y-61166723D02*
X122264286Y-60976247D01*
X122264286Y-60976247D02*
X122264286Y-60833390D01*
X122264286Y-60833390D02*
X122311905Y-60642914D01*
X122311905Y-60642914D02*
X122359524Y-60547676D01*
X122359524Y-60547676D02*
X122454762Y-60452438D01*
X122454762Y-60452438D02*
X122597619Y-60404819D01*
X122597619Y-60404819D02*
X122692857Y-60404819D01*
X122692857Y-60404819D02*
X122835714Y-60452438D01*
X122835714Y-60452438D02*
X122883333Y-60500057D01*
X123740476Y-60404819D02*
X123550000Y-60404819D01*
X123550000Y-60404819D02*
X123454762Y-60452438D01*
X123454762Y-60452438D02*
X123407143Y-60500057D01*
X123407143Y-60500057D02*
X123311905Y-60642914D01*
X123311905Y-60642914D02*
X123264286Y-60833390D01*
X123264286Y-60833390D02*
X123264286Y-61214342D01*
X123264286Y-61214342D02*
X123311905Y-61309580D01*
X123311905Y-61309580D02*
X123359524Y-61357200D01*
X123359524Y-61357200D02*
X123454762Y-61404819D01*
X123454762Y-61404819D02*
X123645238Y-61404819D01*
X123645238Y-61404819D02*
X123740476Y-61357200D01*
X123740476Y-61357200D02*
X123788095Y-61309580D01*
X123788095Y-61309580D02*
X123835714Y-61214342D01*
X123835714Y-61214342D02*
X123835714Y-60976247D01*
X123835714Y-60976247D02*
X123788095Y-60881009D01*
X123788095Y-60881009D02*
X123740476Y-60833390D01*
X123740476Y-60833390D02*
X123645238Y-60785771D01*
X123645238Y-60785771D02*
X123454762Y-60785771D01*
X123454762Y-60785771D02*
X123359524Y-60833390D01*
X123359524Y-60833390D02*
X123311905Y-60881009D01*
X123311905Y-60881009D02*
X123264286Y-60976247D01*
X99479761Y-93525057D02*
X99384523Y-93477438D01*
X99384523Y-93477438D02*
X99289285Y-93382200D01*
X99289285Y-93382200D02*
X99146428Y-93239342D01*
X99146428Y-93239342D02*
X99051190Y-93191723D01*
X99051190Y-93191723D02*
X98955952Y-93191723D01*
X99003571Y-93429819D02*
X98908333Y-93382200D01*
X98908333Y-93382200D02*
X98813095Y-93286961D01*
X98813095Y-93286961D02*
X98765476Y-93096485D01*
X98765476Y-93096485D02*
X98765476Y-92763152D01*
X98765476Y-92763152D02*
X98813095Y-92572676D01*
X98813095Y-92572676D02*
X98908333Y-92477438D01*
X98908333Y-92477438D02*
X99003571Y-92429819D01*
X99003571Y-92429819D02*
X99194047Y-92429819D01*
X99194047Y-92429819D02*
X99289285Y-92477438D01*
X99289285Y-92477438D02*
X99384523Y-92572676D01*
X99384523Y-92572676D02*
X99432142Y-92763152D01*
X99432142Y-92763152D02*
X99432142Y-93096485D01*
X99432142Y-93096485D02*
X99384523Y-93286961D01*
X99384523Y-93286961D02*
X99289285Y-93382200D01*
X99289285Y-93382200D02*
X99194047Y-93429819D01*
X99194047Y-93429819D02*
X99003571Y-93429819D01*
X100336904Y-92429819D02*
X99860714Y-92429819D01*
X99860714Y-92429819D02*
X99813095Y-92906009D01*
X99813095Y-92906009D02*
X99860714Y-92858390D01*
X99860714Y-92858390D02*
X99955952Y-92810771D01*
X99955952Y-92810771D02*
X100194047Y-92810771D01*
X100194047Y-92810771D02*
X100289285Y-92858390D01*
X100289285Y-92858390D02*
X100336904Y-92906009D01*
X100336904Y-92906009D02*
X100384523Y-93001247D01*
X100384523Y-93001247D02*
X100384523Y-93239342D01*
X100384523Y-93239342D02*
X100336904Y-93334580D01*
X100336904Y-93334580D02*
X100289285Y-93382200D01*
X100289285Y-93382200D02*
X100194047Y-93429819D01*
X100194047Y-93429819D02*
X99955952Y-93429819D01*
X99955952Y-93429819D02*
X99860714Y-93382200D01*
X99860714Y-93382200D02*
X99813095Y-93334580D01*
X63104819Y-57166666D02*
X63104819Y-57642856D01*
X63104819Y-57642856D02*
X62104819Y-57642856D01*
X63104819Y-56309523D02*
X63104819Y-56880951D01*
X63104819Y-56595237D02*
X62104819Y-56595237D01*
X62104819Y-56595237D02*
X62247676Y-56690475D01*
X62247676Y-56690475D02*
X62342914Y-56785713D01*
X62342914Y-56785713D02*
X62390533Y-56880951D01*
X148103571Y-93625057D02*
X148008333Y-93577438D01*
X148008333Y-93577438D02*
X147913095Y-93482200D01*
X147913095Y-93482200D02*
X147770238Y-93339342D01*
X147770238Y-93339342D02*
X147675000Y-93291723D01*
X147675000Y-93291723D02*
X147579762Y-93291723D01*
X147627381Y-93529819D02*
X147532143Y-93482200D01*
X147532143Y-93482200D02*
X147436905Y-93386961D01*
X147436905Y-93386961D02*
X147389286Y-93196485D01*
X147389286Y-93196485D02*
X147389286Y-92863152D01*
X147389286Y-92863152D02*
X147436905Y-92672676D01*
X147436905Y-92672676D02*
X147532143Y-92577438D01*
X147532143Y-92577438D02*
X147627381Y-92529819D01*
X147627381Y-92529819D02*
X147817857Y-92529819D01*
X147817857Y-92529819D02*
X147913095Y-92577438D01*
X147913095Y-92577438D02*
X148008333Y-92672676D01*
X148008333Y-92672676D02*
X148055952Y-92863152D01*
X148055952Y-92863152D02*
X148055952Y-93196485D01*
X148055952Y-93196485D02*
X148008333Y-93386961D01*
X148008333Y-93386961D02*
X147913095Y-93482200D01*
X147913095Y-93482200D02*
X147817857Y-93529819D01*
X147817857Y-93529819D02*
X147627381Y-93529819D01*
X149008333Y-93529819D02*
X148436905Y-93529819D01*
X148722619Y-93529819D02*
X148722619Y-92529819D01*
X148722619Y-92529819D02*
X148627381Y-92672676D01*
X148627381Y-92672676D02*
X148532143Y-92767914D01*
X148532143Y-92767914D02*
X148436905Y-92815533D01*
X149627381Y-92529819D02*
X149722619Y-92529819D01*
X149722619Y-92529819D02*
X149817857Y-92577438D01*
X149817857Y-92577438D02*
X149865476Y-92625057D01*
X149865476Y-92625057D02*
X149913095Y-92720295D01*
X149913095Y-92720295D02*
X149960714Y-92910771D01*
X149960714Y-92910771D02*
X149960714Y-93148866D01*
X149960714Y-93148866D02*
X149913095Y-93339342D01*
X149913095Y-93339342D02*
X149865476Y-93434580D01*
X149865476Y-93434580D02*
X149817857Y-93482200D01*
X149817857Y-93482200D02*
X149722619Y-93529819D01*
X149722619Y-93529819D02*
X149627381Y-93529819D01*
X149627381Y-93529819D02*
X149532143Y-93482200D01*
X149532143Y-93482200D02*
X149484524Y-93434580D01*
X149484524Y-93434580D02*
X149436905Y-93339342D01*
X149436905Y-93339342D02*
X149389286Y-93148866D01*
X149389286Y-93148866D02*
X149389286Y-92910771D01*
X149389286Y-92910771D02*
X149436905Y-92720295D01*
X149436905Y-92720295D02*
X149484524Y-92625057D01*
X149484524Y-92625057D02*
X149532143Y-92577438D01*
X149532143Y-92577438D02*
X149627381Y-92529819D01*
X169929618Y-85504819D02*
X169596285Y-85028628D01*
X169358190Y-85504819D02*
X169358190Y-84504819D01*
X169358190Y-84504819D02*
X169739142Y-84504819D01*
X169739142Y-84504819D02*
X169834380Y-84552438D01*
X169834380Y-84552438D02*
X169881999Y-84600057D01*
X169881999Y-84600057D02*
X169929618Y-84695295D01*
X169929618Y-84695295D02*
X169929618Y-84838152D01*
X169929618Y-84838152D02*
X169881999Y-84933390D01*
X169881999Y-84933390D02*
X169834380Y-84981009D01*
X169834380Y-84981009D02*
X169739142Y-85028628D01*
X169739142Y-85028628D02*
X169358190Y-85028628D01*
X170310571Y-84600057D02*
X170358190Y-84552438D01*
X170358190Y-84552438D02*
X170453428Y-84504819D01*
X170453428Y-84504819D02*
X170691523Y-84504819D01*
X170691523Y-84504819D02*
X170786761Y-84552438D01*
X170786761Y-84552438D02*
X170834380Y-84600057D01*
X170834380Y-84600057D02*
X170881999Y-84695295D01*
X170881999Y-84695295D02*
X170881999Y-84790533D01*
X170881999Y-84790533D02*
X170834380Y-84933390D01*
X170834380Y-84933390D02*
X170262952Y-85504819D01*
X170262952Y-85504819D02*
X170881999Y-85504819D01*
X171739142Y-84838152D02*
X171739142Y-85504819D01*
X171501047Y-84457200D02*
X171262952Y-85171485D01*
X171262952Y-85171485D02*
X171881999Y-85171485D01*
X167258190Y-105354819D02*
X167258190Y-104354819D01*
X167258190Y-104354819D02*
X167496285Y-104354819D01*
X167496285Y-104354819D02*
X167639142Y-104402438D01*
X167639142Y-104402438D02*
X167734380Y-104497676D01*
X167734380Y-104497676D02*
X167781999Y-104592914D01*
X167781999Y-104592914D02*
X167829618Y-104783390D01*
X167829618Y-104783390D02*
X167829618Y-104926247D01*
X167829618Y-104926247D02*
X167781999Y-105116723D01*
X167781999Y-105116723D02*
X167734380Y-105211961D01*
X167734380Y-105211961D02*
X167639142Y-105307200D01*
X167639142Y-105307200D02*
X167496285Y-105354819D01*
X167496285Y-105354819D02*
X167258190Y-105354819D01*
X168781999Y-105354819D02*
X168210571Y-105354819D01*
X168496285Y-105354819D02*
X168496285Y-104354819D01*
X168496285Y-104354819D02*
X168401047Y-104497676D01*
X168401047Y-104497676D02*
X168305809Y-104592914D01*
X168305809Y-104592914D02*
X168210571Y-104640533D01*
X169162952Y-104450057D02*
X169210571Y-104402438D01*
X169210571Y-104402438D02*
X169305809Y-104354819D01*
X169305809Y-104354819D02*
X169543904Y-104354819D01*
X169543904Y-104354819D02*
X169639142Y-104402438D01*
X169639142Y-104402438D02*
X169686761Y-104450057D01*
X169686761Y-104450057D02*
X169734380Y-104545295D01*
X169734380Y-104545295D02*
X169734380Y-104640533D01*
X169734380Y-104640533D02*
X169686761Y-104783390D01*
X169686761Y-104783390D02*
X169115333Y-105354819D01*
X169115333Y-105354819D02*
X169734380Y-105354819D01*
X79879761Y-93625057D02*
X79784523Y-93577438D01*
X79784523Y-93577438D02*
X79689285Y-93482200D01*
X79689285Y-93482200D02*
X79546428Y-93339342D01*
X79546428Y-93339342D02*
X79451190Y-93291723D01*
X79451190Y-93291723D02*
X79355952Y-93291723D01*
X79403571Y-93529819D02*
X79308333Y-93482200D01*
X79308333Y-93482200D02*
X79213095Y-93386961D01*
X79213095Y-93386961D02*
X79165476Y-93196485D01*
X79165476Y-93196485D02*
X79165476Y-92863152D01*
X79165476Y-92863152D02*
X79213095Y-92672676D01*
X79213095Y-92672676D02*
X79308333Y-92577438D01*
X79308333Y-92577438D02*
X79403571Y-92529819D01*
X79403571Y-92529819D02*
X79594047Y-92529819D01*
X79594047Y-92529819D02*
X79689285Y-92577438D01*
X79689285Y-92577438D02*
X79784523Y-92672676D01*
X79784523Y-92672676D02*
X79832142Y-92863152D01*
X79832142Y-92863152D02*
X79832142Y-93196485D01*
X79832142Y-93196485D02*
X79784523Y-93386961D01*
X79784523Y-93386961D02*
X79689285Y-93482200D01*
X79689285Y-93482200D02*
X79594047Y-93529819D01*
X79594047Y-93529819D02*
X79403571Y-93529819D01*
X80165476Y-92529819D02*
X80784523Y-92529819D01*
X80784523Y-92529819D02*
X80451190Y-92910771D01*
X80451190Y-92910771D02*
X80594047Y-92910771D01*
X80594047Y-92910771D02*
X80689285Y-92958390D01*
X80689285Y-92958390D02*
X80736904Y-93006009D01*
X80736904Y-93006009D02*
X80784523Y-93101247D01*
X80784523Y-93101247D02*
X80784523Y-93339342D01*
X80784523Y-93339342D02*
X80736904Y-93434580D01*
X80736904Y-93434580D02*
X80689285Y-93482200D01*
X80689285Y-93482200D02*
X80594047Y-93529819D01*
X80594047Y-93529819D02*
X80308333Y-93529819D01*
X80308333Y-93529819D02*
X80213095Y-93482200D01*
X80213095Y-93482200D02*
X80165476Y-93434580D01*
X59536905Y-105304819D02*
X59536905Y-104304819D01*
X59536905Y-104304819D02*
X59775000Y-104304819D01*
X59775000Y-104304819D02*
X59917857Y-104352438D01*
X59917857Y-104352438D02*
X60013095Y-104447676D01*
X60013095Y-104447676D02*
X60060714Y-104542914D01*
X60060714Y-104542914D02*
X60108333Y-104733390D01*
X60108333Y-104733390D02*
X60108333Y-104876247D01*
X60108333Y-104876247D02*
X60060714Y-105066723D01*
X60060714Y-105066723D02*
X60013095Y-105161961D01*
X60013095Y-105161961D02*
X59917857Y-105257200D01*
X59917857Y-105257200D02*
X59775000Y-105304819D01*
X59775000Y-105304819D02*
X59536905Y-105304819D01*
X61060714Y-105304819D02*
X60489286Y-105304819D01*
X60775000Y-105304819D02*
X60775000Y-104304819D01*
X60775000Y-104304819D02*
X60679762Y-104447676D01*
X60679762Y-104447676D02*
X60584524Y-104542914D01*
X60584524Y-104542914D02*
X60489286Y-104590533D01*
X98736905Y-105304819D02*
X98736905Y-104304819D01*
X98736905Y-104304819D02*
X98975000Y-104304819D01*
X98975000Y-104304819D02*
X99117857Y-104352438D01*
X99117857Y-104352438D02*
X99213095Y-104447676D01*
X99213095Y-104447676D02*
X99260714Y-104542914D01*
X99260714Y-104542914D02*
X99308333Y-104733390D01*
X99308333Y-104733390D02*
X99308333Y-104876247D01*
X99308333Y-104876247D02*
X99260714Y-105066723D01*
X99260714Y-105066723D02*
X99213095Y-105161961D01*
X99213095Y-105161961D02*
X99117857Y-105257200D01*
X99117857Y-105257200D02*
X98975000Y-105304819D01*
X98975000Y-105304819D02*
X98736905Y-105304819D01*
X100213095Y-104304819D02*
X99736905Y-104304819D01*
X99736905Y-104304819D02*
X99689286Y-104781009D01*
X99689286Y-104781009D02*
X99736905Y-104733390D01*
X99736905Y-104733390D02*
X99832143Y-104685771D01*
X99832143Y-104685771D02*
X100070238Y-104685771D01*
X100070238Y-104685771D02*
X100165476Y-104733390D01*
X100165476Y-104733390D02*
X100213095Y-104781009D01*
X100213095Y-104781009D02*
X100260714Y-104876247D01*
X100260714Y-104876247D02*
X100260714Y-105114342D01*
X100260714Y-105114342D02*
X100213095Y-105209580D01*
X100213095Y-105209580D02*
X100165476Y-105257200D01*
X100165476Y-105257200D02*
X100070238Y-105304819D01*
X100070238Y-105304819D02*
X99832143Y-105304819D01*
X99832143Y-105304819D02*
X99736905Y-105257200D01*
X99736905Y-105257200D02*
X99689286Y-105209580D01*
X145729618Y-85554819D02*
X145396285Y-85078628D01*
X145158190Y-85554819D02*
X145158190Y-84554819D01*
X145158190Y-84554819D02*
X145539142Y-84554819D01*
X145539142Y-84554819D02*
X145634380Y-84602438D01*
X145634380Y-84602438D02*
X145681999Y-84650057D01*
X145681999Y-84650057D02*
X145729618Y-84745295D01*
X145729618Y-84745295D02*
X145729618Y-84888152D01*
X145729618Y-84888152D02*
X145681999Y-84983390D01*
X145681999Y-84983390D02*
X145634380Y-85031009D01*
X145634380Y-85031009D02*
X145539142Y-85078628D01*
X145539142Y-85078628D02*
X145158190Y-85078628D01*
X146681999Y-85554819D02*
X146110571Y-85554819D01*
X146396285Y-85554819D02*
X146396285Y-84554819D01*
X146396285Y-84554819D02*
X146301047Y-84697676D01*
X146301047Y-84697676D02*
X146205809Y-84792914D01*
X146205809Y-84792914D02*
X146110571Y-84840533D01*
X147539142Y-84554819D02*
X147348666Y-84554819D01*
X147348666Y-84554819D02*
X147253428Y-84602438D01*
X147253428Y-84602438D02*
X147205809Y-84650057D01*
X147205809Y-84650057D02*
X147110571Y-84792914D01*
X147110571Y-84792914D02*
X147062952Y-84983390D01*
X147062952Y-84983390D02*
X147062952Y-85364342D01*
X147062952Y-85364342D02*
X147110571Y-85459580D01*
X147110571Y-85459580D02*
X147158190Y-85507200D01*
X147158190Y-85507200D02*
X147253428Y-85554819D01*
X147253428Y-85554819D02*
X147443904Y-85554819D01*
X147443904Y-85554819D02*
X147539142Y-85507200D01*
X147539142Y-85507200D02*
X147586761Y-85459580D01*
X147586761Y-85459580D02*
X147634380Y-85364342D01*
X147634380Y-85364342D02*
X147634380Y-85126247D01*
X147634380Y-85126247D02*
X147586761Y-85031009D01*
X147586761Y-85031009D02*
X147539142Y-84983390D01*
X147539142Y-84983390D02*
X147443904Y-84935771D01*
X147443904Y-84935771D02*
X147253428Y-84935771D01*
X147253428Y-84935771D02*
X147158190Y-84983390D01*
X147158190Y-84983390D02*
X147110571Y-85031009D01*
X147110571Y-85031009D02*
X147062952Y-85126247D01*
X73807142Y-57009580D02*
X73759523Y-57057200D01*
X73759523Y-57057200D02*
X73616666Y-57104819D01*
X73616666Y-57104819D02*
X73521428Y-57104819D01*
X73521428Y-57104819D02*
X73378571Y-57057200D01*
X73378571Y-57057200D02*
X73283333Y-56961961D01*
X73283333Y-56961961D02*
X73235714Y-56866723D01*
X73235714Y-56866723D02*
X73188095Y-56676247D01*
X73188095Y-56676247D02*
X73188095Y-56533390D01*
X73188095Y-56533390D02*
X73235714Y-56342914D01*
X73235714Y-56342914D02*
X73283333Y-56247676D01*
X73283333Y-56247676D02*
X73378571Y-56152438D01*
X73378571Y-56152438D02*
X73521428Y-56104819D01*
X73521428Y-56104819D02*
X73616666Y-56104819D01*
X73616666Y-56104819D02*
X73759523Y-56152438D01*
X73759523Y-56152438D02*
X73807142Y-56200057D01*
X74759523Y-57104819D02*
X74188095Y-57104819D01*
X74473809Y-57104819D02*
X74473809Y-56104819D01*
X74473809Y-56104819D02*
X74378571Y-56247676D01*
X74378571Y-56247676D02*
X74283333Y-56342914D01*
X74283333Y-56342914D02*
X74188095Y-56390533D01*
X75378571Y-56104819D02*
X75473809Y-56104819D01*
X75473809Y-56104819D02*
X75569047Y-56152438D01*
X75569047Y-56152438D02*
X75616666Y-56200057D01*
X75616666Y-56200057D02*
X75664285Y-56295295D01*
X75664285Y-56295295D02*
X75711904Y-56485771D01*
X75711904Y-56485771D02*
X75711904Y-56723866D01*
X75711904Y-56723866D02*
X75664285Y-56914342D01*
X75664285Y-56914342D02*
X75616666Y-57009580D01*
X75616666Y-57009580D02*
X75569047Y-57057200D01*
X75569047Y-57057200D02*
X75473809Y-57104819D01*
X75473809Y-57104819D02*
X75378571Y-57104819D01*
X75378571Y-57104819D02*
X75283333Y-57057200D01*
X75283333Y-57057200D02*
X75235714Y-57009580D01*
X75235714Y-57009580D02*
X75188095Y-56914342D01*
X75188095Y-56914342D02*
X75140476Y-56723866D01*
X75140476Y-56723866D02*
X75140476Y-56485771D01*
X75140476Y-56485771D02*
X75188095Y-56295295D01*
X75188095Y-56295295D02*
X75235714Y-56200057D01*
X75235714Y-56200057D02*
X75283333Y-56152438D01*
X75283333Y-56152438D02*
X75378571Y-56104819D01*
X123044819Y-75061904D02*
X123854342Y-75061904D01*
X123854342Y-75061904D02*
X123949580Y-75014285D01*
X123949580Y-75014285D02*
X123997200Y-74966666D01*
X123997200Y-74966666D02*
X124044819Y-74871428D01*
X124044819Y-74871428D02*
X124044819Y-74680952D01*
X124044819Y-74680952D02*
X123997200Y-74585714D01*
X123997200Y-74585714D02*
X123949580Y-74538095D01*
X123949580Y-74538095D02*
X123854342Y-74490476D01*
X123854342Y-74490476D02*
X123044819Y-74490476D01*
X123140057Y-74061904D02*
X123092438Y-74014285D01*
X123092438Y-74014285D02*
X123044819Y-73919047D01*
X123044819Y-73919047D02*
X123044819Y-73680952D01*
X123044819Y-73680952D02*
X123092438Y-73585714D01*
X123092438Y-73585714D02*
X123140057Y-73538095D01*
X123140057Y-73538095D02*
X123235295Y-73490476D01*
X123235295Y-73490476D02*
X123330533Y-73490476D01*
X123330533Y-73490476D02*
X123473390Y-73538095D01*
X123473390Y-73538095D02*
X124044819Y-74109523D01*
X124044819Y-74109523D02*
X124044819Y-73490476D01*
X57955809Y-85604819D02*
X57622476Y-85128628D01*
X57384381Y-85604819D02*
X57384381Y-84604819D01*
X57384381Y-84604819D02*
X57765333Y-84604819D01*
X57765333Y-84604819D02*
X57860571Y-84652438D01*
X57860571Y-84652438D02*
X57908190Y-84700057D01*
X57908190Y-84700057D02*
X57955809Y-84795295D01*
X57955809Y-84795295D02*
X57955809Y-84938152D01*
X57955809Y-84938152D02*
X57908190Y-85033390D01*
X57908190Y-85033390D02*
X57860571Y-85081009D01*
X57860571Y-85081009D02*
X57765333Y-85128628D01*
X57765333Y-85128628D02*
X57384381Y-85128628D01*
X58908190Y-85604819D02*
X58336762Y-85604819D01*
X58622476Y-85604819D02*
X58622476Y-84604819D01*
X58622476Y-84604819D02*
X58527238Y-84747676D01*
X58527238Y-84747676D02*
X58432000Y-84842914D01*
X58432000Y-84842914D02*
X58336762Y-84890533D01*
X156980952Y-63254819D02*
X156504762Y-63254819D01*
X156504762Y-63254819D02*
X156504762Y-62254819D01*
X157314286Y-62731009D02*
X157647619Y-62731009D01*
X157790476Y-63254819D02*
X157314286Y-63254819D01*
X157314286Y-63254819D02*
X157314286Y-62254819D01*
X157314286Y-62254819D02*
X157790476Y-62254819D01*
X158219048Y-63254819D02*
X158219048Y-62254819D01*
X158219048Y-62254819D02*
X158457143Y-62254819D01*
X158457143Y-62254819D02*
X158600000Y-62302438D01*
X158600000Y-62302438D02*
X158695238Y-62397676D01*
X158695238Y-62397676D02*
X158742857Y-62492914D01*
X158742857Y-62492914D02*
X158790476Y-62683390D01*
X158790476Y-62683390D02*
X158790476Y-62826247D01*
X158790476Y-62826247D02*
X158742857Y-63016723D01*
X158742857Y-63016723D02*
X158695238Y-63111961D01*
X158695238Y-63111961D02*
X158600000Y-63207200D01*
X158600000Y-63207200D02*
X158457143Y-63254819D01*
X158457143Y-63254819D02*
X158219048Y-63254819D01*
X159742857Y-63254819D02*
X159171429Y-63254819D01*
X159457143Y-63254819D02*
X159457143Y-62254819D01*
X159457143Y-62254819D02*
X159361905Y-62397676D01*
X159361905Y-62397676D02*
X159266667Y-62492914D01*
X159266667Y-62492914D02*
X159171429Y-62540533D01*
X111029618Y-85554819D02*
X110696285Y-85078628D01*
X110458190Y-85554819D02*
X110458190Y-84554819D01*
X110458190Y-84554819D02*
X110839142Y-84554819D01*
X110839142Y-84554819D02*
X110934380Y-84602438D01*
X110934380Y-84602438D02*
X110981999Y-84650057D01*
X110981999Y-84650057D02*
X111029618Y-84745295D01*
X111029618Y-84745295D02*
X111029618Y-84888152D01*
X111029618Y-84888152D02*
X110981999Y-84983390D01*
X110981999Y-84983390D02*
X110934380Y-85031009D01*
X110934380Y-85031009D02*
X110839142Y-85078628D01*
X110839142Y-85078628D02*
X110458190Y-85078628D01*
X111981999Y-85554819D02*
X111410571Y-85554819D01*
X111696285Y-85554819D02*
X111696285Y-84554819D01*
X111696285Y-84554819D02*
X111601047Y-84697676D01*
X111601047Y-84697676D02*
X111505809Y-84792914D01*
X111505809Y-84792914D02*
X111410571Y-84840533D01*
X112362952Y-84650057D02*
X112410571Y-84602438D01*
X112410571Y-84602438D02*
X112505809Y-84554819D01*
X112505809Y-84554819D02*
X112743904Y-84554819D01*
X112743904Y-84554819D02*
X112839142Y-84602438D01*
X112839142Y-84602438D02*
X112886761Y-84650057D01*
X112886761Y-84650057D02*
X112934380Y-84745295D01*
X112934380Y-84745295D02*
X112934380Y-84840533D01*
X112934380Y-84840533D02*
X112886761Y-84983390D01*
X112886761Y-84983390D02*
X112315333Y-85554819D01*
X112315333Y-85554819D02*
X112934380Y-85554819D01*
X149107142Y-63804819D02*
X148773809Y-63328628D01*
X148535714Y-63804819D02*
X148535714Y-62804819D01*
X148535714Y-62804819D02*
X148916666Y-62804819D01*
X148916666Y-62804819D02*
X149011904Y-62852438D01*
X149011904Y-62852438D02*
X149059523Y-62900057D01*
X149059523Y-62900057D02*
X149107142Y-62995295D01*
X149107142Y-62995295D02*
X149107142Y-63138152D01*
X149107142Y-63138152D02*
X149059523Y-63233390D01*
X149059523Y-63233390D02*
X149011904Y-63281009D01*
X149011904Y-63281009D02*
X148916666Y-63328628D01*
X148916666Y-63328628D02*
X148535714Y-63328628D01*
X149488095Y-62900057D02*
X149535714Y-62852438D01*
X149535714Y-62852438D02*
X149630952Y-62804819D01*
X149630952Y-62804819D02*
X149869047Y-62804819D01*
X149869047Y-62804819D02*
X149964285Y-62852438D01*
X149964285Y-62852438D02*
X150011904Y-62900057D01*
X150011904Y-62900057D02*
X150059523Y-62995295D01*
X150059523Y-62995295D02*
X150059523Y-63090533D01*
X150059523Y-63090533D02*
X150011904Y-63233390D01*
X150011904Y-63233390D02*
X149440476Y-63804819D01*
X149440476Y-63804819D02*
X150059523Y-63804819D01*
X150630952Y-63233390D02*
X150535714Y-63185771D01*
X150535714Y-63185771D02*
X150488095Y-63138152D01*
X150488095Y-63138152D02*
X150440476Y-63042914D01*
X150440476Y-63042914D02*
X150440476Y-62995295D01*
X150440476Y-62995295D02*
X150488095Y-62900057D01*
X150488095Y-62900057D02*
X150535714Y-62852438D01*
X150535714Y-62852438D02*
X150630952Y-62804819D01*
X150630952Y-62804819D02*
X150821428Y-62804819D01*
X150821428Y-62804819D02*
X150916666Y-62852438D01*
X150916666Y-62852438D02*
X150964285Y-62900057D01*
X150964285Y-62900057D02*
X151011904Y-62995295D01*
X151011904Y-62995295D02*
X151011904Y-63042914D01*
X151011904Y-63042914D02*
X150964285Y-63138152D01*
X150964285Y-63138152D02*
X150916666Y-63185771D01*
X150916666Y-63185771D02*
X150821428Y-63233390D01*
X150821428Y-63233390D02*
X150630952Y-63233390D01*
X150630952Y-63233390D02*
X150535714Y-63281009D01*
X150535714Y-63281009D02*
X150488095Y-63328628D01*
X150488095Y-63328628D02*
X150440476Y-63423866D01*
X150440476Y-63423866D02*
X150440476Y-63614342D01*
X150440476Y-63614342D02*
X150488095Y-63709580D01*
X150488095Y-63709580D02*
X150535714Y-63757200D01*
X150535714Y-63757200D02*
X150630952Y-63804819D01*
X150630952Y-63804819D02*
X150821428Y-63804819D01*
X150821428Y-63804819D02*
X150916666Y-63757200D01*
X150916666Y-63757200D02*
X150964285Y-63709580D01*
X150964285Y-63709580D02*
X151011904Y-63614342D01*
X151011904Y-63614342D02*
X151011904Y-63423866D01*
X151011904Y-63423866D02*
X150964285Y-63328628D01*
X150964285Y-63328628D02*
X150916666Y-63281009D01*
X150916666Y-63281009D02*
X150821428Y-63233390D01*
X106955809Y-85604819D02*
X106622476Y-85128628D01*
X106384381Y-85604819D02*
X106384381Y-84604819D01*
X106384381Y-84604819D02*
X106765333Y-84604819D01*
X106765333Y-84604819D02*
X106860571Y-84652438D01*
X106860571Y-84652438D02*
X106908190Y-84700057D01*
X106908190Y-84700057D02*
X106955809Y-84795295D01*
X106955809Y-84795295D02*
X106955809Y-84938152D01*
X106955809Y-84938152D02*
X106908190Y-85033390D01*
X106908190Y-85033390D02*
X106860571Y-85081009D01*
X106860571Y-85081009D02*
X106765333Y-85128628D01*
X106765333Y-85128628D02*
X106384381Y-85128628D01*
X107812952Y-84604819D02*
X107622476Y-84604819D01*
X107622476Y-84604819D02*
X107527238Y-84652438D01*
X107527238Y-84652438D02*
X107479619Y-84700057D01*
X107479619Y-84700057D02*
X107384381Y-84842914D01*
X107384381Y-84842914D02*
X107336762Y-85033390D01*
X107336762Y-85033390D02*
X107336762Y-85414342D01*
X107336762Y-85414342D02*
X107384381Y-85509580D01*
X107384381Y-85509580D02*
X107432000Y-85557200D01*
X107432000Y-85557200D02*
X107527238Y-85604819D01*
X107527238Y-85604819D02*
X107717714Y-85604819D01*
X107717714Y-85604819D02*
X107812952Y-85557200D01*
X107812952Y-85557200D02*
X107860571Y-85509580D01*
X107860571Y-85509580D02*
X107908190Y-85414342D01*
X107908190Y-85414342D02*
X107908190Y-85176247D01*
X107908190Y-85176247D02*
X107860571Y-85081009D01*
X107860571Y-85081009D02*
X107812952Y-85033390D01*
X107812952Y-85033390D02*
X107717714Y-84985771D01*
X107717714Y-84985771D02*
X107527238Y-84985771D01*
X107527238Y-84985771D02*
X107432000Y-85033390D01*
X107432000Y-85033390D02*
X107384381Y-85081009D01*
X107384381Y-85081009D02*
X107336762Y-85176247D01*
X77505809Y-85604819D02*
X77172476Y-85128628D01*
X76934381Y-85604819D02*
X76934381Y-84604819D01*
X76934381Y-84604819D02*
X77315333Y-84604819D01*
X77315333Y-84604819D02*
X77410571Y-84652438D01*
X77410571Y-84652438D02*
X77458190Y-84700057D01*
X77458190Y-84700057D02*
X77505809Y-84795295D01*
X77505809Y-84795295D02*
X77505809Y-84938152D01*
X77505809Y-84938152D02*
X77458190Y-85033390D01*
X77458190Y-85033390D02*
X77410571Y-85081009D01*
X77410571Y-85081009D02*
X77315333Y-85128628D01*
X77315333Y-85128628D02*
X76934381Y-85128628D01*
X77839143Y-84604819D02*
X78458190Y-84604819D01*
X78458190Y-84604819D02*
X78124857Y-84985771D01*
X78124857Y-84985771D02*
X78267714Y-84985771D01*
X78267714Y-84985771D02*
X78362952Y-85033390D01*
X78362952Y-85033390D02*
X78410571Y-85081009D01*
X78410571Y-85081009D02*
X78458190Y-85176247D01*
X78458190Y-85176247D02*
X78458190Y-85414342D01*
X78458190Y-85414342D02*
X78410571Y-85509580D01*
X78410571Y-85509580D02*
X78362952Y-85557200D01*
X78362952Y-85557200D02*
X78267714Y-85604819D01*
X78267714Y-85604819D02*
X77982000Y-85604819D01*
X77982000Y-85604819D02*
X77886762Y-85557200D01*
X77886762Y-85557200D02*
X77839143Y-85509580D01*
D11*
%TO.C,R26*%
X153087258Y-67072500D02*
X152612742Y-67072500D01*
X153087258Y-66027500D02*
X152612742Y-66027500D01*
%TO.C,R9*%
X82744976Y-87062742D02*
X82744976Y-87537258D01*
X81699976Y-87062742D02*
X81699976Y-87537258D01*
%TO.C,R22*%
X151444976Y-87062742D02*
X151444976Y-87537258D01*
X150399976Y-87062742D02*
X150399976Y-87537258D01*
%TO.C,R14*%
X127294976Y-87062742D02*
X127294976Y-87537258D01*
X126249976Y-87062742D02*
X126249976Y-87537258D01*
%TO.C,R15*%
X137094976Y-87062742D02*
X137094976Y-87537258D01*
X136049976Y-87062742D02*
X136049976Y-87537258D01*
%TO.C,C8*%
X72076248Y-51565000D02*
X72598752Y-51565000D01*
X72076248Y-53035000D02*
X72598752Y-53035000D01*
D10*
%TO.C,D8*%
X131655000Y-104065000D02*
X126195000Y-104065000D01*
X131655000Y-101265000D02*
X126195000Y-101265000D01*
X130125000Y-104065000D02*
X130125000Y-101265000D01*
X126195000Y-104065000D02*
X126195000Y-103665000D01*
X126195000Y-101265000D02*
X126195000Y-101665000D01*
%TO.C,D7*%
X121855000Y-104065000D02*
X116395000Y-104065000D01*
X121855000Y-101265000D02*
X116395000Y-101265000D01*
X120325000Y-104065000D02*
X120325000Y-101265000D01*
X116395000Y-104065000D02*
X116395000Y-103665000D01*
X116395000Y-101265000D02*
X116395000Y-101665000D01*
D11*
%TO.C,C2*%
X123735000Y-63338748D02*
X123735000Y-63861252D01*
X122265000Y-63338748D02*
X122265000Y-63861252D01*
D12*
%TO.C,J3*%
X76600000Y-111250000D02*
X76600000Y-121550000D01*
X76600000Y-111250000D02*
X152600000Y-111250000D01*
X76600000Y-113830000D02*
X152600000Y-113830000D01*
X76600000Y-118350000D02*
X152600000Y-118350000D01*
X76600000Y-118910000D02*
X152600000Y-118910000D01*
X76600000Y-119950000D02*
X152600000Y-119950000D01*
X76600000Y-121550000D02*
X152600000Y-121550000D01*
X78380000Y-111250000D02*
X78380000Y-112990000D01*
X78380000Y-112090000D02*
X80590000Y-112090000D01*
X78380000Y-112990000D02*
X80590000Y-112990000D01*
X80590000Y-112990000D02*
X80590000Y-111250000D01*
X83460000Y-111290000D02*
X83460000Y-113030000D01*
X83460000Y-112130000D02*
X85670000Y-112130000D01*
X83460000Y-113030000D02*
X85670000Y-113030000D01*
X85670000Y-113030000D02*
X85670000Y-111290000D01*
X88500000Y-111290000D02*
X88500000Y-113030000D01*
X88500000Y-112130000D02*
X90710000Y-112130000D01*
X88500000Y-113030000D02*
X90710000Y-113030000D01*
X90710000Y-113030000D02*
X90710000Y-111290000D01*
X93390000Y-111250000D02*
X93390000Y-112990000D01*
X93390000Y-112090000D02*
X95600000Y-112090000D01*
X93390000Y-112990000D02*
X95600000Y-112990000D01*
X95600000Y-112990000D02*
X95600000Y-111250000D01*
X98520000Y-111290000D02*
X98520000Y-113030000D01*
X98520000Y-112130000D02*
X100730000Y-112130000D01*
X98520000Y-113030000D02*
X100730000Y-113030000D01*
X100730000Y-113030000D02*
X100730000Y-111290000D01*
X103640000Y-111290000D02*
X103640000Y-113030000D01*
X103640000Y-112130000D02*
X105850000Y-112130000D01*
X103640000Y-113030000D02*
X105850000Y-113030000D01*
X105850000Y-113030000D02*
X105850000Y-111290000D01*
X108490000Y-111250000D02*
X108490000Y-112990000D01*
X108490000Y-112090000D02*
X110700000Y-112090000D01*
X108490000Y-112990000D02*
X110700000Y-112990000D01*
X110700000Y-112990000D02*
X110700000Y-111250000D01*
X113570000Y-111200000D02*
X113570000Y-112940000D01*
X113570000Y-112040000D02*
X115780000Y-112040000D01*
X113570000Y-112940000D02*
X115780000Y-112940000D01*
X115780000Y-112940000D02*
X115780000Y-111200000D01*
X118460000Y-111290000D02*
X118460000Y-113030000D01*
X118460000Y-112130000D02*
X120670000Y-112130000D01*
X118460000Y-113030000D02*
X120670000Y-113030000D01*
X120670000Y-113030000D02*
X120670000Y-111290000D01*
X123540000Y-111290000D02*
X123540000Y-113030000D01*
X123540000Y-112130000D02*
X125750000Y-112130000D01*
X123540000Y-113030000D02*
X125750000Y-113030000D01*
X125750000Y-113030000D02*
X125750000Y-111290000D01*
X128570000Y-111290000D02*
X128570000Y-113030000D01*
X128570000Y-112130000D02*
X130780000Y-112130000D01*
X128570000Y-113030000D02*
X130780000Y-113030000D01*
X130780000Y-113030000D02*
X130780000Y-111290000D01*
X133460000Y-111340000D02*
X133460000Y-113080000D01*
X133460000Y-112180000D02*
X135670000Y-112180000D01*
X133460000Y-113080000D02*
X135670000Y-113080000D01*
X135670000Y-113080000D02*
X135670000Y-111340000D01*
X138360000Y-111250000D02*
X138360000Y-112990000D01*
X138360000Y-112090000D02*
X140570000Y-112090000D01*
X138360000Y-112990000D02*
X140570000Y-112990000D01*
X140570000Y-112990000D02*
X140570000Y-111250000D01*
X143290000Y-111290000D02*
X143290000Y-113030000D01*
X143290000Y-112130000D02*
X145500000Y-112130000D01*
X143290000Y-113030000D02*
X145500000Y-113030000D01*
X145500000Y-113030000D02*
X145500000Y-111290000D01*
X148520000Y-111250000D02*
X148520000Y-112990000D01*
X148520000Y-112090000D02*
X150730000Y-112090000D01*
X148520000Y-112990000D02*
X150730000Y-112990000D01*
X150730000Y-112990000D02*
X150730000Y-111250000D01*
X152600000Y-111250000D02*
X152600000Y-121550000D01*
D11*
%TO.C,U1*%
X77487500Y-58390000D02*
X75687500Y-58390000D01*
X77487500Y-58390000D02*
X78287500Y-58390000D01*
X77487500Y-61510000D02*
X76687500Y-61510000D01*
X77487500Y-61510000D02*
X78287500Y-61510000D01*
%TO.C,Q6*%
X112842436Y-92655000D02*
X112572436Y-92655000D01*
X112572436Y-92655000D02*
X112572436Y-89825000D01*
X106212436Y-92655000D02*
X106212436Y-91555000D01*
X105942436Y-92655000D02*
X106212436Y-92655000D01*
X112842436Y-99075000D02*
X112842436Y-92655000D01*
X105942436Y-99075000D02*
X105942436Y-92655000D01*
%TO.C,R21*%
X141644976Y-87062742D02*
X141644976Y-87537258D01*
X140599976Y-87062742D02*
X140599976Y-87537258D01*
%TO.C,R8*%
X72944976Y-87062742D02*
X72944976Y-87537258D01*
X71899976Y-87062742D02*
X71899976Y-87537258D01*
D10*
%TO.C,D10*%
X151455000Y-104065000D02*
X145995000Y-104065000D01*
X151455000Y-101265000D02*
X145995000Y-101265000D01*
X149925000Y-104065000D02*
X149925000Y-101265000D01*
X145995000Y-104065000D02*
X145995000Y-103665000D01*
X145995000Y-101265000D02*
X145995000Y-101665000D01*
D11*
%TO.C,Q12*%
X171725000Y-92655000D02*
X171455000Y-92655000D01*
X171455000Y-92655000D02*
X171455000Y-89825000D01*
X165095000Y-92655000D02*
X165095000Y-91555000D01*
X164825000Y-92655000D02*
X165095000Y-92655000D01*
X171725000Y-99075000D02*
X171725000Y-92655000D01*
X164825000Y-99075000D02*
X164825000Y-92655000D01*
%TO.C,Q1*%
X63773636Y-92655000D02*
X63503636Y-92655000D01*
X63503636Y-92655000D02*
X63503636Y-89825000D01*
X57143636Y-92655000D02*
X57143636Y-91555000D01*
X56873636Y-92655000D02*
X57143636Y-92655000D01*
X63773636Y-99075000D02*
X63773636Y-92655000D01*
X56873636Y-99075000D02*
X56873636Y-92655000D01*
%TO.C,C4*%
X72902500Y-60123752D02*
X72902500Y-59601248D01*
X74372500Y-60123752D02*
X74372500Y-59601248D01*
%TO.C,Q7*%
X122656196Y-92655000D02*
X122386196Y-92655000D01*
X122386196Y-92655000D02*
X122386196Y-89825000D01*
X116026196Y-92655000D02*
X116026196Y-91555000D01*
X115756196Y-92655000D02*
X116026196Y-92655000D01*
X122656196Y-99075000D02*
X122656196Y-92655000D01*
X115756196Y-99075000D02*
X115756196Y-92655000D01*
%TO.C,R18*%
X166494976Y-87062742D02*
X166494976Y-87537258D01*
X165449976Y-87062742D02*
X165449976Y-87537258D01*
%TO.C,Q2*%
X73587396Y-92655000D02*
X73317396Y-92655000D01*
X73317396Y-92655000D02*
X73317396Y-89825000D01*
X66957396Y-92655000D02*
X66957396Y-91555000D01*
X66687396Y-92655000D02*
X66957396Y-92655000D01*
X73587396Y-99075000D02*
X73587396Y-92655000D01*
X66687396Y-99075000D02*
X66687396Y-92655000D01*
D10*
%TO.C,D3*%
X82655000Y-104065000D02*
X77195000Y-104065000D01*
X82655000Y-101265000D02*
X77195000Y-101265000D01*
X81125000Y-104065000D02*
X81125000Y-101265000D01*
X77195000Y-104065000D02*
X77195000Y-103665000D01*
X77195000Y-101265000D02*
X77195000Y-101665000D01*
D11*
%TO.C,R23*%
X161244976Y-87062742D02*
X161244976Y-87537258D01*
X160199976Y-87062742D02*
X160199976Y-87537258D01*
%TO.C,R2*%
X68394976Y-87062742D02*
X68394976Y-87537258D01*
X67349976Y-87062742D02*
X67349976Y-87537258D01*
%TO.C,R19*%
X121994976Y-87062742D02*
X121994976Y-87537258D01*
X120949976Y-87062742D02*
X120949976Y-87537258D01*
%TO.C,C7*%
X77661252Y-57735000D02*
X77138748Y-57735000D01*
X77661252Y-56265000D02*
X77138748Y-56265000D01*
%TO.C,C3*%
X70602500Y-60123752D02*
X70602500Y-59601248D01*
X72072500Y-60123752D02*
X72072500Y-59601248D01*
%TO.C,R27*%
X153087258Y-65472500D02*
X152612742Y-65472500D01*
X153087258Y-64427500D02*
X152612742Y-64427500D01*
D10*
%TO.C,D4*%
X92405000Y-104065000D02*
X86945000Y-104065000D01*
X92405000Y-101265000D02*
X86945000Y-101265000D01*
X90875000Y-104065000D02*
X90875000Y-101265000D01*
X86945000Y-104065000D02*
X86945000Y-103665000D01*
X86945000Y-101265000D02*
X86945000Y-101665000D01*
D11*
%TO.C,R25*%
X121322500Y-63387742D02*
X121322500Y-63862258D01*
X120277500Y-63387742D02*
X120277500Y-63862258D01*
%TO.C,R5*%
X97775408Y-87062742D02*
X97775408Y-87537258D01*
X96730408Y-87062742D02*
X96730408Y-87537258D01*
%TO.C,C1*%
X73170000Y-72700000D02*
G75*
G03*
X73170000Y-72700000I-5120000J0D01*
G01*
X67451000Y-67619000D02*
X68649000Y-67619000D01*
X67188000Y-67659000D02*
X68912000Y-67659000D01*
X66988000Y-67699000D02*
X69112000Y-67699000D01*
X66820000Y-67739000D02*
X69280000Y-67739000D01*
X66672000Y-67779000D02*
X69428000Y-67779000D01*
X66540000Y-67819000D02*
X69560000Y-67819000D01*
X66420000Y-67859000D02*
X69680000Y-67859000D01*
X66308000Y-67899000D02*
X69792000Y-67899000D01*
X66204000Y-67939000D02*
X69896000Y-67939000D01*
X66106000Y-67979000D02*
X69994000Y-67979000D01*
X66013000Y-68019000D02*
X70087000Y-68019000D01*
X65925000Y-68059000D02*
X70175000Y-68059000D01*
X65841000Y-68099000D02*
X70259000Y-68099000D01*
X65761000Y-68139000D02*
X70339000Y-68139000D01*
X65685000Y-68179000D02*
X70415000Y-68179000D01*
X65611000Y-68219000D02*
X70489000Y-68219000D01*
X65540000Y-68259000D02*
X70560000Y-68259000D01*
X65471000Y-68299000D02*
X70629000Y-68299000D01*
X65405000Y-68339000D02*
X70695000Y-68339000D01*
X65341000Y-68379000D02*
X70759000Y-68379000D01*
X65280000Y-68419000D02*
X70820000Y-68419000D01*
X65220000Y-68459000D02*
X70880000Y-68459000D01*
X65161000Y-68499000D02*
X70939000Y-68499000D01*
X65105000Y-68539000D02*
X70995000Y-68539000D01*
X65050000Y-68579000D02*
X71050000Y-68579000D01*
X64996000Y-68619000D02*
X71104000Y-68619000D01*
X64944000Y-68659000D02*
X71156000Y-68659000D01*
X64894000Y-68699000D02*
X71206000Y-68699000D01*
X64844000Y-68739000D02*
X71256000Y-68739000D01*
X64796000Y-68779000D02*
X71304000Y-68779000D01*
X64749000Y-68819000D02*
X71351000Y-68819000D01*
X64703000Y-68859000D02*
X71397000Y-68859000D01*
X64658000Y-68899000D02*
X71442000Y-68899000D01*
X64614000Y-68939000D02*
X71486000Y-68939000D01*
X69291000Y-68979000D02*
X71528000Y-68979000D01*
X64572000Y-68979000D02*
X66809000Y-68979000D01*
X69291000Y-69019000D02*
X71570000Y-69019000D01*
X64530000Y-69019000D02*
X66809000Y-69019000D01*
X69291000Y-69059000D02*
X71611000Y-69059000D01*
X64489000Y-69059000D02*
X66809000Y-69059000D01*
X69291000Y-69099000D02*
X71651000Y-69099000D01*
X64449000Y-69099000D02*
X66809000Y-69099000D01*
X69291000Y-69139000D02*
X71690000Y-69139000D01*
X64410000Y-69139000D02*
X66809000Y-69139000D01*
X69291000Y-69179000D02*
X71729000Y-69179000D01*
X64371000Y-69179000D02*
X66809000Y-69179000D01*
X69291000Y-69219000D02*
X71766000Y-69219000D01*
X64334000Y-69219000D02*
X66809000Y-69219000D01*
X69291000Y-69259000D02*
X71803000Y-69259000D01*
X64297000Y-69259000D02*
X66809000Y-69259000D01*
X69291000Y-69299000D02*
X71839000Y-69299000D01*
X64261000Y-69299000D02*
X66809000Y-69299000D01*
X69291000Y-69339000D02*
X71874000Y-69339000D01*
X64226000Y-69339000D02*
X66809000Y-69339000D01*
X69291000Y-69379000D02*
X71908000Y-69379000D01*
X64192000Y-69379000D02*
X66809000Y-69379000D01*
X69291000Y-69419000D02*
X71942000Y-69419000D01*
X64158000Y-69419000D02*
X66809000Y-69419000D01*
X69291000Y-69459000D02*
X71975000Y-69459000D01*
X64125000Y-69459000D02*
X66809000Y-69459000D01*
X69291000Y-69499000D02*
X72007000Y-69499000D01*
X64093000Y-69499000D02*
X66809000Y-69499000D01*
X69291000Y-69539000D02*
X72039000Y-69539000D01*
X64061000Y-69539000D02*
X66809000Y-69539000D01*
X69291000Y-69579000D02*
X72070000Y-69579000D01*
X64030000Y-69579000D02*
X66809000Y-69579000D01*
X69291000Y-69619000D02*
X72100000Y-69619000D01*
X64000000Y-69619000D02*
X66809000Y-69619000D01*
X69291000Y-69659000D02*
X72130000Y-69659000D01*
X63970000Y-69659000D02*
X66809000Y-69659000D01*
X69291000Y-69699000D02*
X72160000Y-69699000D01*
X63940000Y-69699000D02*
X66809000Y-69699000D01*
X69291000Y-69739000D02*
X72188000Y-69739000D01*
X63912000Y-69739000D02*
X66809000Y-69739000D01*
X69291000Y-69779000D02*
X72216000Y-69779000D01*
X63884000Y-69779000D02*
X66809000Y-69779000D01*
X69291000Y-69819000D02*
X72244000Y-69819000D01*
X63856000Y-69819000D02*
X66809000Y-69819000D01*
X69291000Y-69859000D02*
X72271000Y-69859000D01*
X63829000Y-69859000D02*
X66809000Y-69859000D01*
X69291000Y-69899000D02*
X72297000Y-69899000D01*
X63803000Y-69899000D02*
X66809000Y-69899000D01*
X69291000Y-69939000D02*
X72323000Y-69939000D01*
X63777000Y-69939000D02*
X66809000Y-69939000D01*
X69291000Y-69979000D02*
X72348000Y-69979000D01*
X63752000Y-69979000D02*
X66809000Y-69979000D01*
X69291000Y-70019000D02*
X72373000Y-70019000D01*
X63727000Y-70019000D02*
X66809000Y-70019000D01*
X69291000Y-70059000D02*
X72397000Y-70059000D01*
X63703000Y-70059000D02*
X66809000Y-70059000D01*
X69291000Y-70099000D02*
X72421000Y-70099000D01*
X63679000Y-70099000D02*
X66809000Y-70099000D01*
X69291000Y-70139000D02*
X72445000Y-70139000D01*
X63655000Y-70139000D02*
X66809000Y-70139000D01*
X69291000Y-70179000D02*
X72467000Y-70179000D01*
X63633000Y-70179000D02*
X66809000Y-70179000D01*
X69291000Y-70219000D02*
X72490000Y-70219000D01*
X63610000Y-70219000D02*
X66809000Y-70219000D01*
X69291000Y-70259000D02*
X72512000Y-70259000D01*
X63588000Y-70259000D02*
X66809000Y-70259000D01*
X69291000Y-70299000D02*
X72533000Y-70299000D01*
X63567000Y-70299000D02*
X66809000Y-70299000D01*
X69291000Y-70339000D02*
X72554000Y-70339000D01*
X63546000Y-70339000D02*
X66809000Y-70339000D01*
X69291000Y-70379000D02*
X72575000Y-70379000D01*
X63525000Y-70379000D02*
X66809000Y-70379000D01*
X69291000Y-70419000D02*
X72595000Y-70419000D01*
X63505000Y-70419000D02*
X66809000Y-70419000D01*
X69291000Y-70459000D02*
X72614000Y-70459000D01*
X63486000Y-70459000D02*
X66809000Y-70459000D01*
X69291000Y-70499000D02*
X72634000Y-70499000D01*
X63466000Y-70499000D02*
X66809000Y-70499000D01*
X69291000Y-70539000D02*
X72653000Y-70539000D01*
X63447000Y-70539000D02*
X66809000Y-70539000D01*
X69291000Y-70579000D02*
X72671000Y-70579000D01*
X63429000Y-70579000D02*
X66809000Y-70579000D01*
X69291000Y-70619000D02*
X72689000Y-70619000D01*
X63411000Y-70619000D02*
X66809000Y-70619000D01*
X69291000Y-70659000D02*
X72707000Y-70659000D01*
X63393000Y-70659000D02*
X66809000Y-70659000D01*
X69291000Y-70699000D02*
X72724000Y-70699000D01*
X63376000Y-70699000D02*
X66809000Y-70699000D01*
X69291000Y-70739000D02*
X72740000Y-70739000D01*
X63360000Y-70739000D02*
X66809000Y-70739000D01*
X69291000Y-70779000D02*
X72757000Y-70779000D01*
X63343000Y-70779000D02*
X66809000Y-70779000D01*
X69291000Y-70819000D02*
X72773000Y-70819000D01*
X63327000Y-70819000D02*
X66809000Y-70819000D01*
X69291000Y-70859000D02*
X72788000Y-70859000D01*
X63312000Y-70859000D02*
X66809000Y-70859000D01*
X69291000Y-70899000D02*
X72804000Y-70899000D01*
X63296000Y-70899000D02*
X66809000Y-70899000D01*
X69291000Y-70939000D02*
X72818000Y-70939000D01*
X63282000Y-70939000D02*
X66809000Y-70939000D01*
X69291000Y-70979000D02*
X72833000Y-70979000D01*
X63267000Y-70979000D02*
X66809000Y-70979000D01*
X69291000Y-71019000D02*
X72847000Y-71019000D01*
X63253000Y-71019000D02*
X66809000Y-71019000D01*
X69291000Y-71059000D02*
X72861000Y-71059000D01*
X63239000Y-71059000D02*
X66809000Y-71059000D01*
X69291000Y-71099000D02*
X72874000Y-71099000D01*
X63226000Y-71099000D02*
X66809000Y-71099000D01*
X69291000Y-71139000D02*
X72887000Y-71139000D01*
X63213000Y-71139000D02*
X66809000Y-71139000D01*
X69291000Y-71179000D02*
X72900000Y-71179000D01*
X63200000Y-71179000D02*
X66809000Y-71179000D01*
X69291000Y-71219000D02*
X72912000Y-71219000D01*
X63188000Y-71219000D02*
X66809000Y-71219000D01*
X69291000Y-71259000D02*
X72924000Y-71259000D01*
X63176000Y-71259000D02*
X66809000Y-71259000D01*
X69291000Y-71299000D02*
X72935000Y-71299000D01*
X63165000Y-71299000D02*
X66809000Y-71299000D01*
X69291000Y-71339000D02*
X72947000Y-71339000D01*
X63153000Y-71339000D02*
X66809000Y-71339000D01*
X69291000Y-71379000D02*
X72957000Y-71379000D01*
X63143000Y-71379000D02*
X66809000Y-71379000D01*
X69291000Y-71419000D02*
X72968000Y-71419000D01*
X63132000Y-71419000D02*
X66809000Y-71419000D01*
X63122000Y-71459000D02*
X72978000Y-71459000D01*
X63112000Y-71499000D02*
X72988000Y-71499000D01*
X63103000Y-71539000D02*
X72997000Y-71539000D01*
X63094000Y-71579000D02*
X73006000Y-71579000D01*
X63085000Y-71619000D02*
X73015000Y-71619000D01*
X63076000Y-71659000D02*
X73024000Y-71659000D01*
X63068000Y-71699000D02*
X73032000Y-71699000D01*
X63060000Y-71739000D02*
X73040000Y-71739000D01*
X63053000Y-71779000D02*
X73047000Y-71779000D01*
X63046000Y-71819000D02*
X73054000Y-71819000D01*
X63039000Y-71859000D02*
X73061000Y-71859000D01*
X63032000Y-71899000D02*
X73068000Y-71899000D01*
X63026000Y-71939000D02*
X73074000Y-71939000D01*
X63020000Y-71979000D02*
X73080000Y-71979000D01*
X63015000Y-72020000D02*
X73085000Y-72020000D01*
X63010000Y-72060000D02*
X73090000Y-72060000D01*
X63005000Y-72100000D02*
X73095000Y-72100000D01*
X63000000Y-72140000D02*
X73100000Y-72140000D01*
X62996000Y-72180000D02*
X73104000Y-72180000D01*
X62992000Y-72220000D02*
X73108000Y-72220000D01*
X62988000Y-72260000D02*
X73112000Y-72260000D01*
X62985000Y-72300000D02*
X73115000Y-72300000D01*
X62982000Y-72340000D02*
X73118000Y-72340000D01*
X62980000Y-72380000D02*
X73120000Y-72380000D01*
X62977000Y-72420000D02*
X73123000Y-72420000D01*
X62975000Y-72460000D02*
X73125000Y-72460000D01*
X62973000Y-72500000D02*
X73127000Y-72500000D01*
X62972000Y-72540000D02*
X73128000Y-72540000D01*
X62971000Y-72580000D02*
X73129000Y-72580000D01*
X62970000Y-72620000D02*
X73130000Y-72620000D01*
X62970000Y-72660000D02*
X73130000Y-72660000D01*
X62970000Y-72700000D02*
X73130000Y-72700000D01*
X64675000Y-77679646D02*
X65675000Y-77679646D01*
X65175000Y-78179646D02*
X65175000Y-77179646D01*
D10*
%TO.C,D2*%
X72855000Y-104065000D02*
X67395000Y-104065000D01*
X72855000Y-101265000D02*
X67395000Y-101265000D01*
X71325000Y-104065000D02*
X71325000Y-101265000D01*
X67395000Y-104065000D02*
X67395000Y-103665000D01*
X67395000Y-101265000D02*
X67395000Y-101665000D01*
D12*
%TO.C,J1*%
X59390000Y-66860000D02*
X58590000Y-66860000D01*
X58590000Y-66860000D02*
X58590000Y-67620000D01*
X52060000Y-66860000D02*
X51260000Y-66860000D01*
X51260000Y-66860000D02*
X51260000Y-67620000D01*
X60650000Y-67620000D02*
X50150000Y-67620000D01*
X60650000Y-67620000D02*
X60650000Y-77780000D01*
X59390000Y-67620000D02*
X59390000Y-66860000D01*
X57990000Y-67620000D02*
X57990000Y-77780000D01*
X53380000Y-67620000D02*
X53380000Y-77780000D01*
X52060000Y-67620000D02*
X52060000Y-66860000D01*
X50150000Y-67620000D02*
X50150000Y-77780000D01*
X52000000Y-68750000D02*
X52550000Y-69300000D01*
X50150000Y-68750000D02*
X52000000Y-68750000D01*
X52550000Y-69300000D02*
X52550000Y-71000000D01*
X52550000Y-71000000D02*
X52050000Y-71500000D01*
X52050000Y-71500000D02*
X50150000Y-71500000D01*
X52000000Y-73830000D02*
X52550000Y-74380000D01*
X50150000Y-73830000D02*
X52000000Y-73830000D01*
X52550000Y-74380000D02*
X52550000Y-76080000D01*
X52550000Y-76080000D02*
X52050000Y-76580000D01*
X52050000Y-76580000D02*
X50150000Y-76580000D01*
X60650000Y-77780000D02*
X50150000Y-77780000D01*
%TO.C,SW1*%
X155700000Y-61550000D02*
X155700000Y-57050000D01*
X160200000Y-61550000D02*
X155700000Y-61550000D01*
X155700000Y-57050000D02*
X160200000Y-57050000D01*
X160200000Y-57050000D02*
X160200000Y-61550000D01*
X156790000Y-60820000D02*
G75*
G03*
X156790000Y-60820000I-360000J0D01*
G01*
X159830000Y-60820000D02*
G75*
G03*
X159830000Y-60820000I-360000J0D01*
G01*
X159120000Y-59300000D02*
G75*
G03*
X159120000Y-59300000I-1170000J0D01*
G01*
X156790000Y-57780000D02*
G75*
G03*
X156790000Y-57780000I-360000J0D01*
G01*
X159830000Y-57780000D02*
G75*
G03*
X159830000Y-57780000I-360000J0D01*
G01*
D11*
%TO.C,Q11*%
X161911236Y-92655000D02*
X161641236Y-92655000D01*
X161641236Y-92655000D02*
X161641236Y-89825000D01*
X155281236Y-92655000D02*
X155281236Y-91555000D01*
X155011236Y-92655000D02*
X155281236Y-92655000D01*
X161911236Y-99075000D02*
X161911236Y-92655000D01*
X155011236Y-99075000D02*
X155011236Y-92655000D01*
%TO.C,R4*%
X87994976Y-87062742D02*
X87994976Y-87537258D01*
X86949976Y-87062742D02*
X86949976Y-87537258D01*
%TO.C,R10*%
X92594976Y-87062742D02*
X92594976Y-87537258D01*
X91549976Y-87062742D02*
X91549976Y-87537258D01*
%TO.C,R31*%
X81027500Y-60349758D02*
X81027500Y-59875242D01*
X82072500Y-60349758D02*
X82072500Y-59875242D01*
%TO.C,Q9*%
X142283716Y-92655000D02*
X142013716Y-92655000D01*
X142013716Y-92655000D02*
X142013716Y-89825000D01*
X135653716Y-92655000D02*
X135653716Y-91555000D01*
X135383716Y-92655000D02*
X135653716Y-92655000D01*
X142283716Y-99075000D02*
X142283716Y-92655000D01*
X135383716Y-99075000D02*
X135383716Y-92655000D01*
%TO.C,R17*%
X156694976Y-87062742D02*
X156694976Y-87537258D01*
X155649976Y-87062742D02*
X155649976Y-87537258D01*
%TO.C,C5*%
X120065000Y-58661252D02*
X120065000Y-58138748D01*
X121535000Y-58661252D02*
X121535000Y-58138748D01*
%TO.C,C11*%
X86035000Y-59801248D02*
X86035000Y-60323752D01*
X84565000Y-59801248D02*
X84565000Y-60323752D01*
%TO.C,Q8*%
X132469956Y-92655000D02*
X132199956Y-92655000D01*
X132199956Y-92655000D02*
X132199956Y-89825000D01*
X125839956Y-92655000D02*
X125839956Y-91555000D01*
X125569956Y-92655000D02*
X125839956Y-92655000D01*
X132469956Y-99075000D02*
X132469956Y-92655000D01*
X125569956Y-99075000D02*
X125569956Y-92655000D01*
%TO.C,R30*%
X83922500Y-59875242D02*
X83922500Y-60349758D01*
X82877500Y-59875242D02*
X82877500Y-60349758D01*
%TO.C,R20*%
X131844976Y-87062742D02*
X131844976Y-87537258D01*
X130799976Y-87062742D02*
X130799976Y-87537258D01*
%TO.C,R29*%
X164462742Y-60627500D02*
X164937258Y-60627500D01*
X164462742Y-61672500D02*
X164937258Y-61672500D01*
%TO.C,C9*%
X72076248Y-53715000D02*
X72598752Y-53715000D01*
X72076248Y-55185000D02*
X72598752Y-55185000D01*
%TO.C,R11*%
X102394976Y-87062742D02*
X102394976Y-87537258D01*
X101349976Y-87062742D02*
X101349976Y-87537258D01*
%TO.C,Q4*%
X93214916Y-92655000D02*
X92944916Y-92655000D01*
X92944916Y-92655000D02*
X92944916Y-89825000D01*
X86584916Y-92655000D02*
X86584916Y-91555000D01*
X86314916Y-92655000D02*
X86584916Y-92655000D01*
X93214916Y-99075000D02*
X93214916Y-92655000D01*
X86314916Y-99075000D02*
X86314916Y-92655000D01*
D10*
%TO.C,D9*%
X141355000Y-104065000D02*
X135895000Y-104065000D01*
X141355000Y-101265000D02*
X135895000Y-101265000D01*
X139825000Y-104065000D02*
X139825000Y-101265000D01*
X135895000Y-104065000D02*
X135895000Y-103665000D01*
X135895000Y-101265000D02*
X135895000Y-101665000D01*
%TO.C,D6*%
X111955000Y-104065000D02*
X106495000Y-104065000D01*
X111955000Y-101265000D02*
X106495000Y-101265000D01*
X110425000Y-104065000D02*
X110425000Y-101265000D01*
X106495000Y-104065000D02*
X106495000Y-103665000D01*
X106495000Y-101265000D02*
X106495000Y-101665000D01*
D11*
%TO.C,J2*%
X178130000Y-80370000D02*
X176800000Y-80370000D01*
X178130000Y-79040000D02*
X178130000Y-80370000D01*
X178130000Y-77770000D02*
X178130000Y-65010000D01*
X178130000Y-77770000D02*
X175470000Y-77770000D01*
X178130000Y-65010000D02*
X175470000Y-65010000D01*
X175470000Y-77770000D02*
X175470000Y-65010000D01*
D10*
%TO.C,D11*%
X161055000Y-104065000D02*
X155595000Y-104065000D01*
X161055000Y-101265000D02*
X155595000Y-101265000D01*
X159525000Y-104065000D02*
X159525000Y-101265000D01*
X155595000Y-104065000D02*
X155595000Y-103665000D01*
X155595000Y-101265000D02*
X155595000Y-101665000D01*
D11*
%TO.C,R7*%
X63144976Y-87062742D02*
X63144976Y-87537258D01*
X62099976Y-87062742D02*
X62099976Y-87537258D01*
%TO.C,R13*%
X117444976Y-87062742D02*
X117444976Y-87537258D01*
X116399976Y-87062742D02*
X116399976Y-87537258D01*
%TO.C,C6*%
X122265000Y-58661252D02*
X122265000Y-58138748D01*
X123735000Y-58661252D02*
X123735000Y-58138748D01*
%TO.C,Q5*%
X103028676Y-92655000D02*
X102758676Y-92655000D01*
X102758676Y-92655000D02*
X102758676Y-89825000D01*
X96398676Y-92655000D02*
X96398676Y-91555000D01*
X96128676Y-92655000D02*
X96398676Y-92655000D01*
X103028676Y-99075000D02*
X103028676Y-92655000D01*
X96128676Y-99075000D02*
X96128676Y-92655000D01*
D12*
%TO.C,L1*%
X63350000Y-60300000D02*
X64660000Y-60300000D01*
X63350000Y-60300000D02*
X63350000Y-53700000D01*
X68630000Y-60300000D02*
X69950000Y-60300000D01*
X69950000Y-60300000D02*
X69950000Y-53700000D01*
X63350000Y-53700000D02*
X64660000Y-53700000D01*
X68630000Y-53700000D02*
X69950000Y-53700000D01*
D11*
%TO.C,Q10*%
X152097476Y-92655000D02*
X151827476Y-92655000D01*
X151827476Y-92655000D02*
X151827476Y-89825000D01*
X145467476Y-92655000D02*
X145467476Y-91555000D01*
X145197476Y-92655000D02*
X145467476Y-92655000D01*
X152097476Y-99075000D02*
X152097476Y-92655000D01*
X145197476Y-99075000D02*
X145197476Y-92655000D01*
%TO.C,R24*%
X171094976Y-87062742D02*
X171094976Y-87537258D01*
X170049976Y-87062742D02*
X170049976Y-87537258D01*
D10*
%TO.C,D12*%
X171205000Y-104065000D02*
X165745000Y-104065000D01*
X171205000Y-101265000D02*
X165745000Y-101265000D01*
X169675000Y-104065000D02*
X169675000Y-101265000D01*
X165745000Y-104065000D02*
X165745000Y-103665000D01*
X165745000Y-101265000D02*
X165745000Y-101665000D01*
D11*
%TO.C,Q3*%
X83401156Y-92655000D02*
X83131156Y-92655000D01*
X83131156Y-92655000D02*
X83131156Y-89825000D01*
X76771156Y-92655000D02*
X76771156Y-91555000D01*
X76501156Y-92655000D02*
X76771156Y-92655000D01*
X83401156Y-99075000D02*
X83401156Y-92655000D01*
X76501156Y-99075000D02*
X76501156Y-92655000D01*
D10*
%TO.C,D1*%
X63005000Y-104065000D02*
X57545000Y-104065000D01*
X63005000Y-101265000D02*
X57545000Y-101265000D01*
X61475000Y-104065000D02*
X61475000Y-101265000D01*
X57545000Y-104065000D02*
X57545000Y-103665000D01*
X57545000Y-101265000D02*
X57545000Y-101665000D01*
%TO.C,D5*%
X102205000Y-104065000D02*
X96745000Y-104065000D01*
X102205000Y-101265000D02*
X96745000Y-101265000D01*
X100675000Y-104065000D02*
X100675000Y-101265000D01*
X96745000Y-104065000D02*
X96745000Y-103665000D01*
X96745000Y-101265000D02*
X96745000Y-101665000D01*
D11*
%TO.C,R16*%
X146894976Y-87062742D02*
X146894976Y-87537258D01*
X145849976Y-87062742D02*
X145849976Y-87537258D01*
%TO.C,C10*%
X72076248Y-55865000D02*
X72598752Y-55865000D01*
X72076248Y-57335000D02*
X72598752Y-57335000D01*
%TO.C,U2*%
X125080000Y-50010000D02*
X125080000Y-56425000D01*
X125080000Y-50010000D02*
X143320000Y-50010000D01*
X125080000Y-56425000D02*
X124700000Y-56425000D01*
X125080000Y-74970000D02*
X125080000Y-75750000D01*
X125080000Y-75750000D02*
X126080000Y-75750000D01*
X143320000Y-50010000D02*
X143320000Y-56425000D01*
X143320000Y-74970000D02*
X143320000Y-75750000D01*
X143320000Y-75750000D02*
X142320000Y-75750000D01*
%TO.C,R1*%
X58644976Y-87062742D02*
X58644976Y-87537258D01*
X57599976Y-87062742D02*
X57599976Y-87537258D01*
D12*
%TO.C,LED1*%
X157970000Y-65580000D02*
X157970000Y-64310000D01*
X157970000Y-64950000D02*
X158260000Y-64950000D01*
D11*
%TO.C,R12*%
X112194976Y-87062742D02*
X112194976Y-87537258D01*
X111149976Y-87062742D02*
X111149976Y-87537258D01*
%TO.C,R28*%
X153087258Y-63872500D02*
X152612742Y-63872500D01*
X153087258Y-62827500D02*
X152612742Y-62827500D01*
%TO.C,R6*%
X107644976Y-87062742D02*
X107644976Y-87537258D01*
X106599976Y-87062742D02*
X106599976Y-87537258D01*
%TO.C,R3*%
X78194976Y-87062742D02*
X78194976Y-87537258D01*
X77149976Y-87062742D02*
X77149976Y-87537258D01*
%TD*%
M02*
